<svg width="370" height="67" viewBox="0 0 370 67" fill="none" xmlns="http://www.w3.org/2000/svg">
<g clip-path="url(#clip0)">
<path d="M15.9423 6.50179V9.58504C15.9335 11.2307 15.269 12.8056 14.0948 13.9634C12.9206 15.1213 11.3329 15.7674 9.68052 15.7598H6.58479C5.12937 15.7465 3.71564 16.2435 2.59121 17.164C1.46679 18.0844 0.703371 19.3696 0.434654 20.7942C0.164211 22.2734 0.0258979 23.7736 0.0213384 25.2771C0.0136452 26.9228 0.66239 28.5041 1.82495 29.6736C2.98751 30.8431 4.56874 31.5049 6.22107 31.5136L25.432 31.6C27.0843 31.6077 28.6721 30.9616 29.8463 29.8037C31.0205 28.6458 31.685 27.071 31.6937 25.4253L31.7805 6.29185C31.7882 4.64618 31.1395 3.0648 29.9769 1.89535C28.8143 0.725898 27.2331 0.0640794 25.5808 0.0553668C24.0737 0.0479215 22.5688 0.173279 21.0839 0.429969C19.6466 0.677909 18.3432 1.42265 17.4027 2.5332C16.4623 3.64375 15.9452 5.049 15.9423 6.50179Z" fill="white"/>
<path d="M6.58413 51.1228H9.67986C11.3322 51.1315 12.9134 51.7933 14.076 52.9628C15.2386 54.1322 15.8873 55.7136 15.8796 57.3593V60.4425C15.8662 61.8921 16.3653 63.3001 17.2895 64.42C18.2137 65.5399 19.504 66.3002 20.9344 66.5679C22.4196 66.8372 23.9258 66.9749 25.4354 66.9795C27.0878 66.9872 28.6756 66.341 29.8498 65.1832C31.0239 64.0253 31.6884 62.4504 31.6972 60.8048L31.784 41.6713C31.7917 40.0256 31.1429 38.4443 29.9804 37.2748C28.8178 36.1054 27.2366 35.4436 25.5842 35.4349L6.37334 35.3484C4.72101 35.3407 3.13324 35.9869 1.95906 37.1447C0.78487 38.3026 0.12036 39.8775 0.111612 41.5231C0.104137 43.0242 0.230001 44.5229 0.487731 46.0019C0.736675 47.4333 1.48444 48.7316 2.59949 49.6682C3.71454 50.6048 5.12546 51.1199 6.58413 51.1228Z" fill="white"/>
<path d="M51.1602 60.5001V57.4168C51.1689 55.7712 51.8335 54.1963 53.0076 53.0384C54.1818 51.8806 55.7696 51.2344 57.4219 51.2421H60.5176C61.9731 51.2554 63.3868 50.7583 64.5112 49.8379C65.6356 48.9174 66.3991 47.6323 66.6678 46.2076C66.9382 44.7285 67.0765 43.2283 67.0811 41.7248C67.0888 40.0791 66.44 38.4978 65.2775 37.3283C64.1149 36.1588 62.5337 35.497 60.8814 35.4883L41.6705 35.4019C40.0182 35.3942 38.4304 36.0403 37.2562 37.1982C36.082 38.3561 35.4175 39.9309 35.4087 41.5766L35.322 60.71C35.3143 62.3557 35.963 63.9371 37.1256 65.1065C38.2881 66.276 39.8694 66.9378 41.5217 66.9465C43.0288 66.954 44.5336 66.8286 46.0185 66.5719C47.4558 66.324 48.7593 65.5792 49.6997 64.4687C50.6402 63.3581 51.1573 61.9529 51.1602 60.5001Z" fill="white"/>
<path d="M60.5342 15.8773H57.4385C56.6175 15.8751 55.8051 15.7115 55.0478 15.3957C54.2906 15.08 53.6034 14.6183 53.0258 14.0373C52.4481 13.4563 51.9915 12.7673 51.682 12.01C51.3724 11.2527 51.2162 10.442 51.2222 9.62433V6.54108C51.2356 5.09154 50.7365 3.6835 49.8123 2.56361C48.8881 1.44372 47.5978 0.683378 46.1674 0.415745C44.6822 0.146413 43.1759 0.00865839 41.6663 0.0040957C40.014 -0.00356651 38.4262 0.64255 37.2521 1.80042C36.0779 2.9583 35.4133 4.53317 35.4046 6.17883L35.3178 25.3123C35.3101 26.9579 35.9588 28.5393 37.1214 29.7088C38.284 30.8782 39.8652 31.5401 41.5176 31.5488L60.7285 31.6352C62.3808 31.6429 63.9686 30.9968 65.1427 29.8389C66.3169 28.681 66.9815 27.1061 66.9902 25.4605C66.9977 23.9594 66.8718 22.4607 66.6141 20.9817C66.3622 19.556 65.6153 18.2638 64.504 17.3308C63.3927 16.3978 61.9877 15.8834 60.5342 15.8773Z" fill="white"/>
<path d="M107.237 19.3382C107.237 26.7849 102.038 31.3131 95.1932 31.3131C87.5138 31.3131 82.0002 25.6817 82.0002 18.6919C81.9908 17.0168 82.3163 15.3565 82.9577 13.8079C83.5991 12.2593 84.5437 10.8534 85.7363 9.67214C86.9289 8.49087 88.3457 7.55787 89.904 6.92754C91.4624 6.29721 93.1311 5.98218 94.813 6.00078C99.4917 6.00078 103.435 8.29366 105.493 11.5621L100.744 14.2749C99.7315 12.6777 97.5326 11.4263 94.7758 11.4263C90.6426 11.4263 87.5841 14.4519 87.5841 18.729C87.5841 22.866 90.5145 25.8917 95.2635 25.8917C98.508 25.8917 100.637 24.4673 101.513 22.1374H94.9866V17.2511H107.237V19.3382Z" fill="white"/>
<path d="M107.743 28.1486C107.743 27.5917 107.909 27.0473 108.22 26.5843C108.53 26.1212 108.972 25.7603 109.488 25.5472C110.005 25.3341 110.573 25.2783 111.122 25.387C111.67 25.4956 112.174 25.7638 112.569 26.1576C112.965 26.5514 113.234 27.0531 113.343 27.5993C113.452 28.1454 113.396 28.7116 113.182 29.2261C112.968 29.7406 112.606 30.1803 112.141 30.4897C111.676 30.7991 111.129 30.9643 110.57 30.9643C109.822 30.9599 109.105 30.6619 108.576 30.1348C108.047 29.6077 107.747 28.894 107.743 28.1486Z" fill="white"/>
<path d="M117.249 22.6735V6.20757H122.833V22.2001C122.833 24.0443 123.705 25.6086 126.673 25.6086C129.641 25.6086 130.513 24.0443 130.513 22.2001V6.1911H136.096V22.6571C136.096 27.8726 132.046 31.0012 126.673 31.0012C121.3 31.0012 117.249 27.885 117.249 22.6735Z" fill="white"/>
<path d="M137.605 28.1486C137.605 27.5917 137.771 27.0473 138.082 26.5843C138.392 26.1212 138.834 25.7603 139.35 25.5472C139.867 25.3341 140.435 25.2783 140.984 25.387C141.532 25.4956 142.036 25.7638 142.431 26.1576C142.827 26.5514 143.096 27.0531 143.205 27.5993C143.314 28.1454 143.258 28.7116 143.044 29.2261C142.83 29.7406 142.468 30.1803 142.003 30.4897C141.538 30.7991 140.991 30.9643 140.432 30.9643C139.684 30.9599 138.967 30.6619 138.438 30.1348C137.909 29.6077 137.609 28.894 137.605 28.1486Z" fill="white"/>
<path d="M150.1 18.3595C150.1 11.1968 155.44 5.70545 162.805 5.70545C164.888 5.67381 166.945 6.17488 168.779 7.1608C170.613 8.14671 172.162 9.58452 173.278 11.3368L168.463 14.1196C167.38 12.2424 165.285 11.131 162.809 11.131C158.482 11.131 155.688 14.0125 155.688 18.3637C155.688 22.7148 158.482 25.5963 162.809 25.5963C165.289 25.5963 167.418 24.4849 168.463 22.6077L173.278 25.3905C171.183 28.8237 167.277 31.0301 162.817 31.0301C155.44 31.0301 150.1 25.5222 150.1 18.3595Z" fill="white"/>
<path d="M175.895 18.3595C175.898 15.8576 176.646 13.4129 178.044 11.3342C179.442 9.25548 181.427 7.63613 183.748 6.68078C186.07 5.72542 188.624 5.47694 191.087 5.96672C193.551 6.45651 195.813 7.66259 197.588 9.43254C199.364 11.2025 200.572 13.4569 201.062 15.9108C201.551 18.3647 201.299 20.9081 200.338 23.2194C199.376 25.5308 197.748 27.5064 195.66 28.8966C193.571 30.2868 191.116 31.0292 188.604 31.0301C186.93 31.0449 185.269 30.7272 183.72 30.0956C182.17 29.4639 180.763 28.531 179.58 27.3513C178.396 26.1716 177.461 24.7688 176.828 23.2249C176.195 21.681 175.878 20.027 175.895 18.3595ZM195.734 18.3595C195.734 14.0125 192.593 11.1268 188.612 11.1268C184.632 11.1268 181.491 14.0084 181.491 18.3595C181.491 22.7106 184.632 25.5922 188.612 25.5922C192.593 25.5922 195.721 22.7065 195.721 18.3595H195.734Z" fill="white"/>
<path d="M224.348 6.1911V30.5278H220.161L210.737 17.318V30.5278H205.153V6.1911H209.34L218.764 19.4009V6.1911H224.348Z" fill="white"/>
<path d="M227.662 24.9995L232.482 22.2168C233.354 24.2339 234.854 25.5882 237.615 25.5882C240.269 25.5882 240.922 24.5467 240.922 23.6081C240.922 22.1138 239.525 21.5211 235.858 20.5125C232.192 19.504 228.667 17.7668 228.667 13.1029C228.667 8.43888 232.647 5.69318 236.871 5.69318C240.884 5.69318 244.026 7.60734 245.807 11.1846L241.095 13.9303C240.269 12.1931 239.107 11.1146 236.871 11.1146C235.127 11.1146 234.255 11.9832 234.255 12.9588C234.255 14.0702 234.85 14.8359 238.652 15.9844C242.372 17.0959 246.505 18.3843 246.505 23.5299C246.505 28.2227 242.736 31.0055 237.413 31.0055C232.304 31.0302 229.022 28.5808 227.662 24.9995Z" fill="white"/>
<path d="M250.523 22.6735V6.20757H256.107V22.2001C256.107 24.0443 256.979 25.6086 259.946 25.6086C262.914 25.6086 263.786 24.0443 263.786 22.2001V6.1911H269.37V22.6571C269.37 27.8726 265.32 31.0012 259.946 31.0012C254.573 31.0012 250.523 27.885 250.523 22.6735Z" fill="white"/>
<path d="M289.792 25.1764V30.5278H275.479V6.1911H281.063V25.1722L289.792 25.1764Z" fill="white"/>
<path d="M307.598 11.5468H301.315V30.5279H295.731V11.5468H289.449V6.19531H307.602L307.598 11.5468Z" fill="white"/>
<path d="M317.021 6.1911V30.5278H311.437V6.1911H317.021Z" fill="white"/>
<path d="M341.105 6.1911V30.5278H336.918L327.495 17.318V30.5278H321.911V6.1911H326.077L335.501 19.4009V6.1911H341.105Z" fill="white"/>
<path d="M369.475 19.0552C369.475 26.4937 364.276 31.0137 357.431 31.0137C349.752 31.0137 344.238 25.3823 344.238 18.3925C344.229 16.7173 344.554 15.0571 345.196 13.5085C345.837 11.9599 346.782 10.554 347.974 9.37272C349.167 8.19144 350.584 7.25844 352.142 6.62812C353.7 5.99779 355.369 5.68274 357.051 5.70134C361.73 5.70134 365.673 7.99423 367.731 11.2627L362.982 13.9755C361.969 12.3783 359.77 11.1269 357.014 11.1269C352.88 11.1269 349.822 14.1525 349.822 18.4295C349.822 22.5666 352.752 25.5922 357.501 25.5922C360.746 25.5922 362.874 24.1679 363.751 21.838H357.224V16.9682H369.475V19.0552Z" fill="white"/>
<path d="M89.148 60.5289H85.9407L85.0645 62.9576H84.0229L87.3377 54.0825H87.813L91.1526 62.9782H90.049L89.148 60.5289ZM86.2548 59.6274H88.8339L87.8626 56.964L87.5485 55.6385L87.2344 56.9887L86.2548 59.6274Z" fill="white"/>
<path d="M100.299 55.124H96.6331V62.9453H95.5916V54.1978H100.303L100.299 55.124Z" fill="white"/>
<path d="M104.408 54.1978H109.194V55.124H105.449V58.0055H108.88V58.9317H105.449V62.0479H109.256V62.9741H104.408V54.1978Z" fill="white"/>
<path d="M119.667 58.9399H115.447V62.9535H114.406V54.1978H115.447V58.0137H119.667V54.1978H120.709V62.9535H119.667V58.9399Z" fill="white"/>
<path d="M131.79 55.124H129.049V62.9453H128.008V55.124H125.272V54.1978H131.79V55.124Z" fill="white"/>
<path d="M141.37 62.5953C141.089 62.8047 140.762 62.9456 140.416 63.0069C140.007 63.084 139.592 63.1213 139.176 63.1181C138.669 63.1226 138.165 63.0318 137.692 62.8505C137.232 62.6713 136.819 62.3897 136.485 62.0272C136.114 61.6203 135.833 61.1408 135.658 60.6194C135.444 59.9631 135.342 59.2757 135.357 58.5858C135.339 57.8769 135.453 57.1709 135.691 56.5029C135.883 55.9801 136.183 55.5033 136.572 55.1032C136.922 54.751 137.345 54.4798 137.812 54.3088C138.253 54.1438 138.721 54.0587 139.192 54.0577C139.607 54.0513 140.022 54.0788 140.432 54.14C140.715 54.1827 140.992 54.2559 141.259 54.3582L141.007 55.2844C140.463 55.0574 139.876 54.9547 139.287 54.9839C138.94 54.9851 138.595 55.0493 138.271 55.1732C137.927 55.3044 137.62 55.5145 137.374 55.7866C137.088 56.1094 136.872 56.4879 136.741 56.898C136.569 57.4437 136.488 58.0139 136.502 58.5858C136.492 59.1201 136.569 59.6524 136.729 60.1624C136.858 60.5758 137.069 60.9593 137.349 61.2903C137.603 61.5833 137.921 61.8143 138.279 61.9655C138.647 62.1185 139.042 62.1955 139.44 62.1919C139.773 62.1976 140.105 62.1602 140.428 62.0807C140.678 62.0186 140.917 61.9216 141.139 61.7925L141.37 62.5953Z" fill="white"/>
<path d="M151.509 55.124H148.765V62.9453H147.723V55.124H144.987V54.1978H151.505L151.509 55.124Z" fill="white"/>
<path d="M161.367 56.2025C161.366 56.4189 161.332 56.634 161.267 56.8406C161.2 57.057 161.098 57.2613 160.966 57.4457C160.825 57.6398 160.65 57.8072 160.449 57.9397C160.223 58.0891 159.973 58.1991 159.709 58.2649V58.3143C159.958 58.3556 160.201 58.4275 160.433 58.5283C160.659 58.6263 160.865 58.766 161.04 58.94C161.217 59.1249 161.357 59.3414 161.453 59.578C161.568 59.8603 161.623 60.1629 161.615 60.4672C161.625 60.8747 161.528 61.2778 161.334 61.6363C161.154 61.9642 160.901 62.2461 160.594 62.4596C160.274 62.675 159.919 62.8325 159.544 62.9247C159.149 63.0241 158.744 63.0739 158.337 63.0729H157.858C157.665 63.0729 157.464 63.0729 157.254 63.0729C157.045 63.0729 156.835 63.0564 156.626 63.0235C156.439 63.0064 156.254 62.9748 156.072 62.9288V54.276C156.381 54.2266 156.74 54.1854 157.151 54.1525C157.561 54.1196 158.009 54.1031 158.494 54.1031C158.829 54.1039 159.164 54.1315 159.494 54.1854C159.818 54.2346 160.13 54.3405 160.416 54.4983C160.694 54.6532 160.93 54.8737 161.102 55.1405C161.292 55.4614 161.384 55.8304 161.367 56.2025ZM157.763 58.0549H158.279C158.48 58.0549 158.648 58.0426 158.783 58.0179C158.979 57.954 159.169 57.8727 159.35 57.775C159.52 57.6829 159.679 57.5695 159.821 57.4375C159.958 57.3101 160.068 57.1578 160.147 56.9888C160.228 56.8145 160.269 56.6248 160.267 56.433C160.277 56.1954 160.222 55.9596 160.11 55.7497C160.007 55.5816 159.866 55.4405 159.697 55.338C159.511 55.2264 159.307 55.1484 159.093 55.1075C158.866 55.0612 158.635 55.0378 158.403 55.0375C158.128 55.0375 157.874 55.0375 157.643 55.0375C157.468 55.0442 157.294 55.0635 157.122 55.0952V58.0714L157.763 58.0549ZM158.453 62.1714C158.715 62.1718 158.976 62.1399 159.23 62.0767C159.469 62.0194 159.694 61.9174 159.895 61.7762C160.084 61.6433 160.241 61.4704 160.354 61.2699C160.471 61.0511 160.53 60.8057 160.523 60.5577C160.537 60.2691 160.465 59.9829 160.317 59.7344C160.181 59.5278 159.995 59.3591 159.775 59.2446C159.541 59.1236 159.288 59.0429 159.027 59.0058C158.754 58.9648 158.477 58.9442 158.201 58.9441H157.109V62.085C157.192 62.1051 157.277 62.1175 157.362 62.122L157.713 62.1467H158.101L158.453 62.1714Z" fill="white"/>
<path d="M166.306 58.5777C166.306 57.1177 166.616 55.9981 167.236 55.2187C167.553 54.8289 167.958 54.5196 168.419 54.3164C168.88 54.1131 169.382 54.0217 169.885 54.0496C170.439 54.0359 170.988 54.1471 171.493 54.3748C171.937 54.585 172.323 54.9001 172.617 55.2928C172.929 55.7197 173.154 56.2037 173.278 56.7171C173.427 57.3246 173.499 57.9483 173.493 58.5736C173.493 60.0336 173.182 61.1533 172.559 61.9327C172.238 62.3233 171.829 62.6329 171.365 62.836C170.901 63.0392 170.395 63.1302 169.889 63.1017C169.342 63.115 168.799 63.0038 168.302 62.7765C167.861 62.5651 167.478 62.2501 167.186 61.8586C166.874 61.4318 166.649 60.9478 166.525 60.4343C166.374 59.8269 166.301 59.2032 166.306 58.5777ZM167.409 58.5777C167.407 59.0399 167.456 59.5009 167.554 59.9526C167.639 60.3559 167.789 60.7426 168 61.097C168.192 61.4162 168.457 61.6857 168.773 61.8833C169.109 62.0835 169.494 62.1848 169.885 62.1755C170.24 62.1895 170.593 62.1165 170.913 61.9629C171.233 61.8093 171.51 61.5798 171.72 61.2946C172.164 60.7073 172.386 59.8003 172.386 58.5736C172.387 58.1128 172.339 57.6532 172.241 57.2028C172.158 56.7958 172.005 56.406 171.79 56.0502C171.596 55.7305 171.33 55.46 171.013 55.2598C170.674 55.0573 170.284 54.9559 169.889 54.9676C169.537 54.9541 169.187 55.0275 168.871 55.1812C168.554 55.3349 168.281 55.5641 168.075 55.8485C167.631 56.4413 167.409 57.351 167.409 58.5777Z" fill="white"/>
<path d="M184.781 58.5777C184.781 57.1177 185.091 55.9981 185.711 55.2187C186.028 54.8289 186.434 54.5196 186.894 54.3164C187.355 54.1131 187.857 54.0217 188.36 54.0496C188.914 54.0359 189.464 54.1471 189.968 54.3748C190.412 54.5848 190.798 54.9 191.092 55.2928C191.405 55.7196 191.629 56.2036 191.754 56.7171C191.903 57.3246 191.975 57.9482 191.968 58.5736C191.968 60.0336 191.657 61.1533 191.034 61.9327C190.713 62.3233 190.304 62.6329 189.84 62.836C189.376 63.0392 188.87 63.1302 188.364 63.1017C187.817 63.115 187.275 63.0038 186.777 62.7765C186.336 62.5651 185.953 62.2501 185.661 61.8586C185.349 61.4318 185.124 60.9478 185 60.4343C184.849 59.8269 184.776 59.2032 184.781 58.5777ZM185.884 58.5777C185.882 59.0399 185.931 59.5009 186.029 59.9526C186.114 60.3559 186.265 60.7426 186.475 61.097C186.667 61.4162 186.932 61.6857 187.248 61.8833C187.584 62.0835 187.969 62.1848 188.36 62.1755C188.715 62.1895 189.068 62.1165 189.388 61.9629C189.708 61.8093 189.985 61.5798 190.195 61.2946C190.639 60.7073 190.861 59.8003 190.861 58.5736C190.862 58.1128 190.814 57.6532 190.716 57.2028C190.633 56.7959 190.481 56.4061 190.266 56.0502C190.071 55.7305 189.805 55.46 189.489 55.2598C189.15 55.0573 188.759 54.9559 188.364 54.9676C188.012 54.9541 187.663 55.0275 187.346 55.1812C187.03 55.3349 186.756 55.5641 186.55 55.8485C186.109 56.4413 185.887 57.351 185.884 58.5777Z" fill="white"/>
<path d="M204.211 64.5713H203.496L203.306 62.9576H197.003V54.1978H198.044V62.0191H202V54.1978H203.041V62.0191H204.211V64.5713Z" fill="white"/>
<path d="M208.898 54.1978H213.684V55.124H209.935V58.0055H213.366V58.9317H209.935V62.0479H213.742V62.9741H208.894L208.898 54.1978Z" fill="white"/>
<path d="M224.158 58.9399H219.938V62.9535H218.896V54.1978H219.938V58.0137H224.158V54.1978H225.199V62.9535H224.158V58.9399Z" fill="white"/>
<path d="M232.254 58.9029H231.663V62.9576H230.601V54.1978H231.643V58.2772L232.209 58.1043L235.16 54.2018H236.388L233.449 57.9684L232.92 58.3801L233.56 58.8823L236.776 62.9618H235.458L232.254 58.9029Z" fill="white"/>
<path d="M246.906 57.0258L246.981 56.0255H246.931L246.39 57.0505L242.145 62.9535H241.529V54.1978H242.587V60.2037L242.5 61.1917H242.55L243.104 60.1667L247.349 54.1978H247.96V62.9535H246.919L246.906 57.0258Z" fill="white"/>
<path d="M370 45.446H82.7457V45.8577H370V45.446Z" fill="white"/>
</g>
<defs>
<clipPath id="clip0">
<rect width="370" height="67" fill="white"/>
</clipPath>
</defs>
</svg>
