<svg width="53" height="53" viewBox="0 0 53 53" fill="none" xmlns="http://www.w3.org/2000/svg">
<path d="M26.5 0C11.8879 0 0 11.8879 0 26.5C0 41.1121 11.8879 53 26.5 53C41.1121 53 53 41.1121 53 26.5C53 11.8879 41.1121 0 26.5 0ZM26.5 51.2333C12.8622 51.2333 1.76667 40.1378 1.76667 26.5C1.76667 12.8622 12.8622 1.76667 26.5 1.76667C40.1378 1.76667 51.2333 12.8622 51.2333 26.5C51.2333 40.1378 40.1378 51.2333 26.5 51.2333Z" fill="white"/>
<path d="M27.3833 22.9852V14.0265C27.3833 13.538 26.9876 13.1431 26.5 13.1431C26.0124 13.1431 25.6167 13.538 25.6167 14.0265V22.9852C24.3809 23.3068 23.4136 24.274 23.0921 25.5098H16.7833C16.2957 25.5098 15.9 25.9046 15.9 26.3931C15.9 26.8816 16.2957 27.2765 16.7833 27.2765H23.0921C23.4869 28.7958 24.8588 29.9265 26.5 29.9265C28.4486 29.9265 30.0333 28.3418 30.0333 26.3931C30.0333 24.751 28.9027 23.3801 27.3833 22.9852ZM26.5 28.1598C25.5257 28.1598 24.7333 27.3674 24.7333 26.3931C24.7333 25.4188 25.5257 24.6265 26.5 24.6265C27.4743 24.6265 28.2667 25.4188 28.2667 26.3931C28.2667 27.3674 27.4743 28.1598 26.5 28.1598Z" fill="white"/>
<path d="M26.5 8.72648C26.9876 8.72648 27.3833 8.33163 27.3833 7.84314V6.95981C27.3833 6.47133 26.9876 6.07648 26.5 6.07648C26.0124 6.07648 25.6167 6.47133 25.6167 6.95981V7.84314C25.6167 8.33163 26.0124 8.72648 26.5 8.72648Z" fill="white"/>
<path d="M26.5 44.0598C26.0124 44.0598 25.6167 44.4546 25.6167 44.9431V45.8264C25.6167 46.3149 26.0124 46.7098 26.5 46.7098C26.9876 46.7098 27.3833 46.3149 27.3833 45.8264V44.9431C27.3833 44.4546 26.9876 44.0598 26.5 44.0598Z" fill="white"/>
<path d="M45.9333 25.5098H45.05C44.5624 25.5098 44.1667 25.9046 44.1667 26.3931C44.1667 26.8816 44.5624 27.2764 45.05 27.2764H45.9333C46.4209 27.2764 46.8167 26.8816 46.8167 26.3931C46.8167 25.9046 46.4209 25.5098 45.9333 25.5098Z" fill="white"/>
<path d="M7.94999 25.5098H7.06665C6.57905 25.5098 6.18332 25.9046 6.18332 26.3931C6.18332 26.8816 6.57905 27.2764 7.06665 27.2764H7.94999C8.43758 27.2764 8.83332 26.8816 8.83332 26.3931C8.83332 25.9046 8.43758 25.5098 7.94999 25.5098Z" fill="white"/>
<path d="M39.6166 12.0266L38.9921 12.6511C38.6467 12.9965 38.6467 13.5548 38.9921 13.9001C39.1643 14.0724 39.3905 14.159 39.6166 14.159C39.8427 14.159 40.0689 14.0724 40.2411 13.9001L40.8657 13.2756C41.211 12.9302 41.211 12.372 40.8657 12.0266C40.5203 11.6812 39.962 11.6821 39.6166 12.0266Z" fill="white"/>
<path d="M12.7589 38.8852L12.1343 39.5097C11.789 39.8551 11.789 40.4134 12.1343 40.7588C12.3066 40.931 12.5327 41.0176 12.7589 41.0176C12.985 41.0176 13.2111 40.931 13.3834 40.7588L14.0079 40.1343C14.3533 39.7889 14.3533 39.2306 14.0079 38.8852C13.6625 38.5398 13.1034 38.5407 12.7589 38.8852Z" fill="white"/>
<path d="M40.2411 38.8852C39.8958 38.5398 39.3375 38.5398 38.9921 38.8852C38.6467 39.2306 38.6467 39.7888 38.9921 40.1342L39.6166 40.7587C39.7889 40.931 40.015 41.0176 40.2411 41.0176C40.4673 41.0176 40.6934 40.931 40.8657 40.7587C41.211 40.4134 41.211 39.8551 40.8657 39.5097L40.2411 38.8852Z" fill="white"/>
<path d="M13.3834 12.0266C13.038 11.6812 12.4797 11.6812 12.1343 12.0266C11.789 12.3719 11.789 12.9302 12.1343 13.2756L12.7589 13.9001C12.9311 14.0724 13.1572 14.1589 13.3834 14.1589C13.6095 14.1589 13.8356 14.0724 14.0079 13.9001C14.3533 13.5547 14.3533 12.9965 14.0079 12.6511L13.3834 12.0266Z" fill="white"/>
</svg>
