<svg width="40" height="52" viewBox="0 0 40 52" fill="none" xmlns="http://www.w3.org/2000/svg">
<g clip-path="url(#clip0)">
<path fill-rule="evenodd" clip-rule="evenodd" d="M14.8631 17.3127L37.6538 0.348999C38.1574 -0.0273849 38.7929 -0.117919 39.313 0.168946C39.8331 0.455812 40.0638 1.05904 39.9845 1.67855L36.5054 29.653C36.3787 32.2694 34.5876 32.1962 33.8399 31.1789C32.7275 28.5859 30.3545 25.8994 27.104 23.7865C27.5921 23.8141 28.0793 23.7203 28.5212 23.5139C33.226 20.9637 31.3165 17.0594 31.9973 12.6201C28.4461 15.4227 24.0667 15.7411 24.1831 21.041C24.221 21.5095 24.3753 21.9616 24.6322 22.3573L24.6548 22.3939C21.1932 20.687 17.6697 20.0085 14.8528 20.3523C13.5891 20.2261 12.6323 18.7288 14.8631 17.3127Z" fill="white"/>
<path fill-rule="evenodd" clip-rule="evenodd" d="M9.48271 24.7489C3.27729 29.0264 -1.07423 35.4301 0.232771 36.9478C1.82198 38.7951 2.52646 36.253 4.69553 38.7117C6.86459 41.1704 4.46894 47.6463 9.63927 50.9279C15.1031 53.7122 19.5844 48.4245 22.8226 49.0511C26.0607 49.6777 24.1903 51.5505 26.6045 51.9818C28.5913 52.3399 32.0282 45.4164 32.6812 37.9712C33.1612 32.4505 30.438 28.5463 25.9866 25.6756C26.4078 26.6603 26.172 28.6531 23.2284 33.1585C19.1189 39.4482 15.9024 41.9303 15.1557 41.5C14.4089 41.0697 14.9775 37.0811 18.4371 30.4221C20.9161 25.6512 22.5445 24.4539 23.6187 24.3186C18.8676 21.9555 14.0835 21.5781 9.48271 24.7489Z" fill="white"/>
</g>
<defs>
<clipPath id="clip0">
<rect width="40" height="52" fill="white"/>
</clipPath>
</defs>
</svg>
