<svg width="52" height="52" viewBox="0 0 52 52" fill="none" xmlns="http://www.w3.org/2000/svg">
<path d="M13.8034 46.9266C13.4514 44.889 11.6704 43.3334 9.53327 43.3334C7.82681 43.3334 6.34827 44.3248 5.6419 45.7617C5.50235 45.6621 5.35326 45.5736 5.1999 45.4939V31.2C5.1999 30.7216 4.81163 30.3334 4.33327 30.3334C3.85491 30.3334 3.46663 30.7216 3.46663 31.2V45.0666C1.55482 45.0666 0 46.6215 0 48.5334C0 50.4453 1.55482 52 3.46663 52H13C14.4335 52 15.6 50.8335 15.6 49.4C15.6 48.2465 14.8451 47.2663 13.8034 46.9266ZM13 50.2666H3.46663C2.51073 50.2666 1.73327 49.4893 1.73327 48.5333C1.73327 47.5773 2.51073 46.8 3.46663 46.8C4.27527 46.8 4.99373 47.2697 5.25454 47.97C5.40099 48.3627 5.80663 48.594 6.22091 48.5195C6.63345 48.4449 6.93327 48.0861 6.93327 47.6666C6.93327 46.2332 8.09981 45.0666 9.53327 45.0666C10.9667 45.0666 12.1333 46.2332 12.1333 47.6666C12.1333 48.145 12.5215 48.5333 12.9999 48.5333C13.4774 48.5333 13.8665 48.9224 13.8665 49.3999C13.8665 49.8775 13.4775 50.2666 13 50.2666Z" fill="white"/>
<path d="M51.1334 6.93337H34.6666C34.1883 6.93337 33.8 7.32164 33.8 7.8C33.8 8.27836 34.1883 8.66663 34.6666 8.66663H50.2666V27.3745L26.6127 3.72064C26.4428 3.55073 26.2201 3.46673 25.9974 3.46673C25.7746 3.46673 25.5519 3.55083 25.382 3.72064L1.73337 27.3736V8.66663H11.2667C11.7451 8.66663 12.1334 8.27836 12.1334 7.8V4.33337C12.1334 3.85501 11.7451 3.46673 11.2667 3.46673H10.4V1.73337H15.6V3.46673H14.7334C14.255 3.46673 13.8667 3.85501 13.8667 4.33337V7.8C13.8667 8.27836 14.255 8.66663 14.7334 8.66663H17.3334C17.8117 8.66663 18.2 8.27836 18.2 7.8C18.2 7.32164 17.8117 6.93337 17.3334 6.93337H15.6V5.2H16.4666C16.945 5.2 17.3333 4.81173 17.3333 4.33337V0.866633C17.3333 0.388273 16.945 0 16.4666 0H9.53337C9.05501 0 8.66673 0.388273 8.66673 0.866633V4.33327C8.66673 4.81163 9.05501 5.1999 9.53337 5.1999H10.4V6.93327H0.866633C0.637 6.93327 0.416 7.02427 0.253906 7.18717C0.091 7.34937 0 7.57037 0 7.8L0.00345313 29.4666C0.00345313 29.8176 0.214906 30.1331 0.539094 30.2675C0.646547 30.3116 0.758367 30.3334 0.870187 30.3334C1.09637 30.3334 1.31828 30.245 1.48291 30.0795L25.9974 5.55618L50.5205 30.0794C50.6861 30.2449 50.9079 30.3333 51.1333 30.3333C51.2451 30.3333 51.3577 30.3116 51.4652 30.2674C51.7884 30.133 51.9999 29.8167 51.9999 29.4665V7.8C52 7.32164 51.6117 6.93337 51.1334 6.93337Z" fill="white"/>
<path d="M48.5334 45.0666V31.2C48.5334 30.7216 48.1451 30.3334 47.6668 30.3334C47.1884 30.3334 46.8001 30.7216 46.8001 31.2V45.4939C46.6468 45.5736 46.4977 45.662 46.3581 45.7617C45.6518 44.3248 44.1732 43.3334 42.4668 43.3334C40.3296 43.3334 38.5486 44.889 38.1967 46.9266C37.1549 47.2663 36.4 48.2465 36.4 49.4C36.4 49.7059 36.4624 49.9946 36.5604 50.2666H21.6667C21.1883 50.2666 20.8 50.6549 20.8 51.1333C20.8 51.6116 21.1883 51.9999 21.6667 51.9999H39H42.4667H48.5333C50.4452 52 52 50.4452 52 48.5334C52 46.6216 50.4452 45.0666 48.5334 45.0666ZM48.5334 50.2666H42.4668H39C38.5225 50.2666 38.1334 49.8776 38.1334 49.4C38.1334 48.9225 38.5225 48.5334 39 48.5334C39.4784 48.5334 39.8667 48.1451 39.8667 47.6667C39.8667 46.2333 41.0332 45.0667 42.4667 45.0667C43.9001 45.0667 45.0667 46.2333 45.0667 47.6667C45.0667 48.0862 45.3666 48.445 45.779 48.5196C46.1906 48.5949 46.5989 48.3627 46.7454 47.9701C47.0062 47.2698 47.7247 46.8001 48.5333 46.8001C49.4892 46.8001 50.2667 47.5775 50.2667 48.5335C50.2667 49.4895 49.4893 50.2666 48.5334 50.2666Z" fill="white"/>
<path d="M29.4666 17.3335C29.4666 15.4215 27.9118 13.8668 26 13.8668C24.0881 13.8668 22.5334 15.4216 22.5334 17.3335C22.5334 19.2453 24.0881 20.8001 26 20.8001C27.9119 20.8001 29.4666 19.2453 29.4666 17.3335ZM24.2666 17.3335C24.2666 16.3775 25.044 15.6001 26 15.6001C26.9559 15.6001 27.7334 16.3774 27.7334 17.3335C27.7334 18.2894 26.956 19.0668 26 19.0668C25.0441 19.0667 24.2666 18.2894 24.2666 17.3335Z" fill="white"/>
<path d="M42.4666 29.4666H35.5333C35.0549 29.4666 34.6666 29.8548 34.6666 30.3332V39.8666H33.8C33.3217 39.8666 32.9334 40.2548 32.9334 40.7332C32.9334 41.2115 33.3217 41.5998 33.8 41.5998H44.2C44.6784 41.5998 45.0666 41.2115 45.0666 40.7332C45.0666 40.2548 44.6784 39.8666 44.2 39.8666H43.3334V30.3332C43.3334 29.8548 42.9451 29.4666 42.4666 29.4666ZM41.6 39.8666H36.4V36.3999H41.6V39.8666ZM41.6 34.6666H36.4V31.1999H41.6V34.6666Z" fill="white"/>
<path d="M34.6666 47.6666C34.6666 47.1882 34.2784 46.7999 33.8 46.7999H31.2V30.3333C31.2 29.8549 30.8117 29.4667 30.3334 29.4667H21.6667C21.1884 29.4667 20.8001 29.8549 20.8001 30.3333V46.7999H18.2001C17.7217 46.7999 17.3335 47.1882 17.3335 47.6666V51.1332C17.3335 51.6116 17.7217 51.9998 18.2001 51.9998C18.6785 51.9998 19.0667 51.6116 19.0667 51.1332V48.5332H33.8C34.2784 48.5333 34.6666 48.145 34.6666 47.6666ZM29.4666 38.1333H28.6C28.1216 38.1333 27.7334 38.5216 27.7334 38.9999C27.7334 39.4783 28.1216 39.8666 28.6 39.8666H29.4666V46.7999H22.5333V31.1999H29.4666V38.1333Z" fill="white"/>
<path d="M16.4666 29.4666H9.53338C9.05502 29.4666 8.66675 29.8548 8.66675 30.3332V39.8666H7.80001C7.32165 39.8666 6.93338 40.2548 6.93338 40.7332C6.93338 41.2115 7.32165 41.5999 7.80001 41.5999H18.2C18.6784 41.5999 19.0666 41.2116 19.0666 40.7333C19.0666 40.2549 18.6784 39.8667 18.2 39.8667H17.3334V30.3333C17.3334 29.8548 16.9451 29.4666 16.4666 29.4666ZM15.6 39.8666H10.4V36.3999H15.6V39.8666ZM15.6 34.6666H10.4V31.1999H15.6V34.6666Z" fill="white"/>
</svg>
