<svg width="52" height="56" viewBox="0 0 52 56" fill="none" xmlns="http://www.w3.org/2000/svg">
<path d="M51.5828 54.4133L46.4199 48.8942C48.0643 47.0754 49.0628 44.66 49.0628 42C49.0628 39.7893 48.373 37.7478 47.1961 36.077V4.6667C47.1961 3.08 45.9828 1.8667 44.3961 1.8667H32.2628C32.2628 0.84 31.4228 0 30.3961 0H17.3294C16.3027 0 15.4627 0.84 15.4627 1.8667H3.32939C1.74269 1.8667 0.529388 3.08 0.529388 4.6667V53.2C0.529388 54.7867 1.74269 56 3.32939 56H42.5294C43.0894 56 43.4627 55.6267 43.4627 55.0667V51.1565C44.0287 50.869 44.5637 50.5303 45.0624 50.1469L50.276 55.7201C50.4627 55.9068 50.6493 56.0001 50.9293 56.0001C51.116 56.0001 51.396 55.9068 51.5826 55.7201C51.9561 55.3467 51.9561 54.7867 51.5828 54.4133ZM38.7962 50.4C38.7962 50.4 38.7961 50.4 38.7962 50.4C34.1294 50.4 30.3961 46.6667 30.3961 42C30.3961 38.3608 32.6666 35.2896 35.8795 34.1134C35.8921 34.1091 35.9042 34.1041 35.9168 34.0998C35.932 34.0944 35.9477 34.0898 35.963 34.0843C36.5646 33.8845 37.2002 33.7508 37.8627 33.6932C37.974 33.6561 38.1001 33.6341 38.2293 33.6207C38.4168 33.6084 38.6053 33.5999 38.7961 33.5999C38.9348 33.5999 39.0726 33.6037 39.2095 33.6102C39.2204 33.6107 39.2312 33.611 39.2419 33.6115C41.2268 33.7134 43.0208 34.4935 44.401 35.7257C44.8067 36.0936 45.1803 36.5057 45.5161 36.9598C45.5415 36.9978 45.5723 37.0321 45.6071 37.0633C46.6071 38.4461 47.1961 40.1489 47.1961 42C47.1961 46.6666 43.4628 50.4 38.7962 50.4ZM17.3294 9.3333H30.3961C31.4228 9.3333 32.2628 8.4933 32.2628 7.46659H41.5961V32.1066C41.5261 32.0904 41.4558 32.0747 41.3851 32.0592C41.2852 32.0335 41.1848 32.0095 41.0839 31.9867C41.0442 31.9779 41.0044 31.9693 40.9646 31.9609C40.845 31.9354 40.7248 31.9115 40.6036 31.8902C40.5894 31.8877 40.5752 31.8857 40.561 31.8832C40.431 31.8609 40.3002 31.8411 40.1686 31.8237C40.1589 31.8224 40.1493 31.821 40.1395 31.8197C40.0047 31.8023 39.8687 31.7879 39.7322 31.7756C39.7127 31.7739 39.6932 31.7721 39.6736 31.7705C39.5405 31.7593 39.4067 31.7506 39.2722 31.7445C39.2522 31.7436 39.2321 31.743 39.2119 31.7422C39.0739 31.7367 38.9354 31.7332 38.796 31.7332C37.7772 31.7332 36.7946 31.8803 35.8674 32.1534C31.6375 33.3149 28.6265 37.1019 28.5343 41.6905C28.5333 41.7251 28.5326 41.7598 28.5319 41.7946C28.5315 41.832 28.5293 41.869 28.5293 41.9066V42C28.5293 42.1034 28.5312 42.2062 28.5342 42.3087C28.5346 42.323 28.5353 42.3373 28.5358 42.3516C28.6469 45.6882 30.3298 48.6087 32.873 50.4H6.12939V7.4667H15.4627C15.4628 8.4933 16.3028 9.3333 17.3294 9.3333ZM44.3961 3.7333C44.9561 3.7333 45.3294 4.10659 45.3294 4.66659V34.0646C45.25 33.9993 45.1693 33.9355 45.0879 33.8726C44.5839 33.4757 44.0394 33.1289 43.4628 32.8373V7.4667C43.4628 6.44 42.6228 5.6 41.5961 5.6H32.2628V3.7333H44.3961ZM17.3294 1.8667H30.3961V2.8V6.5333V7.46659H17.3294V6.5333V2.8V1.8667ZM41.5961 54.1333H3.32939C2.76939 54.1333 2.39609 53.76 2.39609 53.2V4.6667C2.39609 4.1067 2.76939 3.73341 3.32939 3.73341H15.4627V5.6H6.12939C5.10268 5.6 4.26269 6.44 4.26269 7.4667V50.4C4.26269 51.4267 5.10268 52.2667 6.12939 52.2667H38.7961H41.5961V54.1333Z" fill="white"/>
<path d="M12.1869 18.8105C10.9253 18.8105 10 19.821 10 21V24.2842C10 25.5473 10.9253 26.4737 12.1869 26.4737H13.4717C13.8476 27.9223 15.1686 29 16.729 29C18.2892 29 19.6103 27.9223 19.9863 26.4737H26.9296C27.3056 27.9223 28.6266 29 30.1869 29C31.7472 29 33.0683 27.9223 33.4442 26.4737H34.729C35.9907 26.4737 36.9159 25.5473 37 24.2842V21C37 19.7368 35.9907 18.8105 34.8131 18.8105H33.0215L29.7663 14.2632C29.2617 13.5053 28.4206 13.0842 27.4953 13.0842H23.8557C23.7405 13.0299 23.6068 13 23.458 13C23.3091 13 23.1756 13.03 23.0602 13.0842H19.4206C18.4953 13.0842 17.6542 13.5053 17.1496 14.2632L13.8944 18.8105H12.1869ZM16.729 27.3157C15.8037 27.3157 15.0467 26.5578 15.0467 25.6314C15.0467 24.7051 15.8037 23.9472 16.729 23.9472C17.6542 23.9472 18.4112 24.7051 18.4112 25.6314C18.4112 26.5578 17.6542 27.3157 16.729 27.3157ZM30.1868 27.3157C29.2616 27.3157 28.5046 26.5578 28.5046 25.6314C28.5046 24.7051 29.2616 23.9472 30.1868 23.9472C31.1121 23.9472 31.8691 24.7052 31.8691 25.6315C31.8691 26.5579 31.1121 27.3157 30.1868 27.3157ZM35.3177 20.9999V24.2841C35.3177 24.5367 35.0654 24.7894 34.8131 24.7894H33.4673C33.0467 23.3578 31.9533 22.2631 30.3552 22.2631C30.3245 22.2631 30.2941 22.2642 30.2636 22.265C30.2381 22.2644 30.2127 22.2631 30.1869 22.2631C28.6266 22.2631 27.3056 23.3408 26.9296 24.7894H20.0935C19.6729 23.3578 18.4112 22.2631 16.8132 22.2631C16.7978 22.2631 16.7827 22.2638 16.7674 22.264C16.7546 22.2639 16.742 22.2631 16.7291 22.2631C15.1687 22.2631 13.8477 23.3408 13.4718 24.7894H12.1869C11.9346 24.7894 11.6823 24.5367 11.6823 24.2841V20.9999C11.6823 20.7473 11.9346 20.4946 12.1869 20.4946H13.8273C13.9389 20.5477 14.0644 20.5788 14.2056 20.5788H32.7102C32.8514 20.5788 32.9769 20.5477 33.0885 20.4946H34.813C35.0654 20.4946 35.3177 20.7473 35.3177 20.9999ZM28.3364 15.1052L30.9682 18.8105H24.299V14.6842H27.4112C27.8317 14.6841 28.1682 14.8526 28.3364 15.1052ZM18.4112 15.1052C18.6636 14.8526 19 14.6841 19.3365 14.6841H22.6169V18.8104H15.8618L18.4112 15.1052Z" fill="white"/>
<path d="M23.6667 35.4667H9.66673C9.10673 35.4667 8.73343 35.84 8.73343 36.4C8.73343 36.96 9.10673 37.3333 9.66673 37.3333H23.6667C24.2267 37.3333 24.6 36.96 24.6 36.4C24.6 35.84 24.2267 35.4667 23.6667 35.4667Z" fill="white"/>
<path d="M23.6667 40.1333H9.66673C9.10673 40.1333 8.73343 40.5066 8.73343 41.0666C8.73343 41.6266 9.10673 41.9999 9.66673 41.9999H23.6667C24.2267 41.9999 24.6 41.6266 24.6 41.0666C24.6 40.5066 24.2267 40.1333 23.6667 40.1333Z" fill="white"/>
<path d="M23.6667 44.7999H9.66673C9.10673 44.7999 8.73343 45.1732 8.73343 45.7332C8.73343 46.2932 9.10673 46.6665 9.66673 46.6665H23.6667C24.2267 46.6665 24.6 46.2932 24.6 45.7332C24.6 45.1732 24.2267 44.7999 23.6667 44.7999Z" fill="white"/>
</svg>
