<svg width="23" height="23" viewBox="0 0 23 23" fill="none" xmlns="http://www.w3.org/2000/svg">
<path d="M3.36914 23H10.8711V14.8242H8.17578V12.1289H10.8711V8.75977C10.8711 6.902 12.3825 5.39062 14.2402 5.39062H17.6094V8.08594H14.9141C14.1709 8.08594 13.5664 8.69045 13.5664 9.43359V12.1289H17.4878L17.0386 14.8242H13.5664V23H19.6309C21.4886 23 23 21.4886 23 19.6309V3.36914C23 1.51138 21.4886 0 19.6309 0H3.36914C1.51138 0 0 1.51138 0 3.36914V19.6309C0 21.4886 1.51138 23 3.36914 23ZM1.34766 3.36914C1.34766 2.25452 2.25452 1.34766 3.36914 1.34766H19.6309C20.7455 1.34766 21.6523 2.25452 21.6523 3.36914V19.6309C21.6523 20.7455 20.7455 21.6523 19.6309 21.6523H14.9141V16.1719H18.1802L19.0786 10.7812H14.9141V9.43359H18.957V4.04297H14.2402C11.6393 4.04297 9.52344 6.15886 9.52344 8.75977V10.7812H6.82812V16.1719H9.52344V21.6523H3.36914C2.25452 21.6523 1.34766 20.7455 1.34766 19.6309V3.36914Z" fill="white"/>
</svg>
