<svg width="56" height="54" viewBox="0 0 56 54" fill="none" xmlns="http://www.w3.org/2000/svg">
<path d="M51.688 22.013H40.789C40.236 22.013 39.789 22.46 39.789 23.013C39.789 23.566 40.236 24.013 40.789 24.013H49.891L52.79 51.013H2.268L5.671 24.013H14.789C15.342 24.013 15.789 23.566 15.789 23.013C15.789 22.46 15.342 22.013 14.789 22.013H3.907L0 53.013H55.017L51.688 22.013Z" fill="white"/>
<path d="M26.654 37.968C26.507 38.055 26.35 38.132 26.209 38.223C25.989 38.365 25.774 38.514 25.563 38.668C25.118 38.995 25.022 39.621 25.348 40.066C25.544 40.333 25.848 40.474 26.156 40.474C26.361 40.474 26.568 40.411 26.747 40.281C26.925 40.15 27.106 40.024 27.295 39.902C27.616 39.694 27.957 39.499 28.309 39.321C28.777 39.084 28.967 38.53 28.771 38.052C28.779 38.044 28.789 38.038 28.796 38.03C30.605 36.114 36.701 28.934 39.225 16.972C39.737 14.546 39.852 12.218 39.567 10.053C38.707 3.47801 34.622 0.00201416 27.754 0.00201416C20.888 0.00201416 16.803 3.47801 15.941 10.053C15.657 12.219 15.772 14.547 16.284 16.972C18.783 28.818 24.783 35.97 26.654 37.968ZM17.924 10.314C18.657 4.72201 21.873 2.00301 27.755 2.00301C33.638 2.00301 36.853 4.72201 37.585 10.314C37.84 12.254 37.733 14.357 37.269 16.561C35 27.314 29.59 34.137 27.755 36.207C25.918 34.135 20.509 27.309 18.241 16.561C17.776 14.357 17.67 12.255 17.924 10.314Z" fill="white"/>
<path d="M27.755 18.925C31.806 18.925 35.101 15.63 35.101 11.579C35.101 7.52803 31.806 4.23303 27.755 4.23303C23.704 4.23303 20.409 7.52803 20.409 11.579C20.409 15.63 23.704 18.925 27.755 18.925ZM27.755 6.23403C30.702 6.23403 33.101 8.63203 33.101 11.58C33.101 14.528 30.703 16.926 27.755 16.926C24.807 16.926 22.409 14.528 22.409 11.58C22.409 8.63203 24.808 6.23403 27.755 6.23403Z" fill="white"/>
<path d="M31.428 36.17C30.888 36.284 30.544 36.816 30.659 37.357C30.759 37.827 31.174 38.148 31.636 38.148C31.705 38.148 31.776 38.141 31.846 38.126C32.432 38.002 33.067 37.897 33.732 37.813C34.28 37.746 34.67 37.246 34.601 36.698C34.533 36.149 34.038 35.753 33.486 35.829C32.763 35.918 32.07 36.033 31.428 36.17Z" fill="white"/>
<path d="M36.599 36.576C36.621 37.113 37.065 37.533 37.597 37.533C37.612 37.533 37.626 37.533 37.641 37.532L39.642 37.449C40.193 37.424 40.621 36.956 40.595 36.405C40.57 35.852 40.056 35.421 39.551 35.451L37.555 35.534C37.003 35.557 36.575 36.023 36.599 36.576Z" fill="white"/>
<path d="M22.433 41.177C21.919 41.565 21.388 41.938 20.853 42.284C20.39 42.585 20.258 43.204 20.559 43.668C20.75 43.963 21.072 44.123 21.399 44.123C21.586 44.123 21.774 44.071 21.943 43.962C22.516 43.59 23.087 43.19 23.638 42.774C24.078 42.441 24.166 41.814 23.834 41.373C23.501 40.936 22.876 40.844 22.433 41.177Z" fill="white"/>
<path d="M44.72 34.583C44.382 34.82 43.943 34.992 43.374 35.109C42.833 35.22 42.485 35.75 42.597 36.291C42.695 36.764 43.111 37.089 43.576 37.089C43.643 37.089 43.711 37.082 43.779 37.068C44.621 36.894 45.305 36.616 45.875 36.215L46.009 36.117C46.449 35.783 46.536 35.156 46.203 34.716C45.869 34.276 45.243 34.19 44.802 34.522L44.72 34.583Z" fill="white"/>
<path d="M8.86002 42.402C9.00502 41.869 8.68902 41.32 8.15602 41.176C7.62702 41.027 7.07402 41.345 6.93002 41.88C6.80402 42.344 6.72902 42.818 6.70502 43.285C6.70002 43.4 6.69702 43.516 6.69702 43.638C6.69802 43.834 6.70702 44.03 6.72602 44.225C6.77902 44.74 7.21302 45.123 7.72002 45.123C7.75302 45.123 7.78702 45.121 7.82302 45.118C8.37202 45.061 8.77202 44.571 8.71702 44.021C8.70302 43.89 8.69802 43.757 8.69702 43.631C8.69702 43.548 8.70002 43.465 8.70402 43.383C8.72002 43.059 8.77202 42.728 8.86002 42.402Z" fill="white"/>
<path d="M44.698 26.81C43.904 26.704 43.094 26.769 42.312 26.991C41.78 27.14 41.471 27.693 41.622 28.224C41.746 28.665 42.147 28.953 42.583 28.953C42.674 28.953 42.765 28.941 42.855 28.915C43.375 28.769 43.91 28.723 44.43 28.793C44.992 28.863 45.482 28.482 45.555 27.936C45.629 27.387 45.245 26.884 44.698 26.81Z" fill="white"/>
<path d="M46.688 31.764C46.525 32.291 46.821 32.852 47.348 33.014C47.447 33.045 47.545 33.059 47.643 33.059C48.071 33.059 48.466 32.784 48.598 32.354C48.697 32.036 48.758 31.713 48.781 31.391C48.786 31.308 48.789 31.224 48.789 31.141C48.789 30.673 48.703 30.204 48.534 29.749C48.342 29.23 47.763 28.968 47.249 29.159C46.73 29.351 46.467 29.927 46.659 30.444C46.745 30.676 46.789 30.911 46.789 31.14L46.786 31.257C46.774 31.423 46.742 31.589 46.688 31.764Z" fill="white"/>
<path d="M17.481 44.164C16.895 44.439 16.298 44.694 15.707 44.923C15.192 45.121 14.936 45.7 15.135 46.216C15.288 46.612 15.666 46.856 16.068 46.856C16.188 46.856 16.31 46.835 16.428 46.789C17.063 46.544 17.703 46.27 18.331 45.976C18.831 45.742 19.046 45.146 18.811 44.646C18.578 44.145 17.984 43.928 17.481 44.164Z" fill="white"/>
<path d="M10.201 40.001C10.362 40.001 10.526 39.962 10.679 39.879C10.967 39.722 11.274 39.624 11.59 39.59C11.725 39.574 11.863 39.574 11.996 39.592C12.559 39.665 13.046 39.279 13.118 38.732C13.19 38.184 12.805 37.682 12.258 37.61C11.96 37.571 11.657 37.569 11.367 37.602C10.793 37.665 10.239 37.841 9.72097 38.123C9.23597 38.388 9.05697 38.994 9.32197 39.479C9.50397 39.813 9.84698 40.001 10.201 40.001Z" fill="white"/>
<path d="M9.993 47.842C10.209 47.898 10.429 47.94 10.647 47.966C10.903 47.997 11.159 48.013 11.416 48.013C11.729 48.013 12.043 47.991 12.356 47.951C12.904 47.882 13.293 47.382 13.223 46.834C13.153 46.286 12.656 45.9 12.106 45.967C11.702 46.019 11.294 46.031 10.89 45.982C10.758 45.965 10.626 45.94 10.496 45.907C9.961 45.764 9.416 46.088 9.276 46.623C9.139 47.158 9.459 47.704 9.993 47.842Z" fill="white"/>
</svg>
