<svg width="51" height="53" viewBox="0 0 51 53" fill="none" xmlns="http://www.w3.org/2000/svg">
<path d="M49.35 3.53333H43.1667V0.883333C43.1667 0.39485 42.7718 0 42.2833 0H36.1C35.6115 0 35.2167 0.39485 35.2167 0.883333V3.53333H15.7833V0.883333C15.7833 0.39485 15.3885 0 14.9 0H8.71666C8.22818 0 7.83333 0.39485 7.83333 0.883333V3.53333H1.65C1.16151 3.53333 0.766663 3.92818 0.766663 4.41667V14.1333V52.1167C0.766663 52.6051 1.16151 53 1.65 53H49.35C49.8385 53 50.2333 52.6051 50.2333 52.1167V14.1333V4.41667C50.2333 3.92818 49.8385 3.53333 49.35 3.53333ZM36.9833 1.76667H41.4V4.41667V7.06667H36.9833V4.41667V1.76667ZM9.6 1.76667H14.0167V4.41667V7.06667H9.6V4.41667V1.76667ZM2.53333 5.3H7.83333V7.95C7.83333 8.43848 8.22818 8.83333 8.71666 8.83333H14.9C15.3885 8.83333 15.7833 8.43848 15.7833 7.95V5.3H35.2167V7.95C35.2167 8.43848 35.6115 8.83333 36.1 8.83333H42.2833C42.7718 8.83333 43.1667 8.43848 43.1667 7.95V5.3H48.4667V13.25H2.53333V5.3ZM2.53333 51.2333V15.0167H48.4667V51.2333H2.53333Z" fill="white"/>
<path d="M32.5667 20.3167H26.3833H24.6167H18.4333H16.6667H8.71667V28.2667V30.0333V36.2167V37.9833V45.9333H16.6667H18.4333H24.6167H26.3833H32.5667H34.3333H42.2833V37.9833V36.2167V30.0333V28.2667V20.3167H34.3333H32.5667ZM26.3833 22.0833H32.5667V28.2667H26.3833V22.0833ZM32.5667 36.2167H26.3833V30.0333H32.5667V36.2167ZM18.4333 30.0333H24.6167V36.2167H18.4333V30.0333ZM18.4333 22.0833H24.6167V28.2667H18.4333V22.0833ZM10.4833 22.0833H16.6667V28.2667H10.4833V22.0833ZM10.4833 30.0333H16.6667V36.2167H10.4833V30.0333ZM16.6667 44.1667H10.4833V37.9833H16.6667V44.1667ZM24.6167 44.1667H18.4333V37.9833H24.6167V44.1667ZM32.5667 44.1667H26.3833V37.9833H32.5667V44.1667ZM40.5167 44.1667H34.3333V37.9833H40.5167V44.1667ZM40.5167 36.2167H34.3333V30.0333H40.5167V36.2167ZM40.5167 22.0833V28.2667H34.3333V22.0833H40.5167Z" fill="white"/>
</svg>
