<svg width="17" height="17" viewBox="0 0 17 17" fill="none" xmlns="http://www.w3.org/2000/svg">
<path fill-rule="evenodd" clip-rule="evenodd" d="M8.5 1.41667C6.99711 1.41667 5.55577 2.01369 4.49306 3.07639C3.43036 4.1391 2.83333 5.58044 2.83333 7.08333C2.83333 9.27779 4.26115 11.4072 5.82672 13.0597C6.59502 13.8707 7.36572 14.5346 7.94515 14.996C8.16079 15.1677 8.34914 15.3108 8.5 15.4222C8.65086 15.3108 8.83921 15.1677 9.05486 14.996C9.63428 14.5346 10.405 13.8707 11.1733 13.0597C12.7389 11.4072 14.1667 9.27779 14.1667 7.08333C14.1667 5.58044 13.5696 4.1391 12.5069 3.07639C11.4442 2.01369 10.0029 1.41667 8.5 1.41667ZM8.5 16.2917C8.10709 16.881 8.10691 16.8809 8.10671 16.8808L8.10468 16.8794L8.09996 16.8763L8.08373 16.8653C8.06993 16.8559 8.05026 16.8425 8.0251 16.825C7.97479 16.7902 7.9025 16.7394 7.81135 16.6736C7.62914 16.542 7.37117 16.3499 7.06267 16.1042C6.44678 15.6138 5.62373 14.9053 4.79829 14.034C3.17635 12.322 1.41667 9.84721 1.41667 7.08333C1.41667 5.20472 2.16295 3.40304 3.49133 2.07466C4.81971 0.746278 6.62138 0 8.5 0C10.3786 0 12.1803 0.746278 13.5087 2.07466C14.8371 3.40304 15.5833 5.20472 15.5833 7.08333C15.5833 9.84721 13.8236 12.322 12.2017 14.034C11.3763 14.9053 10.5532 15.6138 9.93734 16.1042C9.62883 16.3499 9.37086 16.542 9.18865 16.6736C9.09751 16.7394 9.02521 16.7902 8.9749 16.825C8.94974 16.8425 8.93007 16.8559 8.91628 16.8653L8.90004 16.8763L8.89532 16.8794L8.89383 16.8804C8.89362 16.8806 8.89291 16.881 8.5 16.2917ZM8.5 16.2917L8.89291 16.881C8.65499 17.0397 8.34463 17.0394 8.10671 16.8808L8.5 16.2917Z" fill="black"/>
<path fill-rule="evenodd" clip-rule="evenodd" d="M8.5 5.66667C7.7176 5.66667 7.08333 6.30093 7.08333 7.08333C7.08333 7.86574 7.7176 8.5 8.5 8.5C9.2824 8.5 9.91667 7.86574 9.91667 7.08333C9.91667 6.30093 9.2824 5.66667 8.5 5.66667ZM5.66667 7.08333C5.66667 5.51853 6.93519 4.25 8.5 4.25C10.0648 4.25 11.3333 5.51853 11.3333 7.08333C11.3333 8.64814 10.0648 9.91667 8.5 9.91667C6.93519 9.91667 5.66667 8.64814 5.66667 7.08333Z" fill="black"/>
</svg>
