<svg width="52" height="52" viewBox="0 0 52 52" fill="none" xmlns="http://www.w3.org/2000/svg">
<path d="M44.2 39.8666C41.8106 39.8666 39.8666 41.8105 39.8666 44.2C39.8666 46.5894 41.8105 48.5333 44.2 48.5333C46.5893 48.5333 48.5333 46.5894 48.5333 44.2C48.5333 41.8105 46.5893 39.8666 44.2 39.8666ZM44.2 46.8C42.7665 46.8 41.6 45.6334 41.6 44.2C41.6 42.7665 42.7665 41.5999 44.2 41.5999C45.6334 41.5999 46.8 42.7665 46.8 44.2C46.8 45.6334 45.6334 46.8 44.2 46.8Z" fill="white"/>
<path d="M50.2666 39.3076V10.4C50.2666 9.44409 49.4893 8.66663 48.5333 8.66663H39.8666C38.9107 8.66663 38.1333 9.44399 38.1333 10.4V33.8C38.1333 34.2784 38.5206 34.6666 38.9999 34.6666H40.7333C41.2125 34.6666 41.5999 34.2784 41.5999 33.8C41.5999 33.3216 41.2125 32.9334 40.7333 32.9334H39.8666V31.2H40.7333C41.2125 31.2 41.5999 30.8117 41.5999 30.3334C41.5999 29.855 41.2125 29.4667 40.7333 29.4667H39.8666V27.7334H42.4666C42.9459 27.7334 43.3333 27.3451 43.3333 26.8667C43.3333 26.3884 42.9459 26 42.4666 26H39.8666V24.2666H40.7333C41.2125 24.2666 41.5999 23.8784 41.5999 23.4C41.5999 22.9216 41.2125 22.5334 40.7333 22.5334H39.8666V20.8H40.7333C41.2125 20.8 41.5999 20.4117 41.5999 19.9334C41.5999 19.455 41.2125 19.0667 40.7333 19.0667H39.8666V17.3334H40.7333C41.2125 17.3334 41.5999 16.9451 41.5999 16.4667C41.5999 15.9884 41.2125 15.6001 40.7333 15.6001H39.8666V13.8667H42.4666C42.9459 13.8667 43.3333 13.4785 43.3333 13.0001C43.3333 12.5217 42.9459 12.1335 42.4666 12.1335H39.8666V10.4H48.5333V37.7191C47.2922 36.8862 45.8033 36.4 44.1999 36.4C39.8986 36.4 36.3999 39.8996 36.3999 44.2C36.3999 45.8024 36.887 47.2931 37.7181 48.5334H13.8666V39.8667H15.6V42.4667C15.6 42.9451 15.9883 43.3334 16.4666 43.3334C16.945 43.3334 17.3333 42.9451 17.3333 42.4667V39.8667H19.0666V40.7334C19.0666 41.2117 19.4549 41.6 19.9333 41.6C20.4116 41.6 20.7999 41.2117 20.7999 40.7334V39.8667H22.5333V40.7334C22.5333 41.2117 22.9215 41.6 23.3999 41.6C23.8783 41.6 24.2665 41.2117 24.2665 40.7334V39.8667H26V40.7334C26 41.2117 26.3883 41.6 26.8666 41.6C27.3459 41.6 27.7333 41.2117 27.7333 40.7334V39.8667H29.4666V42.4667C29.4666 42.9451 29.854 43.3334 30.3333 43.3334C30.8125 43.3334 31.1999 42.9451 31.1999 42.4667V39.8667H32.9333V40.7334C32.9333 41.2117 33.3206 41.6 33.7999 41.6C34.2792 41.6 34.6665 41.2117 34.6665 40.7334V39C34.6665 38.5216 34.2792 38.1334 33.7999 38.1334H13.8666C12.8622 38.1334 12.1333 38.8623 12.1333 39.8667V48.5334C12.1333 49.5378 12.8622 50.2667 13.8666 50.2667H39.3076C40.6466 51.3483 42.3479 52 44.2 52C48.5013 52 52 48.5004 52 44.2C52 42.3479 51.3483 40.6475 50.2666 39.3076ZM44.2 50.2666C40.8556 50.2666 38.1334 47.5453 38.1334 44.2C38.1334 40.8547 40.8556 38.1334 44.2 38.1334C47.5445 38.1334 50.2666 40.8547 50.2666 44.2C50.2666 47.5453 47.5445 50.2666 44.2 50.2666Z" fill="white"/>
<path d="M45.0666 6.06663C45.0666 5.58827 44.6793 5.2 44.2 5.2H10.4C10.4 2.33218 8.06782 0 5.2 0C2.33218 0 0 2.33218 0 5.2V46.8C0 49.6678 2.33218 52 5.2 52H9.53337C10.0117 52 10.4 51.6117 10.4 51.1334C10.4 50.655 10.0117 50.2667 9.53337 50.2667H5.2C3.28809 50.2667 1.73337 48.7119 1.73337 46.8001C1.73337 44.8883 3.28819 43.3335 5.2 43.3335C7.11181 43.3335 8.66663 44.8883 8.66663 46.8001C8.66663 47.2785 9.0549 47.6667 9.53327 47.6667C10.0116 47.6667 10.3999 47.2785 10.3999 46.8001V6.93337H44.1999C44.6793 6.93337 45.0666 6.54509 45.0666 6.06663ZM8.66663 42.9346C7.74536 42.1079 6.53291 41.6 5.2 41.6C3.86709 41.6 2.65464 42.1079 1.73337 42.9346V5.2C1.73337 3.28809 3.28819 1.73337 5.2 1.73337C7.11181 1.73337 8.66663 3.28809 8.66663 5.2V42.9346Z" fill="white"/>
<path d="M33.1873 11.8794C33.3563 12.0484 33.5782 12.1333 33.8 12.1333C34.0219 12.1333 34.2437 12.0484 34.4127 11.8794C34.7516 11.5405 34.7516 10.9927 34.4127 10.6539L32.6803 8.92148C32.5996 8.84084 32.5044 8.77756 32.3977 8.73338C32.1863 8.64584 31.9471 8.64584 31.7356 8.73338C31.629 8.77756 31.5337 8.84084 31.4531 8.92148L29.7206 10.6539C29.3817 10.9928 29.3817 11.5406 29.7206 11.8794C30.0596 12.2182 30.6073 12.2182 30.9461 11.8794L31.2 11.6255V31.7078L30.9461 31.4539C30.6072 31.1151 30.0595 31.1151 29.7206 31.4539C29.3817 31.7928 29.3817 32.3406 29.7206 32.6794L31.4531 34.4118C31.5337 34.4925 31.629 34.5558 31.7356 34.5999C31.8414 34.6441 31.954 34.6667 32.0667 34.6667C32.1794 34.6667 32.2921 34.6441 32.3978 34.5999C32.5045 34.5558 32.5997 34.4925 32.6804 34.4118L34.4128 32.6794C34.7518 32.3405 34.7518 31.7927 34.4128 31.4539C34.074 31.1151 33.5262 31.1151 33.1874 31.4539L32.9335 31.7078V11.6255L33.1873 11.8794Z" fill="white"/>
</svg>
