<svg width="338" height="192" viewBox="0 0 338 192" fill="none" xmlns="http://www.w3.org/2000/svg">
<g clip-path="url(#clip0)">
<mask id="mask0" mask-type="alpha" maskUnits="userSpaceOnUse" x="-1" y="0" width="339" height="193">
<path d="M29.5176 138.439C29.5176 147.192 23.4362 152.511 15.4307 152.511C6.44878 152.511 -4.17076e-05 145.884 -4.17076e-05 137.659C-0.0110708 135.688 0.369636 133.734 1.11987 131.912C1.87011 130.09 2.97487 128.435 4.36975 127.045C5.76462 125.655 7.4217 124.557 9.24438 123.815C11.0671 123.074 13.0189 122.703 14.986 122.725C20.4583 122.725 25.0702 125.423 27.4776 129.269L21.9231 132.461C20.7387 130.582 18.1669 129.109 14.9425 129.109C10.1083 129.109 6.53098 132.67 6.53098 137.703C6.53098 142.571 9.95844 146.131 15.5129 146.131C19.3078 146.131 21.7974 144.455 22.8223 141.714H15.1842V135.983H29.5176V138.439Z" fill="white"/>
<path d="M30.2427 149.115C30.2427 148.46 30.4367 147.819 30.8 147.274C31.1633 146.729 31.6798 146.305 32.284 146.054C32.8882 145.803 33.553 145.738 34.1944 145.865C34.8358 145.993 35.425 146.309 35.8875 146.772C36.3499 147.236 36.6648 147.826 36.7924 148.469C36.92 149.111 36.8545 149.778 36.6042 150.383C36.354 150.988 35.9301 151.506 35.3864 151.87C34.8426 152.234 34.2033 152.428 33.5493 152.428C32.6739 152.423 31.8358 152.073 31.2168 151.452C30.5978 150.832 30.2478 149.992 30.2427 149.115Z" fill="white"/>
<path d="M41.3857 142.697V123.321H47.9167V142.14C47.9167 144.31 48.9367 146.151 52.4076 146.151C55.8786 146.151 56.8986 144.31 56.8986 142.14V123.301H63.4296V142.677C63.4296 148.815 58.6921 152.496 52.4076 152.496C46.1232 152.496 41.3857 148.829 41.3857 142.697Z" fill="white"/>
<path d="M65.2038 149.115C65.2038 148.46 65.3977 147.819 65.7611 147.274C66.1244 146.729 66.6408 146.305 67.245 146.054C67.8492 145.803 68.5141 145.738 69.1555 145.865C69.7969 145.993 70.3861 146.309 70.8485 146.772C71.3109 147.236 71.6259 147.826 71.7535 148.469C71.881 149.111 71.8155 149.778 71.5653 150.383C71.315 150.988 70.8912 151.506 70.3474 151.87C69.8037 152.234 69.1644 152.428 68.5104 152.428C67.635 152.423 66.7969 152.073 66.1779 151.452C65.5589 150.832 65.2089 149.992 65.2038 149.115Z" fill="white"/>
<path d="M79.8079 137.62C79.8079 129.192 86.0537 122.73 94.6682 122.73C97.1052 122.693 99.5109 123.282 101.656 124.442C103.8 125.603 105.612 127.294 106.918 129.356L101.306 132.631C100.039 130.422 97.5881 129.114 94.6924 129.114C89.631 129.114 86.3631 132.505 86.3631 137.625C86.3631 142.746 89.631 146.136 94.6924 146.136C97.5929 146.136 100.083 144.828 101.306 142.62L106.918 145.894C104.467 149.944 99.894 152.521 94.6682 152.521C86.0537 152.516 79.8079 146.049 79.8079 137.62Z" fill="white"/>
<path d="M109.978 137.62C109.978 134.675 110.85 131.796 112.483 129.348C114.115 126.899 116.436 124.99 119.152 123.863C121.867 122.736 124.855 122.441 127.738 123.016C130.62 123.59 133.268 125.009 135.346 127.091C137.425 129.174 138.84 131.827 139.413 134.715C139.987 137.604 139.692 140.598 138.568 143.319C137.443 146.04 135.538 148.365 133.094 150.002C130.651 151.638 127.778 152.511 124.838 152.511C122.882 152.528 120.942 152.154 119.132 151.412C117.321 150.669 115.677 149.573 114.293 148.187C112.91 146.801 111.816 145.153 111.075 143.339C110.334 141.524 109.961 139.581 109.978 137.62ZM133.182 137.62C133.182 132.505 129.508 129.109 124.853 129.109C120.198 129.109 116.524 132.5 116.524 137.62C116.524 142.741 120.198 146.131 124.853 146.131C129.508 146.131 133.168 142.736 133.168 137.62H133.182Z" fill="white"/>
<path d="M166.645 123.301V151.939H161.733L150.711 136.395V151.939H144.19V123.301H149.087L160.109 138.846V123.301H166.645Z" fill="white"/>
<path d="M170.522 145.434L176.158 142.159C177.178 144.533 178.933 146.126 182.158 146.126C185.261 146.126 186.025 144.901 186.025 143.796C186.025 142.038 184.391 141.34 180.103 140.154C175.815 138.967 171.692 136.923 171.692 131.434C171.692 125.946 176.347 122.715 181.288 122.715C185.982 122.715 189.656 124.967 191.739 129.177L186.228 132.408C185.261 130.364 183.903 129.095 181.288 129.095C179.248 129.095 178.227 130.117 178.227 131.265C178.227 132.573 178.924 133.474 183.371 134.825C187.722 136.133 192.556 137.649 192.556 143.704C192.556 149.227 188.147 152.501 181.921 152.501C175.955 152.516 172.117 149.648 170.522 145.434Z" fill="white"/>
<path d="M197.265 142.697V123.321H203.791V142.14C203.791 144.31 204.811 146.151 208.282 146.151C211.753 146.151 212.773 144.31 212.773 142.14V123.301H219.304V142.677C219.304 148.815 214.566 152.496 208.282 152.496C201.997 152.496 197.265 148.829 197.265 142.697Z" fill="white"/>
<path d="M243.194 145.642V151.939H226.454V123.301H232.985V145.637L243.194 145.642Z" fill="white"/>
<path d="M264.015 129.603H256.667V151.939H250.136V129.603H242.788V123.306H264.02L264.015 129.603Z" fill="white"/>
<path d="M275.037 123.301V151.939H268.506V123.301H275.037Z" fill="white"/>
<path d="M303.211 123.301V151.939H298.314L287.292 136.395V151.939H280.751V123.301H285.648L296.67 138.846V123.301H303.211Z" fill="white"/>
<path d="M336.403 138.439C336.403 147.192 330.321 152.511 322.316 152.511C313.334 152.511 306.885 145.884 306.885 137.659C306.874 135.688 307.255 133.734 308.005 131.912C308.755 130.09 309.86 128.435 311.255 127.045C312.65 125.655 314.307 124.557 316.129 123.815C317.952 123.074 319.904 122.703 321.871 122.725C327.343 122.725 331.955 125.423 334.363 129.269L328.808 132.461C327.624 130.582 325.052 129.109 321.828 129.109C316.993 129.109 313.416 132.67 313.416 137.703C313.416 142.571 316.844 146.131 322.398 146.131C326.193 146.131 328.682 144.455 329.707 141.714H322.074V135.983H336.403V138.439Z" fill="white"/>
<path d="M76.6802 187.243H72.9095L71.8846 190.101H70.6664L74.5579 179.633H75.1139L79.0199 190.101H77.7292L76.6802 187.243ZM73.2962 186.182H76.3079L75.1671 183.048L74.7997 181.488L74.4322 183.077L73.2962 186.182Z" fill="white"/>
<path d="M89.7036 180.883H85.4157V190.087H84.1974V179.803H89.7036V180.883Z" fill="white"/>
<path d="M94.5378 179.803H100.136V180.893H95.756V184.283H99.7684V185.373H95.756V189.006H100.208V190.096H94.5378V179.803Z" fill="white"/>
<path d="M112.376 185.373H107.435V190.096H106.217V179.803H107.435V184.293H112.376V179.803H113.594V190.106H112.376V185.373Z" fill="white"/>
<path d="M126.55 180.883H123.35V190.087H122.131V180.883H118.931V179.803H126.555L126.55 180.883Z" fill="white"/>
<path d="M137.76 189.675C137.431 189.921 137.048 190.087 136.644 190.159C136.166 190.25 135.68 190.294 135.193 190.29C134.6 190.295 134.011 190.189 133.458 189.975C132.92 189.764 132.437 189.433 132.046 189.006C131.612 188.528 131.283 187.963 131.079 187.35C130.829 186.577 130.71 185.769 130.726 184.957C130.706 184.123 130.839 183.292 131.118 182.506C131.342 181.89 131.693 181.329 132.148 180.859C132.557 180.444 133.052 180.125 133.598 179.924C134.114 179.73 134.661 179.63 135.213 179.628C135.698 179.621 136.183 179.653 136.663 179.725C136.993 179.775 137.318 179.861 137.63 179.982L137.335 181.072C136.699 180.805 136.012 180.684 135.324 180.718C134.917 180.72 134.514 180.795 134.135 180.941C133.733 181.095 133.374 181.343 133.086 181.663C132.751 182.043 132.499 182.488 132.346 182.971C132.144 183.613 132.05 184.284 132.066 184.957C132.054 185.585 132.144 186.212 132.331 186.812C132.482 187.298 132.729 187.75 133.057 188.139C133.354 188.484 133.726 188.756 134.144 188.934C134.574 189.114 135.037 189.204 135.503 189.2C135.892 189.207 136.28 189.163 136.658 189.069C136.95 188.996 137.23 188.882 137.49 188.73L137.76 189.675Z" fill="white"/>
<path d="M149.614 180.883H146.414V190.087H145.195V180.883H141.995V179.803H149.619L149.614 180.883Z" fill="white"/>
<path d="M161.148 182.152C161.147 182.407 161.108 182.66 161.032 182.903C160.953 183.158 160.834 183.398 160.679 183.615C160.514 183.843 160.31 184.04 160.075 184.196C159.81 184.372 159.518 184.502 159.21 184.579V184.647C159.501 184.695 159.785 184.78 160.056 184.899C160.321 185.014 160.562 185.178 160.766 185.383C160.973 185.601 161.137 185.855 161.25 186.134C161.385 186.466 161.451 186.822 161.443 187.18C161.456 187.66 161.342 188.134 161.114 188.556C160.905 188.942 160.609 189.273 160.249 189.525C159.875 189.778 159.46 189.964 159.021 190.072C158.56 190.189 158.086 190.248 157.61 190.246H157.02C156.794 190.246 156.559 190.246 156.314 190.246C156.069 190.246 155.824 190.227 155.579 190.188C155.361 190.168 155.144 190.131 154.931 190.077V179.885C155.292 179.827 155.713 179.778 156.193 179.74C156.673 179.701 157.197 179.682 157.764 179.682C158.156 179.683 158.547 179.715 158.934 179.778C159.312 179.836 159.677 179.961 160.012 180.147C160.337 180.329 160.613 180.588 160.815 180.902C161.045 181.277 161.161 181.712 161.148 182.152ZM156.933 184.332H157.537C157.772 184.332 157.969 184.317 158.127 184.288C158.356 184.213 158.577 184.117 158.789 184.002C158.989 183.894 159.174 183.761 159.34 183.605C159.5 183.455 159.63 183.276 159.722 183.077C159.816 182.872 159.864 182.649 159.862 182.423C159.873 182.144 159.81 181.866 159.679 181.619C159.558 181.421 159.393 181.255 159.195 181.135C158.978 181.003 158.739 180.912 158.489 180.863C158.224 180.809 157.953 180.781 157.682 180.781C157.36 180.781 157.063 180.781 156.793 180.781C156.588 180.789 156.385 180.812 156.184 180.849V184.351L156.933 184.332ZM157.74 189.176C158.047 189.176 158.352 189.139 158.649 189.065C158.928 188.997 159.193 188.877 159.427 188.711C159.648 188.555 159.831 188.351 159.964 188.115C160.101 187.858 160.17 187.569 160.162 187.277C160.178 186.937 160.094 186.601 159.92 186.308C159.762 186.065 159.544 185.867 159.287 185.732C159.013 185.589 158.717 185.494 158.412 185.451C158.092 185.403 157.769 185.378 157.445 185.378H156.169V189.074C156.266 189.098 156.364 189.113 156.464 189.118L156.875 189.147H157.329L157.74 189.176Z" fill="white"/>
<path d="M166.92 184.947C166.92 183.229 167.283 181.912 168.008 180.994C168.379 180.536 168.853 180.172 169.392 179.933C169.931 179.693 170.518 179.586 171.107 179.619C171.754 179.603 172.397 179.733 172.987 180.001C173.507 180.249 173.958 180.62 174.302 181.082C174.667 181.584 174.93 182.153 175.076 182.758C175.25 183.473 175.334 184.206 175.327 184.942C175.327 186.66 174.963 187.978 174.234 188.895C173.859 189.355 173.38 189.719 172.838 189.958C172.295 190.197 171.703 190.304 171.112 190.271C170.472 190.286 169.837 190.156 169.255 189.888C168.739 189.639 168.291 189.269 167.95 188.808C167.584 188.306 167.322 187.736 167.177 187.132C167 186.417 166.914 185.683 166.92 184.947ZM168.211 184.947C168.209 185.491 168.265 186.034 168.38 186.565C168.479 187.04 168.656 187.495 168.902 187.912C169.126 188.287 169.436 188.604 169.806 188.837C170.199 189.073 170.65 189.192 171.107 189.181C171.522 189.197 171.935 189.111 172.309 188.931C172.683 188.75 173.007 188.48 173.253 188.144C173.772 187.453 174.031 186.386 174.031 184.942C174.033 184.4 173.977 183.859 173.862 183.329C173.765 182.85 173.587 182.392 173.335 181.973C173.107 181.598 172.796 181.282 172.426 181.048C172.03 180.809 171.574 180.69 171.112 180.704C170.699 180.687 170.289 180.773 169.918 180.954C169.547 181.135 169.226 181.405 168.984 181.74C168.472 182.435 168.216 183.504 168.216 184.947H168.211Z" fill="white"/>
<path d="M188.534 184.947C188.534 183.229 188.897 181.912 189.622 180.994C189.993 180.536 190.467 180.172 191.006 179.933C191.545 179.693 192.132 179.586 192.72 179.619C193.368 179.603 194.011 179.734 194.601 180.001C195.12 180.249 195.572 180.62 195.916 181.082C196.281 181.584 196.544 182.154 196.689 182.758C196.863 183.473 196.948 184.206 196.941 184.942C196.941 186.66 196.577 187.978 195.848 188.895C195.473 189.355 194.994 189.719 194.451 189.958C193.909 190.197 193.317 190.304 192.725 190.271C192.086 190.286 191.451 190.156 190.869 189.888C190.351 189.64 189.902 189.269 189.559 188.808C189.194 188.306 188.931 187.736 188.785 187.132C188.611 186.417 188.527 185.683 188.534 184.947ZM189.825 184.947C189.822 185.491 189.879 186.034 189.994 186.565C190.093 187.04 190.269 187.495 190.516 187.912C190.74 188.287 191.05 188.605 191.42 188.837C191.812 189.073 192.263 189.192 192.72 189.181C193.136 189.197 193.548 189.111 193.923 188.931C194.297 188.75 194.621 188.48 194.867 188.144C195.386 187.453 195.645 186.386 195.645 184.942C195.647 184.4 195.59 183.859 195.476 183.329C195.379 182.85 195.201 182.392 194.949 181.973C194.721 181.598 194.41 181.282 194.04 181.048C193.644 180.809 193.187 180.69 192.725 180.704C192.314 180.688 191.905 180.774 191.534 180.955C191.164 181.136 190.844 181.406 190.603 181.74C190.084 182.435 189.825 183.504 189.825 184.947Z" fill="white"/>
<path d="M211.26 192H210.423L210.201 190.101H202.824V179.803H204.042V189.006H208.668V179.803H209.887V189.006H211.255L211.26 192Z" fill="white"/>
<path d="M216.737 179.803H222.335V180.893H217.955V184.283H221.967V185.373H217.955V189.006H222.407V190.096H216.737V179.803Z" fill="white"/>
<path d="M234.589 185.373H229.654V190.096H228.445V179.803H229.663V184.293H234.599V179.803H235.817V190.106H234.599L234.589 185.373Z" fill="white"/>
<path d="M244.036 185.33H243.344V190.101H242.126V179.803H243.344V184.603L244.007 184.4L247.458 179.808H248.87L245.433 184.24L244.814 184.724L245.563 185.315L249.324 190.116H247.782L244.036 185.33Z" fill="white"/>
<path d="M261.192 183.121L261.279 181.944H261.221L260.588 183.15L255.623 190.096H254.903V179.803H256.121V186.87L256 188.038H256.058L256.706 186.831L261.671 179.808H262.391V190.111H261.173L261.192 183.121Z" fill="white"/>
<path d="M141.43 10.2596V15.1036C141.417 17.7005 140.375 20.186 138.534 22.0137C136.693 23.8413 134.203 24.8615 131.611 24.8499H126.777C124.495 24.8317 122.28 25.6172 120.517 27.0692C118.754 28.5212 117.556 30.5475 117.133 32.7942C116.706 35.1276 116.486 37.4943 116.475 39.8666C116.464 42.4635 117.482 44.9587 119.306 46.8036C121.13 48.6485 123.61 49.6921 126.202 49.7049L156.319 49.8405C158.903 49.838 161.381 48.8103 163.211 46.982C165.041 45.1538 166.074 42.6739 166.084 40.0846L166.219 9.90593C166.226 7.31155 165.205 4.8206 163.38 2.97974C161.556 1.13889 159.077 0.0985231 156.488 0.0869833C154.124 0.0751011 151.764 0.272866 149.435 0.677962C147.193 1.08473 145.164 2.26618 143.701 4.0168C142.239 5.76742 141.435 7.97642 141.43 10.2596Z" fill="white"/>
<path d="M126.714 80.6296H131.548C134.14 80.6424 136.62 81.686 138.444 83.5309C140.268 85.3758 141.286 87.8711 141.275 90.468V95.312C141.257 97.5985 142.041 99.8186 143.49 101.585C144.939 103.351 146.961 104.551 149.203 104.976C151.532 105.404 153.893 105.625 156.261 105.635C158.847 105.648 161.332 104.633 163.173 102.814C165.014 100.995 166.061 98.5182 166.084 95.9272L166.219 65.7486C166.231 63.1517 165.213 60.6565 163.389 58.8116C161.565 56.9667 159.085 55.9231 156.493 55.9103L126.376 55.7746C123.784 55.763 121.294 56.7832 119.453 58.6109C117.612 60.4385 116.57 62.924 116.558 65.5209C116.546 67.8896 116.743 70.2547 117.147 72.5885C117.549 74.8394 118.727 76.8775 120.476 78.3471C122.224 79.8167 124.432 80.6245 126.714 80.6296Z" fill="white"/>
<path d="M196.622 95.4237V90.5796C196.634 87.9827 197.676 85.4972 199.517 83.6695C201.358 81.8419 203.848 80.8217 206.44 80.8333H211.274C213.556 80.8515 215.772 80.066 217.534 78.614C219.297 77.162 220.495 75.1358 220.918 72.889C221.346 70.5557 221.566 68.1889 221.576 65.8167C221.587 63.2198 220.569 60.7246 218.745 58.8796C216.921 57.0347 214.441 55.9911 211.849 55.9783L181.732 55.8427C179.141 55.8311 176.651 56.8513 174.809 58.6789C172.968 60.5066 171.927 62.9921 171.914 65.589L171.779 95.7676C171.773 97.0575 172.021 98.3359 172.51 99.5293C172.999 100.723 173.718 101.808 174.626 102.722C175.534 103.636 176.614 104.361 177.803 104.856C178.991 105.351 180.266 105.606 181.553 105.606C183.917 105.618 186.277 105.42 188.606 105.015C190.852 104.61 192.884 103.428 194.349 101.675C195.814 99.9223 196.618 97.7099 196.622 95.4237Z" fill="white"/>
<path d="M211.313 25.0441H206.479C203.887 25.0313 201.407 23.9877 199.583 22.1428C197.759 20.2979 196.741 17.8027 196.752 15.2058V10.3617C196.77 8.07525 195.986 5.85507 194.537 4.08877C193.088 2.32247 191.066 1.12228 188.824 0.697749C186.495 0.269606 184.134 0.0491373 181.766 0.0389466C179.175 0.0273559 176.684 1.04754 174.843 2.87519C173.002 4.70284 171.961 7.18834 171.948 9.78524L171.812 39.9639C171.811 42.5566 172.836 45.044 174.662 46.881C176.488 48.7179 178.966 49.7545 181.553 49.7634L211.671 49.8991C214.262 49.9107 216.752 48.8905 218.593 47.0628C220.435 45.2352 221.476 42.7497 221.489 40.1528C221.501 37.7841 221.303 35.4191 220.899 33.0853C220.496 30.831 219.316 28.7904 217.563 27.3204C215.811 25.8504 213.598 25.0446 211.313 25.0441Z" fill="white"/>
<path d="M337.007 169.494H1.0297V169.979H337.007V169.494Z" fill="white"/>
</mask>
<g mask="url(#mask0)">
<rect x="106.07" y="-9.39859" width="135.608" height="120.839" fill="#5BCF6B"/>
<rect x="-67.1329" y="116.811" width="482.014" height="111.441" fill="white"/>
</g>
</g>
<defs>
<clipPath id="clip0">
<rect width="337.007" height="192" fill="white"/>
</clipPath>
</defs>
</svg>
