<svg width="59" height="55" viewBox="0 0 59 55" fill="none" xmlns="http://www.w3.org/2000/svg">
<path d="M55.0116 0.950012H5.95507C3.75535 0.950012 1.96667 2.7387 1.96667 4.93841V11.8149C0.84665 12.0381 0 13.0273 0 14.2122V23.0878C0 24.2727 0.84665 25.2619 1.96667 25.4852V29.5149C0.84665 29.7381 0 30.7273 0 31.9122V40.7878C0 41.9727 0.84665 42.9619 1.96667 43.1852V50.0616C1.96667 52.2613 3.75535 54.05 5.95507 54.05H55.0126C57.2113 54.05 59 52.2613 59 50.0616V4.93841C59 2.7387 57.2113 0.950012 55.0116 0.950012ZM1.96667 14.2122C1.96667 13.9477 2.18103 13.7333 2.44457 13.7333H6.88333H7.86667C8.40947 13.7333 8.85 14.1749 8.85 14.7167V22.5833C8.85 23.1252 8.40947 23.5667 7.86667 23.5667H6.88333H2.44457C2.18103 23.5667 1.96667 23.3523 1.96667 23.0878V14.2122ZM3.93333 25.5333H6.88333V29.4667H3.93333V25.5333ZM8.85 43.1852C9.97002 42.9619 10.8167 41.9727 10.8167 40.7878V40.2833V32.4167V31.9122C10.8167 30.7273 9.97002 29.7381 8.85 29.5149V25.4852C9.97002 25.2619 10.8167 24.2727 10.8167 23.0878V22.5833V14.7167V14.2122C10.8167 13.0273 9.97002 12.0381 8.85 11.8149V7.83335H52.1167V47.1667H8.85V43.1852ZM1.96667 31.9122C1.96667 31.6477 2.18103 31.4333 2.44457 31.4333H6.88333H7.86667C8.40947 31.4333 8.85 31.8749 8.85 32.4167V40.2833C8.85 40.8252 8.40947 41.2667 7.86667 41.2667H6.88333H2.44457C2.18103 41.2667 1.96667 41.0523 1.96667 40.7878V31.9122ZM57.0333 50.0616C57.0333 51.1767 56.1267 52.0833 55.0116 52.0833H5.95507C4.83997 52.0833 3.93333 51.1767 3.93333 50.0616V43.2333H6.88333V49.1333H54.0833V5.86668H6.88333V11.7667H3.93333V4.93841C3.93333 3.82331 4.83997 2.91668 5.95507 2.91668H55.0126C56.1267 2.91668 57.0333 3.82331 57.0333 4.93841V50.0616Z" fill="white"/>
<path d="M34.9142 19.1869C34.9054 19.1781 34.9024 19.1653 34.8936 19.1564C34.8847 19.1476 34.8719 19.1446 34.8631 19.1358C32.7283 17.0137 29.7901 15.7 26.55 15.7C23.3099 15.7 20.3717 17.0137 18.2369 19.1358C18.228 19.1446 18.2153 19.1476 18.2064 19.1564C18.1976 19.1653 18.1946 19.1781 18.1858 19.1869C16.0637 21.3217 14.75 24.2599 14.75 27.5C14.75 30.7401 16.0637 33.6783 18.1858 35.8131C18.1946 35.822 18.1976 35.8347 18.2064 35.8436C18.2153 35.8524 18.228 35.8554 18.2369 35.8642C20.3717 37.9863 23.3099 39.3 26.55 39.3C29.7901 39.3 32.7283 37.9863 34.8631 35.8642C34.8719 35.8554 34.8847 35.8524 34.8936 35.8436C34.9024 35.8347 34.9054 35.822 34.9142 35.8131C37.0363 33.6783 38.35 30.7401 38.35 27.5C38.35 24.2599 37.0363 21.3217 34.9142 19.1869ZM34.4167 28.4833H36.3332C36.1365 30.4579 35.3518 32.2613 34.159 33.7186L32.8079 32.3675C32.4234 31.983 31.802 31.983 31.4175 32.3675C31.033 32.751 31.033 33.3735 31.4175 33.7579L32.7686 35.109C31.3113 36.3018 29.5079 37.0865 27.5333 37.2832V35.3667C27.5333 34.8239 27.0938 34.3833 26.55 34.3833C26.0062 34.3833 25.5667 34.8239 25.5667 35.3667V37.2832C23.5921 37.0865 21.7877 36.3018 20.3314 35.109L21.6825 33.7579C22.067 33.3735 22.067 32.751 21.6825 32.3675C21.298 31.983 20.6765 31.983 20.2921 32.3675L18.941 33.7186C17.7482 32.2613 16.9635 30.4579 16.7668 28.4833H18.6833C19.2271 28.4833 19.6667 28.0428 19.6667 27.5C19.6667 26.9572 19.2271 26.5167 18.6833 26.5167H16.7668C16.9635 24.5421 17.7482 22.7387 18.941 21.2814L20.2921 22.6325C20.4838 22.8243 20.7355 22.9206 20.9873 22.9206C21.239 22.9206 21.4907 22.8243 21.6825 22.6325C22.067 22.249 22.067 21.6266 21.6825 21.2421L20.3314 19.891C21.7887 18.6982 23.5921 17.9135 25.5667 17.7168V19.6333C25.5667 20.1761 26.0062 20.6167 26.55 20.6167C27.0938 20.6167 27.5333 20.1761 27.5333 19.6333V17.7168C29.5079 17.9135 31.3123 18.6982 32.7686 19.891L31.4175 21.2421C31.033 21.6266 31.033 22.249 31.4175 22.6325C31.6092 22.8243 31.861 22.9206 32.1127 22.9206C32.3645 22.9206 32.6162 22.8243 32.8079 22.6325L34.159 21.2814C35.3518 22.7387 36.1365 24.5421 36.3332 26.5167H34.4167C33.8729 26.5167 33.4333 26.9572 33.4333 27.5C33.4333 28.0428 33.8729 28.4833 34.4167 28.4833Z" fill="white"/>
<path d="M26.55 22.5834C23.8389 22.5834 21.6333 24.789 21.6333 27.5C21.6333 30.2111 23.8389 32.4167 26.55 32.4167C29.261 32.4167 31.4667 30.2111 31.4667 27.5C31.4667 24.789 29.261 22.5834 26.55 22.5834ZM26.55 30.45C24.9236 30.45 23.6 29.1265 23.6 27.5C23.6 25.8736 24.9236 24.55 26.55 24.55C28.1764 24.55 29.5 25.8736 29.5 27.5C29.5 29.1265 28.1764 30.45 26.55 30.45Z" fill="white"/>
<path d="M50.15 15.7C50.15 15.1572 49.7104 14.7167 49.1667 14.7167H46.7083C44.8105 14.7167 43.2667 16.2605 43.2667 18.1583V36.8417C43.2667 38.7395 44.8105 40.2833 46.7083 40.2833H49.1667C49.7104 40.2833 50.15 39.8428 50.15 39.3C50.15 38.7572 49.7104 38.3167 49.1667 38.3167H46.7083C45.8951 38.3167 45.2333 37.6549 45.2333 36.8417V18.1583C45.2333 17.3451 45.8951 16.6833 46.7083 16.6833H49.1667C49.7104 16.6833 50.15 16.2428 50.15 15.7Z" fill="white"/>
<path d="M47.2 18.65V36.35C47.2 36.8928 47.6395 37.3334 48.1833 37.3334C48.7271 37.3334 49.1667 36.8928 49.1667 36.35V18.65C49.1667 18.1072 48.7271 17.6667 48.1833 17.6667C47.6395 17.6667 47.2 18.1072 47.2 18.65Z" fill="white"/>
</svg>
