<svg width="87" height="77" viewBox="0 0 87 77" fill="none" xmlns="http://www.w3.org/2000/svg">
<path d="M77.5073 45.3229C78.4458 45.3229 79.2066 46.0836 79.2066 47.0221C79.2066 47.9605 78.4458 48.7213 77.5073 48.7213C76.5689 48.7213 75.8081 47.9605 75.8081 47.0221C75.8081 46.0836 76.5689 45.3229 77.5073 45.3229Z" fill="white"/>
<path d="M32.6541 39.0295C33.5925 39.0295 34.3533 38.2688 34.3533 37.3303C34.3533 36.3919 33.5925 35.6311 32.6541 35.6311C31.7156 35.6311 30.9548 36.3919 30.9548 37.3303C30.9548 38.2688 31.7156 39.0295 32.6541 39.0295Z" fill="white"/>
<path d="M81.9378 8.19586H68.7238C67.9155 3.54696 63.8544 0 58.9778 0C54.1012 0 50.04 3.54696 49.2317 8.19586H36.0176C33.2261 8.19586 30.9552 10.4669 30.9552 13.2582V21.8155H21.4986C22.4343 20.4998 22.9869 18.8935 22.9869 17.1596C22.9869 12.7183 19.3737 9.10511 14.9326 9.10511C10.4912 9.10511 6.87811 12.7183 6.87811 17.1596C6.87811 19.4512 7.84174 21.5206 9.3831 22.9888C3.87457 25.2576 0 30.5705 0 36.7477V49.4032C0 53.2506 2.99182 56.4274 6.82289 56.8346V73.3447H2.57194C1.63363 73.3447 0.87272 74.1056 0.87272 75.0439C0.87272 75.9822 1.63363 76.7432 2.57194 76.7432H49.3668C49.3709 76.7432 49.3751 76.7437 49.3792 76.7437C49.3835 76.7437 49.3877 76.7432 49.3918 76.7432H69.6946C69.6989 76.7432 69.7031 76.7437 69.7072 76.7437C69.7113 76.7437 69.7155 76.7432 69.7196 76.7432H83.6976C84.6359 76.7432 85.3968 75.9822 85.3968 75.0439C85.3968 74.1056 84.6359 73.3447 83.6976 73.3447H70.9294L66.0603 58.8373H81.9377C84.7292 58.8373 87 56.5664 87 53.7749V13.2582C87.0002 10.4669 84.7293 8.19586 81.9378 8.19586ZM58.9778 3.39844C61.9723 3.39844 64.5003 5.43513 65.2491 8.19586H52.7065C53.4553 5.43513 55.9832 3.39844 58.9778 3.39844ZM14.9324 12.5036C17.4996 12.5036 19.5883 14.5922 19.5883 17.1596C19.5883 19.7268 17.4996 21.8155 14.9324 21.8155C12.3651 21.8155 10.2764 19.7268 10.2764 17.1596C10.2764 14.5922 12.3651 12.5036 14.9324 12.5036ZM20.6887 30.6453V73.3447H17.1542V54.2426C17.1542 53.3043 16.3932 52.5433 15.4549 52.5433C14.5166 52.5433 13.7557 53.3043 13.7557 54.2426V73.3447H10.2213V37.188C10.2213 36.2495 9.46059 35.4888 8.52211 35.4888C7.5838 35.4888 6.82289 36.2497 6.82289 37.188V53.4023C4.87286 53.0298 3.39844 51.3785 3.39844 49.4032V36.7477C3.39844 30.388 8.75762 25.2139 15.345 25.2139H38.5721C37.8572 27.3792 35.8144 28.9461 33.4128 28.9461H22.3879C21.4496 28.9461 20.6887 29.7068 20.6887 30.6453ZM67.3448 73.3445H51.7417L56.6108 58.8371H62.4756L67.3448 73.3445ZM83.6017 53.7749C83.6017 54.6924 82.8553 55.4388 81.9378 55.4388C81.9378 55.4388 55.4215 55.4388 55.4177 55.4388H36.0176C35.1001 55.4388 34.3537 54.6924 34.3537 53.7749V43.833C34.3537 42.8947 33.5928 42.1337 32.6545 42.1337C31.7162 42.1337 30.9552 42.8947 30.9552 43.833V53.7749C30.9552 56.5664 33.2261 58.8373 36.0176 58.8373H53.0259L48.1568 73.3447H24.0872V32.3447H33.4128C38.2815 32.3447 42.2428 28.3836 42.2428 23.5149C42.2428 22.5764 41.4819 21.8156 40.5435 21.8156H34.3537V13.2584C34.3537 12.3409 35.1001 11.5945 36.0176 11.5945H81.9378C82.8553 11.5945 83.6017 12.3409 83.6017 13.2584V53.7749Z" fill="white"/>
<path d="M73.5176 43.0327C72.8539 43.6963 71.7783 43.6963 71.1146 43.0329L63.8359 35.7543L61.1814 38.4088C60.5177 39.0722 59.4421 39.0722 58.7782 38.4088L49.3961 29.0267L46.7756 31.6472C46.4568 31.9658 46.0247 32.1449 45.5741 32.1449C45.1234 32.1449 44.6912 31.9658 44.3725 31.6472L42.0001 29.0267C41.3366 28.3632 41.3366 27.2872 42.0001 26.6235C42.332 26.2918 42.7668 26.1258 43.2016 26.1258C43.6365 26.1258 44.0713 26.2918 44.4032 26.6235L45.5739 28.0423L48.1944 25.4218C48.8581 24.7584 49.9338 24.7584 50.5976 25.4218L59.9797 34.8039L62.6343 32.1494C63.298 31.486 64.3736 31.486 65.0375 32.1494L73.5176 40.6295C74.1811 41.293 74.1811 42.369 73.5176 43.0327Z" fill="white"/>
</svg>
