<svg width="83" height="77" viewBox="0 0 83 77" fill="none" xmlns="http://www.w3.org/2000/svg">
<path d="M80.6786 73.6015H56.9517V38.4875C56.9517 35.9688 54.9024 33.9197 52.3838 33.9197H48.0536C45.5348 33.9197 43.4857 35.9689 43.4857 38.4875V73.6015H39.0225V52.0054C39.0225 49.4866 36.9734 47.4375 34.4546 47.4375H30.1244C27.6056 47.4375 25.5565 49.4868 25.5565 52.0054V73.6015H21.0932V66.2739C21.0932 63.7551 19.044 61.7061 16.5254 61.7061H12.195C9.67622 61.7061 7.62713 63.7553 7.62713 66.2739V73.6015H1.69922C0.76074 73.6015 0 74.3623 0 75.3008C0 76.2392 0.76074 77 1.69922 77H80.6786C81.617 77 82.3778 76.2392 82.3778 75.3008C82.3778 74.3623 81.617 73.6015 80.6786 73.6015ZM17.6945 73.6015H11.0254V66.2739C11.0254 65.629 11.55 65.1045 12.1948 65.1045H16.5251C17.1699 65.1045 17.6945 65.629 17.6945 66.2739V73.6015ZM35.6238 73.6015H28.9548V52.0054C28.9548 51.3605 29.4793 50.836 30.1242 50.836H34.4544C35.0991 50.836 35.6238 51.3605 35.6238 52.0054V73.6015ZM53.5532 73.6015H46.8842V38.4875C46.8842 37.8427 47.4087 37.3181 48.0536 37.3181H52.3838C53.0287 37.3181 53.5532 37.8427 53.5532 38.4875V73.6015Z" fill="white"/>
<path d="M71.5532 73.6015H74.9517V27.4875C74.9517 24.9688 72.9024 22.9197 70.3838 22.9197H66.0536C63.5348 22.9197 61.4857 24.9689 61.4857 27.4875V73.6015H64.8842V27.4875C64.8842 26.8427 65.4087 26.3181 66.0536 26.3181H70.3838C71.0287 26.3181 71.5532 26.8427 71.5532 27.4875V73.6015Z" fill="white"/>
<path d="M67.9935 1.7869C68.0173 1.32318 67.8542 0.851648 67.5001 0.497531C67.146 0.143414 66.6744 -0.0198809 66.2107 0.00407813C66.1834 0.00288867 66.1563 0 66.1285 0H55.8482C54.9097 0 54.149 0.76074 54.149 1.69922C54.149 2.6377 54.9097 3.39844 55.8482 3.39844H62.196L45.398 20.1966L39.0633 13.8619C38.7447 13.5433 38.3124 13.3642 37.8618 13.3642C37.4112 13.3642 36.9789 13.5433 36.6603 13.8619L15.1866 32.5994C14.523 33.263 14.523 34.3389 15.1866 35.0026C15.5184 35.3342 15.9533 35.5 16.3881 35.5C16.8229 35.5 17.2579 35.3342 17.5896 35.0023L37.8618 17.4663L44.1965 23.801C44.86 24.4645 45.936 24.4645 46.5997 23.801L64.5992 5.80164V11.5467C64.5992 12.4852 65.3599 13.2459 66.2984 13.2459C67.2369 13.2459 67.9976 12.4852 67.9976 11.5467V1.86914C67.9976 1.84144 67.9947 1.81443 67.9935 1.7869Z" fill="white"/>
<path d="M10.3882 40.3984C11.3266 40.3984 12.0874 39.6377 12.0874 38.6992C12.0874 37.7608 11.3266 37 10.3882 37C9.44971 37 8.68894 37.7608 8.68894 38.6992C8.68894 39.6377 9.44971 40.3984 10.3882 40.3984Z" fill="white"/>
</svg>
