<svg width="99" height="58" viewBox="0 0 99 58" fill="none" xmlns="http://www.w3.org/2000/svg">
<g clip-path="url(#clip0)">
<path d="M8.67119 41.7602C8.67119 44.3588 6.88469 45.9378 4.53299 45.9378C1.89443 45.9378 7.39699e-06 43.9705 7.39699e-06 41.5286C-0.00323254 40.9434 0.108605 40.3634 0.328997 39.8224C0.549389 39.2814 0.873924 38.7903 1.28369 38.3776C1.69345 37.9649 2.18024 37.639 2.71567 37.4188C3.2511 37.1986 3.82447 37.0885 4.40234 37.095C6.00991 37.095 7.36469 37.896 8.07191 39.0379L6.4402 39.9856C6.09227 39.4276 5.33677 38.9904 4.38956 38.9904C2.96945 38.9904 1.91858 40.0474 1.91858 41.5416C1.91858 42.9868 2.92543 44.0438 4.55714 44.0438C5.67192 44.0438 6.40328 43.5463 6.70434 42.7323H4.46056V41.031H8.67119V41.7602Z" fill="white"/>
<path d="M8.88419 44.9297C8.88419 44.7352 8.94116 44.545 9.04789 44.3832C9.15463 44.2215 9.30633 44.0954 9.48382 44.0209C9.66131 43.9465 9.85662 43.927 10.045 43.9649C10.2335 44.0029 10.4065 44.0966 10.5424 44.2342C10.6782 44.3717 10.7708 44.547 10.8082 44.7378C10.8457 44.9286 10.8265 45.1264 10.753 45.3061C10.6794 45.4859 10.5549 45.6395 10.3952 45.7476C10.2355 45.8557 10.0477 45.9134 9.85554 45.9134C9.59838 45.9118 9.35218 45.8077 9.17034 45.6236C8.9885 45.4394 8.88568 45.1901 8.88419 44.9297Z" fill="white"/>
<path d="M12.1575 43.0242V37.2719H14.0761V42.8588C14.0761 43.5031 14.3757 44.0496 15.3954 44.0496C16.415 44.0496 16.7147 43.5031 16.7147 42.8588V37.2661H18.6332V43.0185C18.6332 44.8405 17.2415 45.9335 15.3954 45.9335C13.5492 45.9335 12.1575 44.8448 12.1575 43.0242Z" fill="white"/>
<path d="M19.1544 44.9297C19.1544 44.7352 19.2114 44.545 19.3181 44.3832C19.4249 44.2215 19.5766 44.0954 19.754 44.0209C19.9315 43.9465 20.1269 43.927 20.3153 43.9649C20.5037 44.0029 20.6768 44.0966 20.8126 44.2342C20.9485 44.3717 21.041 44.547 21.0785 44.7378C21.1159 44.9286 21.0967 45.1264 21.0232 45.3061C20.9497 45.4859 20.8252 45.6395 20.6654 45.7476C20.5057 45.8557 20.3179 45.9134 20.1258 45.9134C19.8686 45.9118 19.6224 45.8077 19.4406 45.6236C19.2587 45.4394 19.1559 45.1901 19.1544 44.9297Z" fill="white"/>
<path d="M23.4446 41.5171C23.4446 39.0148 25.2794 37.0964 27.81 37.0964C28.5259 37.0854 29.2326 37.2604 29.8626 37.6049C30.4926 37.9493 31.0249 38.4516 31.4085 39.0637L29.7598 40.0359C29.3877 39.3801 28.6677 38.9918 27.8171 38.9918C26.3302 38.9918 25.3702 39.9985 25.3702 41.5186C25.3702 43.0386 26.3302 44.0453 27.8171 44.0453C28.6692 44.0453 29.4005 43.657 29.7598 43.0012L31.4085 43.9734C30.6885 45.1756 29.3451 45.9407 27.81 45.9407C25.2794 45.9392 23.4446 44.0194 23.4446 41.5171Z" fill="white"/>
<path d="M32.3075 41.5171C32.3075 40.6428 32.5635 39.7881 33.0432 39.0611C33.5228 38.3341 34.2046 37.7675 35.0023 37.4329C35.8 37.0983 36.6777 37.0108 37.5245 37.1814C38.3713 37.352 39.1492 37.773 39.7597 38.3912C40.3702 39.0095 40.786 39.7972 40.9544 40.6547C41.1228 41.5122 41.0364 42.4011 40.706 43.2088C40.3756 44.0166 39.8161 44.707 39.0982 45.1928C38.3803 45.6785 37.5363 45.9378 36.6729 45.9378C36.0982 45.9428 35.5284 45.8318 34.9965 45.6114C34.4646 45.391 33.9814 45.0656 33.5751 44.6541C33.1687 44.2426 32.8474 43.7533 32.6297 43.2147C32.4121 42.6761 32.3025 42.099 32.3075 41.5171ZM39.124 41.5171C39.124 39.9985 38.0447 38.9904 36.6771 38.9904C35.3096 38.9904 34.2303 39.9971 34.2303 41.5171C34.2303 43.0372 35.3096 44.0438 36.6771 44.0438C38.0447 44.0438 39.1197 43.0357 39.1197 41.5171H39.124Z" fill="white"/>
<path d="M48.954 37.2661V45.7681H47.5111L44.2733 41.1533V45.7681H42.3576V37.2661H43.7961L47.034 41.8809V37.2661H48.954Z" fill="white"/>
<path d="M50.0929 43.8367L51.7487 42.8645C52.0484 43.5692 52.5639 44.0423 53.5111 44.0423C54.4228 44.0423 54.6472 43.6785 54.6472 43.3506C54.6472 42.8286 54.1672 42.6215 52.9075 42.2691C51.6479 41.9168 50.4366 41.3099 50.4366 39.6806C50.4366 38.0512 51.8041 37.092 53.2555 37.092C54.6344 37.092 55.7137 37.7607 56.3257 39.0104L54.7068 39.9696C54.4228 39.3628 54.0238 38.986 53.2555 38.986C52.6562 38.986 52.3565 39.2894 52.3565 39.6303C52.3565 40.0185 52.561 40.286 53.8675 40.6873C55.1456 41.0755 56.5657 41.5257 56.5657 43.3233C56.5657 44.9627 55.2706 45.9348 53.4415 45.9348C51.6891 45.9391 50.5615 45.0878 50.0929 43.8367Z" fill="white"/>
<path d="M57.9489 43.0242V37.2719H59.8661V42.8588C59.8661 43.5031 60.1657 44.0496 61.1854 44.0496C62.205 44.0496 62.5046 43.5031 62.5046 42.8588V37.2661H64.4232V43.0185C64.4232 44.8405 63.0315 45.9335 61.1854 45.9335C59.3392 45.9335 57.9489 44.8448 57.9489 43.0242Z" fill="white"/>
<path d="M71.4414 43.8986V45.7681H66.5236V37.2661H68.4421V43.8971L71.4414 43.8986Z" fill="white"/>
<path d="M77.5578 39.1371H75.3992V45.7681H73.4806V39.1371H71.3221V37.2676H77.5592L77.5578 39.1371Z" fill="white"/>
<path d="M80.7956 37.2661V45.7681H78.8771V37.2661H80.7956Z" fill="white"/>
<path d="M89.072 37.2661V45.7681H87.6335L84.3956 41.1533V45.7681H82.4742V37.2661H83.9128L87.1506 41.8809V37.2661H89.072Z" fill="white"/>
<path d="M98.8225 41.7602C98.8225 44.3588 97.036 45.9378 94.6843 45.9378C92.0457 45.9378 90.1513 43.9705 90.1513 41.5286C90.1481 40.9434 90.2599 40.3634 90.4803 39.8224C90.7007 39.2814 91.0252 38.7903 91.435 38.3776C91.8448 37.9649 92.3315 37.639 92.867 37.4188C93.4024 37.1986 93.9758 37.0885 94.5536 37.095C96.1612 37.095 97.516 37.896 98.2232 39.0379L96.5915 39.9856C96.2436 39.4276 95.4881 38.9904 94.5409 38.9904C93.1208 38.9904 92.0699 40.0474 92.0699 41.5416C92.0699 42.9868 93.0767 44.0438 94.7084 44.0438C95.8232 44.0438 96.5546 43.5463 96.8556 42.7323H94.6133V41.031H98.8225V41.7602Z" fill="white"/>
<path d="M22.5257 56.249H21.4181L21.117 57.0975H20.7591L21.9023 53.9897H22.0656L23.2131 57.0975H22.8339L22.5257 56.249ZM21.5317 55.934H22.4164L22.0812 55.0036L21.9733 54.5405L21.8654 55.0122L21.5317 55.934Z" fill="white"/>
<path d="M26.3515 54.3607H25.0919V57.0931H24.734V54.04H26.3515V54.3607Z" fill="white"/>
<path d="M27.7716 54.04H29.4161V54.3636H28.1295V55.3703H29.3082V55.6938H28.1295V56.7724H29.4374V57.096H27.7716V54.04Z" fill="white"/>
<path d="M33.0118 55.6938H31.5605V57.096H31.2026V54.04H31.5605V55.3731H33.0118V54.04H33.3697V57.0989H33.0118V55.6938Z" fill="white"/>
<path d="M37.1756 54.3607H36.2355V57.0931H35.8776V54.3607H34.9375V54.04H37.177L37.1756 54.3607Z" fill="white"/>
<path d="M40.4688 56.9709C40.372 57.0441 40.2597 57.0933 40.1408 57.1147C40.0003 57.1417 39.8577 57.1547 39.7147 57.1536C39.5405 57.1551 39.3675 57.1234 39.2049 57.0601C39.0469 56.9975 38.905 56.8991 38.7902 56.7725C38.6628 56.6303 38.5661 56.4628 38.5062 56.2807C38.4327 56.0514 38.3977 55.8113 38.4026 55.5702C38.3965 55.3226 38.4355 55.0759 38.5176 54.8426C38.5835 54.6599 38.6866 54.4934 38.8201 54.3536C38.9402 54.2305 39.0857 54.1358 39.2461 54.0761C39.3978 54.0184 39.5584 53.9887 39.7204 53.9883C39.863 53.9861 40.0055 53.9958 40.1464 54.0171C40.2436 54.032 40.3388 54.0576 40.4305 54.0933L40.3438 54.4169C40.1572 54.3376 39.9553 54.3017 39.7531 54.3119C39.6336 54.3123 39.5153 54.3348 39.4037 54.3781C39.2858 54.4239 39.1802 54.4973 39.0956 54.5923C38.9973 54.7051 38.9233 54.8373 38.8783 54.9806C38.8191 55.1713 38.7912 55.3705 38.7959 55.5702C38.7926 55.7569 38.819 55.9429 38.874 56.121C38.9184 56.2654 38.9908 56.3994 39.087 56.5151C39.1743 56.6175 39.2836 56.6982 39.4066 56.7509C39.5329 56.8044 39.6687 56.8313 39.8056 56.83C39.9199 56.832 40.034 56.819 40.145 56.7912C40.2307 56.7695 40.313 56.7356 40.3893 56.6905L40.4688 56.9709Z" fill="white"/>
<path d="M43.951 54.3607H43.0108V57.0931H42.653V54.3607H41.7129V54.04H43.9524L43.951 54.3607Z" fill="white"/>
<path d="M47.3393 54.7376C47.339 54.8132 47.3275 54.8883 47.3052 54.9605C47.2821 55.0361 47.2471 55.1075 47.2016 55.1719C47.1531 55.2397 47.093 55.2982 47.0241 55.3445C46.9463 55.3967 46.8604 55.4351 46.7699 55.4581V55.4782C46.8554 55.4926 46.9389 55.5178 47.0184 55.553C47.0963 55.5872 47.1671 55.636 47.2271 55.6968C47.2879 55.7614 47.3361 55.837 47.3691 55.9197C47.4089 56.0182 47.4282 56.1239 47.426 56.2303C47.4297 56.3727 47.3964 56.5135 47.3294 56.6387C47.2678 56.7533 47.1808 56.8518 47.0752 56.9264C46.9653 57.0016 46.8432 57.0566 46.7145 57.0889C46.5789 57.1236 46.4396 57.141 46.2998 57.1406H46.1266C46.0603 57.1406 45.9912 57.1406 45.9192 57.1406C45.8473 57.1406 45.7753 57.1349 45.7034 57.1234C45.6392 57.1174 45.5755 57.1064 45.5131 57.0903V54.0645C45.6191 54.0473 45.7426 54.0329 45.8837 54.0214C46.0248 54.0099 46.1786 54.0042 46.3452 54.0042C46.4604 54.0044 46.5753 54.0141 46.6889 54.0329C46.8 54.0501 46.9073 54.0871 47.0056 54.1422C47.1011 54.1963 47.1821 54.2734 47.2413 54.3666C47.309 54.4779 47.3431 54.6069 47.3393 54.7376ZM46.101 55.3847H46.2785C46.3476 55.3847 46.4054 55.3804 46.4518 55.3718C46.519 55.3495 46.5841 55.3211 46.6463 55.2869C46.705 55.2548 46.7594 55.2151 46.8082 55.169C46.8552 55.1245 46.8933 55.0713 46.9204 55.0123C46.948 54.9514 46.9621 54.8851 46.9616 54.8181C46.9648 54.7351 46.9462 54.6527 46.9076 54.5794C46.8723 54.5207 46.8236 54.4714 46.7656 54.4356C46.7017 54.3966 46.6315 54.3693 46.5583 54.355C46.4802 54.3389 46.4008 54.3307 46.3211 54.3306C46.2264 54.3306 46.1393 54.3306 46.0598 54.3306C45.9998 54.3329 45.94 54.3397 45.8809 54.3507V55.3905L46.101 55.3847ZM46.3381 56.8228C46.4281 56.8229 46.5178 56.8118 46.6051 56.7897C46.6872 56.7697 46.7648 56.7341 46.8338 56.6848C46.8986 56.6383 46.9524 56.5779 46.9914 56.5079C47.0318 56.4314 47.0518 56.3457 47.0496 56.2591C47.0542 56.1582 47.0295 56.0582 46.9786 55.9715C46.9321 55.8993 46.868 55.8403 46.7926 55.8003C46.7121 55.7581 46.6252 55.7299 46.5355 55.7169C46.4415 55.7026 46.3466 55.6954 46.2515 55.6953H45.8766V56.7926C45.905 56.7996 45.934 56.804 45.9632 56.8055L46.0839 56.8142H46.2174L46.3381 56.8228Z" fill="white"/>
<path d="M49.0349 55.5672C49.0349 55.0572 49.1414 54.6661 49.3545 54.3938C49.4634 54.2576 49.6028 54.1496 49.761 54.0786C49.9193 54.0076 50.0919 53.9756 50.2647 53.9854C50.455 53.9806 50.6438 54.0194 50.8172 54.099C50.9698 54.1724 51.1024 54.2825 51.2034 54.4197C51.3107 54.5688 51.3879 54.7379 51.4306 54.9172C51.4818 55.1295 51.5066 55.3473 51.5045 55.5658C51.5045 56.0759 51.3975 56.467 51.1836 56.7393C51.0732 56.8758 50.9326 56.9839 50.7732 57.0549C50.6138 57.1259 50.44 57.1577 50.2662 57.1477C50.0782 57.1523 49.8917 57.1135 49.7208 57.0341C49.5693 56.9602 49.4377 56.8502 49.3374 56.7134C49.2301 56.5643 49.1528 56.3952 49.1102 56.2158C49.0585 56.0037 49.0332 55.7858 49.0349 55.5672ZM49.4141 55.5672C49.4134 55.7287 49.43 55.8898 49.4638 56.0476C49.4929 56.1885 49.5447 56.3235 49.6172 56.4474C49.683 56.5589 49.774 56.653 49.8827 56.722C49.998 56.792 50.1304 56.8274 50.2647 56.8241C50.3867 56.829 50.508 56.8035 50.6179 56.7499C50.7278 56.6962 50.8231 56.616 50.8953 56.5164C51.0477 56.3112 51.1239 55.9944 51.1239 55.5658C51.1245 55.4048 51.1078 55.2443 51.0742 55.0869C51.0457 54.9448 50.9933 54.8086 50.9194 54.6843C50.8525 54.5731 50.7611 54.4791 50.6524 54.4096C50.536 54.3388 50.4019 54.3034 50.2662 54.3075C50.145 54.3025 50.0246 54.3281 49.9155 54.3818C49.8065 54.4355 49.7123 54.5157 49.6413 54.6152C49.4908 54.8214 49.4155 55.1387 49.4155 55.5672H49.4141Z" fill="white"/>
<path d="M55.3842 55.5672C55.3842 55.0572 55.4907 54.6661 55.7038 54.3938C55.8127 54.2576 55.9521 54.1496 56.1103 54.0786C56.2686 54.0076 56.4412 53.9756 56.614 53.9854C56.8043 53.9806 56.9931 54.0195 57.1665 54.099C57.3191 54.1724 57.4517 54.2825 57.5527 54.4197C57.66 54.5688 57.7372 54.7379 57.78 54.9172C57.8311 55.1295 57.8559 55.3473 57.8538 55.5658C57.8538 56.0759 57.7468 56.467 57.5329 56.7393C57.4226 56.8758 57.282 56.9839 57.1225 57.0549C56.9631 57.1259 56.7893 57.1577 56.6155 57.1477C56.4275 57.1523 56.241 57.1135 56.0701 57.0341C55.918 56.9604 55.786 56.8504 55.6853 56.7134C55.578 56.5643 55.5008 56.3952 55.4581 56.2158C55.4068 56.0036 55.382 55.7857 55.3842 55.5672ZM55.7634 55.5672C55.7626 55.7287 55.7793 55.8898 55.8131 56.0476C55.8421 56.1885 55.894 56.3236 55.9665 56.4474C56.0323 56.5589 56.1233 56.653 56.232 56.722C56.3473 56.792 56.4797 56.8274 56.614 56.8241C56.736 56.829 56.8573 56.8035 56.9672 56.7499C57.0771 56.6962 57.1724 56.616 57.2446 56.5164C57.397 56.3112 57.4732 55.9944 57.4732 55.5658C57.4738 55.4048 57.4571 55.2443 57.4235 55.0869C57.395 54.9447 57.3426 54.8086 57.2687 54.6843C57.2018 54.5731 57.1104 54.4791 57.0017 54.4096C56.8853 54.3388 56.7512 54.3034 56.6155 54.3075C56.4946 54.3028 56.3744 54.3284 56.2656 54.3821C56.1568 54.4358 56.0629 54.5159 55.992 54.6152C55.8396 54.8214 55.7634 55.1387 55.7634 55.5672Z" fill="white"/>
<path d="M62.0601 57.6611H61.8145L61.7491 57.0974H59.5821V54.04H59.9399V56.7724H61.299V54.04H61.6568V56.7724H62.0587L62.0601 57.6611Z" fill="white"/>
<path d="M63.6691 54.04H65.3136V54.3636H64.027V55.3703H65.2057V55.6938H64.027V56.7724H65.3349V57.096H63.6691V54.04Z" fill="white"/>
<path d="M68.9136 55.6938H67.4636V57.096H67.1086V54.04H67.4665V55.3731H68.9164V54.04H69.2743V57.0989H68.9164L68.9136 55.6938Z" fill="white"/>
<path d="M71.6885 55.6809H71.4854V57.0974H71.1275V54.04H71.4854V55.4652L71.6799 55.4048L72.6939 54.0415H73.1086L72.0989 55.3573L71.9171 55.5011L72.1372 55.6766L73.2421 57.1017H72.7891L71.6885 55.6809Z" fill="white"/>
<path d="M76.7284 55.0251L76.754 54.6757H76.737L76.5509 55.0338L75.0925 57.096H74.8809V54.04H75.2388V56.1382L75.2033 56.4848H75.2203L75.4106 56.1267L76.869 54.0415H77.0806V57.1003H76.7228L76.7284 55.0251Z" fill="white"/>
<path d="M41.5467 3.7069V5.14499C41.5429 5.91594 41.237 6.65382 40.6961 7.19641C40.1552 7.73899 39.4237 8.04186 38.6624 8.03842H37.2423C36.572 8.03302 35.9211 8.26621 35.4033 8.69727C34.8855 9.12833 34.5337 9.72987 34.4092 10.3969C34.2837 11.0896 34.2191 11.7922 34.2161 12.4965C34.2127 13.2674 34.5117 14.0082 35.0475 14.5559C35.5833 15.1036 36.312 15.4134 37.0733 15.4172L45.9206 15.4575C46.6797 15.4568 47.4076 15.1516 47.9452 14.6089C48.4827 14.0661 48.7862 13.3299 48.7892 12.5612L48.829 3.60192C48.8309 2.83171 48.5309 2.09221 47.995 1.54571C47.459 0.999201 46.7309 0.690343 45.9703 0.686918C45.2759 0.68339 44.5825 0.742101 43.8984 0.862364C43.2397 0.983123 42.6437 1.33387 42.2141 1.85358C41.7844 2.3733 41.5482 3.02909 41.5467 3.7069Z" fill="#39B54A"/>
<path d="M37.2239 24.5981H38.644C39.4053 24.6019 40.134 24.9117 40.6698 25.4594C41.2056 26.0071 41.5046 26.7479 41.5012 27.5188V28.9569C41.4959 29.6357 41.7262 30.2948 42.1519 30.8192C42.5775 31.3436 43.1716 31.6999 43.8302 31.8259C44.5143 31.953 45.2081 32.0185 45.9036 32.0215C46.6632 32.0253 47.3933 31.7242 47.9342 31.1841C48.475 30.6439 48.7825 29.9088 48.7892 29.1396L48.829 20.1803C48.8324 19.4093 48.5333 18.6686 47.9975 18.1209C47.4617 17.5732 46.7331 17.2633 45.9717 17.2595L37.1245 17.2193C36.3632 17.2158 35.6317 17.5187 35.0908 18.0613C34.5499 18.6039 34.244 19.3417 34.2402 20.1127C34.2368 20.8159 34.2947 21.518 34.4135 22.2109C34.5316 22.8791 34.8776 23.4842 35.3913 23.9205C35.9049 24.3568 36.5535 24.5966 37.2239 24.5981Z" fill="#39B54A"/>
<path d="M57.7601 28.9901V27.552C57.7638 26.7811 58.0698 26.0432 58.6106 25.5006C59.1515 24.958 59.883 24.6552 60.6443 24.6586H62.0644C62.7347 24.664 63.3856 24.4308 63.9034 23.9998C64.4212 23.5687 64.7731 22.9672 64.8975 22.3002C65.023 21.6074 65.0877 20.9048 65.0907 20.2006C65.0941 19.4296 64.795 18.6888 64.2592 18.1411C63.7234 17.5934 62.9947 17.2836 62.2334 17.2798L53.3861 17.2395C52.6248 17.2361 51.8933 17.539 51.3524 18.0815C50.8116 18.6241 50.5056 19.362 50.5019 20.133L50.4621 29.0922C50.4604 29.4752 50.5335 29.8547 50.677 30.209C50.8206 30.5633 51.0318 30.8854 51.2986 31.1567C51.5654 31.4281 51.8825 31.6435 52.2318 31.7904C52.581 31.9374 52.9554 32.013 53.3336 32.013C54.028 32.0165 54.7213 31.9578 55.4055 31.8375C56.0651 31.7173 56.6622 31.3664 57.0925 30.846C57.5228 30.3257 57.759 29.6688 57.7601 28.9901Z" fill="#39B54A"/>
<path d="M62.0757 8.09604H60.6556C59.8943 8.09223 59.1657 7.78242 58.6299 7.23471C58.0941 6.68701 57.795 5.94624 57.7984 5.17529V3.7372C57.8037 3.05841 57.5734 2.3993 57.1478 1.87493C56.7221 1.35056 56.1281 0.994251 55.4694 0.868219C54.7853 0.741113 54.0915 0.675662 53.396 0.672636C52.6347 0.669195 51.9032 0.972062 51.3624 1.51465C50.8215 2.05723 50.5156 2.79511 50.5118 3.56607L50.472 12.5253C50.4717 13.2951 50.7727 14.0335 51.3091 14.5789C51.8455 15.1242 52.5735 15.4319 53.3336 15.4346L62.1808 15.4749C62.9422 15.4783 63.6736 15.1754 64.2145 14.6329C64.7554 14.0903 65.0613 13.3524 65.0651 12.5814C65.0685 11.8782 65.0106 11.1761 64.8918 10.4833C64.7735 9.81403 64.4267 9.20822 63.9119 8.77182C63.3971 8.33541 62.7471 8.0962 62.0757 8.09604Z" fill="#39B54A"/>
<path d="M99 50.9797H0.30249V51.1236H99V50.9797Z" fill="white"/>
</g>
<defs>
<clipPath id="clip0">
<rect width="99" height="57" fill="white" transform="translate(0 0.661133)"/>
</clipPath>
</defs>
</svg>
