<svg width="269" height="49" viewBox="0 0 269 49" fill="none" xmlns="http://www.w3.org/2000/svg">
<g clip-path="url(#clip0)">
<path d="M11.5903 4.75433V7.00924C11.5839 8.21279 11.1008 9.36456 10.2471 10.2114C9.39348 11.0582 8.23911 11.5307 7.03782 11.5251H4.78714C3.72902 11.5153 2.70119 11.8789 1.88371 12.5521C1.06622 13.2252 0.511194 14.1651 0.31583 15.207C0.11921 16.2888 0.0186534 17.386 0.0153385 18.4855C0.00974531 19.6891 0.4814 20.8456 1.32661 21.7009C2.17183 22.5561 3.32142 23.0402 4.52271 23.0465L18.4895 23.1098C19.6908 23.1154 20.8452 22.6428 21.6989 21.796C22.5525 20.9492 23.0356 19.7975 23.042 18.5939L23.1051 4.60079C23.1107 3.39724 22.639 2.24071 21.7938 1.38544C20.9486 0.530168 19.799 0.0461517 18.5977 0.0397798C17.502 0.0343347 16.408 0.126014 15.3284 0.313743C14.2835 0.495072 13.3358 1.03973 12.6521 1.85193C11.9684 2.66412 11.5924 3.69184 11.5903 4.75433Z" fill="#39B54A"/>
<path d="M4.78683 37.3881H7.03751C8.2388 37.3945 9.38841 37.8785 10.2336 38.7338C11.0788 39.589 11.5505 40.7456 11.5449 41.9491V44.204C11.5352 45.2641 11.898 46.2939 12.5699 47.1129C13.2418 47.9319 14.1799 48.488 15.2199 48.6838C16.2997 48.8807 17.3947 48.9815 18.4922 48.9848C19.6935 48.9904 20.8479 48.5179 21.7016 47.6711C22.5552 46.8243 23.0383 45.6725 23.0447 44.469L23.1078 30.4758C23.1134 29.2723 22.6417 28.1158 21.7965 27.2605C20.9513 26.4052 19.8017 25.9212 18.6004 25.9148L4.63358 25.8516C3.43228 25.846 2.27794 26.3186 1.42427 27.1654C0.570607 28.0122 0.0874906 29.1639 0.0811306 30.3675C0.0756958 31.4652 0.167203 32.5613 0.354579 33.643C0.535568 34.6899 1.07921 35.6393 1.88988 36.3243C2.70056 37.0093 3.72634 37.386 4.78683 37.3881Z" fill="#39B54A"/>
<path d="M37.1948 44.2466V41.9917C37.2012 40.7881 37.6843 39.6364 38.538 38.7896C39.3916 37.9428 40.546 37.4702 41.7473 37.4758H43.998C45.0561 37.4856 46.0839 37.122 46.9014 36.4489C47.7189 35.7757 48.2739 34.8358 48.4693 33.7939C48.6659 32.7121 48.7664 31.615 48.7698 30.5154C48.7754 29.3118 48.3037 28.1553 47.4585 27.3001C46.6133 26.4448 45.4637 25.9608 44.2624 25.9544L30.2956 25.8912C29.0943 25.8856 27.9399 26.3581 27.0862 27.2049C26.2326 28.0517 25.7495 29.2035 25.7431 30.407L25.68 44.4001C25.6744 45.6037 26.1461 46.7602 26.9913 47.6155C27.8365 48.4707 28.9861 48.9548 30.1874 48.9611C31.2831 48.9666 32.3771 48.8749 33.4567 48.6872C34.5016 48.5059 35.4493 47.9612 36.133 47.149C36.8167 46.3368 37.1927 45.3091 37.1948 44.2466Z" fill="#39B54A"/>
<path d="M44.01 11.6117H41.7593C41.1625 11.6102 40.5718 11.4905 40.0213 11.2595C39.4707 11.0286 38.9711 10.691 38.5512 10.2661C38.1312 9.84113 37.7992 9.33727 37.5742 8.78342C37.3492 8.22957 37.2356 7.63664 37.2399 7.03867V4.78376C37.2497 3.72364 36.8868 2.69389 36.2149 1.87486C35.543 1.05584 34.6049 0.499768 33.5649 0.304036C32.4852 0.107062 31.3901 0.00631586 30.2926 0.00297896C29.0913 -0.00262474 27.9369 0.469908 27.0833 1.31671C26.2296 2.16352 25.7465 3.31528 25.7401 4.51883L25.677 18.5119C25.6714 19.7155 26.1431 20.872 26.9883 21.7273C27.8335 22.5826 28.9831 23.0666 30.1844 23.073L44.1512 23.1362C45.3525 23.1418 46.5069 22.6692 47.3605 21.8224C48.2142 20.9756 48.6973 19.8239 48.7037 18.6203C48.7091 17.5225 48.6176 16.4264 48.4302 15.3448C48.2471 14.3022 47.7041 13.3571 46.8962 12.6748C46.0882 11.9924 45.0667 11.6162 44.01 11.6117Z" fill="#39B54A"/>
<path d="M77.8664 13.936C77.8664 19.3821 74.0862 22.6937 69.11 22.6937C63.5269 22.6937 59.5183 18.5752 59.5183 13.4633C59.5115 12.2382 59.7481 11.024 60.2145 9.89142C60.6808 8.75887 61.3675 7.73066 62.2346 6.86675C63.1016 6.00283 64.1317 5.32049 65.2646 4.8595C66.3976 4.39852 67.6108 4.16812 68.8336 4.18172C72.2352 4.18172 75.1018 5.8586 76.5983 8.24899L73.1456 10.233C72.4094 9.06486 70.8108 8.14965 68.8065 8.14965C65.8016 8.14965 63.578 10.3624 63.578 13.4904C63.578 16.516 65.7085 18.7288 69.1611 18.7288C71.52 18.7288 73.0675 17.6871 73.7046 15.9831H68.9598V12.4096H77.8664V13.936Z" fill="white"/>
<path d="M78.3321 20.5861C78.3321 20.1788 78.4527 19.7807 78.6785 19.442C78.9044 19.1034 79.2254 18.8395 79.6009 18.6836C79.9765 18.5277 80.3898 18.487 80.7885 18.5664C81.1872 18.6459 81.5534 18.842 81.8408 19.13C82.1283 19.418 82.324 19.7849 82.4033 20.1843C82.4827 20.5838 82.442 20.9978 82.2864 21.3741C82.1308 21.7504 81.8674 22.072 81.5294 22.2983C81.1914 22.5245 80.794 22.6453 80.3875 22.6453C79.8433 22.6422 79.3224 22.4242 78.9376 22.0387C78.5528 21.6532 78.3353 21.1312 78.3321 20.5861Z" fill="white"/>
<path d="M85.2434 16.5822V4.53988H89.3031V16.2359C89.3031 17.5847 89.9371 18.7287 92.0946 18.7287C94.2522 18.7287 94.8862 17.5847 94.8862 16.2359V4.52783H98.9458V16.5701C98.9458 20.3845 96.001 22.6725 92.0946 22.6725C88.1882 22.6725 85.2434 20.3935 85.2434 16.5822Z" fill="white"/>
<path d="M100.043 20.5861C100.043 20.1788 100.163 19.7807 100.389 19.442C100.615 19.1034 100.936 18.8395 101.311 18.6836C101.687 18.5277 102.1 18.487 102.499 18.5664C102.898 18.6459 103.264 18.842 103.551 19.13C103.839 19.418 104.035 19.7849 104.114 20.1843C104.193 20.5838 104.152 20.9978 103.997 21.3741C103.841 21.7504 103.578 22.072 103.24 22.2983C102.902 22.5245 102.505 22.6453 102.098 22.6453C101.554 22.6422 101.033 22.4242 100.648 22.0387C100.263 21.6532 100.046 21.1312 100.043 20.5861Z" fill="white"/>
<path d="M109.126 13.4274C109.126 8.189 113.009 4.17291 118.364 4.17291C119.878 4.14977 121.374 4.51622 122.707 5.23726C124.04 5.95831 125.166 7.00984 125.978 8.29136L122.477 10.3265C121.69 8.95369 120.167 8.14083 118.367 8.14083C115.22 8.14083 113.189 10.2482 113.189 13.4304C113.189 16.6126 115.22 18.72 118.367 18.72C120.17 18.72 121.717 17.9071 122.477 16.5343L125.978 18.5694C124.455 21.0802 121.615 22.6939 118.373 22.6939C113.009 22.6939 109.126 18.6658 109.126 13.4274Z" fill="white"/>
<path d="M127.88 13.427C127.883 11.5973 128.426 9.80934 129.443 8.2891C130.459 6.76886 131.902 5.58456 133.59 4.88587C135.278 4.18717 137.135 4.00545 138.926 4.36365C140.717 4.72185 142.361 5.60391 143.652 6.89835C144.943 8.19279 145.822 9.84151 146.177 11.6362C146.533 13.4308 146.35 15.2909 145.651 16.9813C144.952 18.6717 143.768 20.1165 142.25 21.1332C140.732 22.15 138.947 22.6929 137.12 22.6935C135.903 22.7044 134.696 22.4721 133.569 22.0101C132.443 21.5482 131.419 20.8659 130.559 20.0031C129.699 19.1403 129.019 18.1144 128.559 16.9853C128.099 15.8562 127.868 14.6465 127.88 13.427ZM142.304 13.427C142.304 10.2479 140.02 8.13745 137.126 8.13745C134.233 8.13745 131.949 10.2448 131.949 13.427C131.949 16.6092 134.233 18.7166 137.126 18.7166C140.02 18.7166 142.295 16.6062 142.295 13.427H142.304Z" fill="white"/>
<path d="M163.107 4.52783V22.3263H160.063L153.212 12.6654V22.3263H149.152V4.52783H152.196L159.047 14.1887V4.52783H163.107Z" fill="white"/>
<path d="M165.517 18.2831L169.02 16.248C169.655 17.7232 170.745 18.7137 172.753 18.7137C174.682 18.7137 175.156 17.952 175.156 17.2656C175.156 16.1727 174.141 15.7392 171.475 15.0016C168.81 14.264 166.247 12.9936 166.247 9.5826C166.247 6.17162 169.141 4.16357 172.212 4.16357C175.129 4.16357 177.413 5.56349 178.708 8.17967L175.283 10.1877C174.682 8.91725 173.837 8.12849 172.212 8.12849C170.944 8.12849 170.31 8.76372 170.31 9.47722C170.31 10.2901 170.742 10.85 173.507 11.69C176.211 12.5028 179.216 13.4452 179.216 17.2084C179.216 20.6404 176.476 22.6756 172.605 22.6756C168.891 22.6936 166.505 20.9023 165.517 18.2831Z" fill="white"/>
<path d="M182.137 16.5822V4.53988H186.197V16.2359C186.197 17.5847 186.831 18.7287 188.988 18.7287C191.146 18.7287 191.78 17.5847 191.78 16.2359V4.52783H195.839V16.5701C195.839 20.3845 192.895 22.6725 188.988 22.6725C185.082 22.6725 182.137 20.3935 182.137 16.5822Z" fill="white"/>
<path d="M210.687 18.4126V22.3263H200.281V4.52783H204.34V18.4096L210.687 18.4126Z" fill="white"/>
<path d="M223.632 8.4445H219.064V22.3262H215.005V8.4445H210.437V4.53076H223.635L223.632 8.4445Z" fill="white"/>
<path d="M230.483 4.52783V22.3263H226.423V4.52783H230.483Z" fill="white"/>
<path d="M247.993 4.52783V22.3263H244.949L238.097 12.6654V22.3263H234.038V4.52783H237.067L243.918 14.1887V4.52783H247.993Z" fill="white"/>
<path d="M268.618 13.9358C268.618 19.3759 264.838 22.6815 259.862 22.6815C254.279 22.6815 250.27 18.563 250.27 13.4511C250.263 12.226 250.5 11.0118 250.966 9.87921C251.433 8.74667 252.12 7.71847 252.987 6.85455C253.854 5.99064 254.884 5.30829 256.017 4.84731C257.15 4.38632 258.363 4.15591 259.586 4.16951C262.987 4.16951 265.854 5.8464 267.35 8.2368L263.898 10.2208C263.161 9.05266 261.563 8.13744 259.559 8.13744C256.554 8.13744 254.33 10.3502 254.33 13.4782C254.33 16.5038 256.46 18.7166 259.913 18.7166C262.272 18.7166 263.82 17.6749 264.457 15.9709H259.712V12.4094H268.618V13.9358Z" fill="white"/>
<path d="M64.813 44.2673H62.4812L61.8442 46.0435H61.0869L63.4969 39.5527H63.8424L66.2704 46.0586H65.4681L64.813 44.2673ZM62.7096 43.608H64.5846L63.8785 41.6601L63.6501 40.6907L63.4217 41.6782L62.7096 43.608Z" fill="white"/>
<path d="M72.9203 40.3146H70.2549V46.0347H69.4977V39.6372H72.9233L72.9203 40.3146Z" fill="white"/>
<path d="M75.9072 39.6372H79.3869V40.3146H76.6644V42.422H79.1585V43.0994H76.6644V45.3783H79.4319V46.0557H75.9072V39.6372Z" fill="white"/>
<path d="M87.0013 43.1054H83.9333V46.0407H83.1761V39.6372H83.9333V42.428H87.0013V39.6372H87.7585V46.0407H87.0013V43.1054Z" fill="white"/>
<path d="M95.8147 40.3146H93.8225V46.0347H93.0652V40.3146H91.076V39.6372H95.8147V40.3146Z" fill="white"/>
<path d="M102.78 45.7788C102.575 45.9319 102.338 46.035 102.086 46.0798C101.789 46.1362 101.487 46.1635 101.185 46.1611C100.816 46.1644 100.45 46.098 100.106 45.9654C99.7713 45.8343 99.4711 45.6284 99.2283 45.3633C98.9586 45.0657 98.7539 44.7151 98.6273 44.3337C98.4718 43.8537 98.3976 43.351 98.408 42.8465C98.3952 42.328 98.4777 41.8117 98.6514 41.3231C98.7909 40.9408 99.0089 40.5921 99.2914 40.2995C99.5457 40.0419 99.8535 39.8435 100.193 39.7185C100.514 39.5978 100.854 39.5356 101.197 39.5348C101.498 39.5302 101.8 39.5503 102.098 39.5951C102.304 39.6263 102.505 39.6798 102.699 39.7546L102.516 40.432C102.121 40.266 101.693 40.1909 101.266 40.2122C101.013 40.2131 100.762 40.26 100.526 40.3507C100.277 40.4466 100.053 40.6003 99.8744 40.7993C99.6665 41.0354 99.5099 41.3122 99.4146 41.6121C99.2893 42.0112 99.2304 42.4282 99.2403 42.8465C99.2334 43.2372 99.2892 43.6265 99.4056 43.9995C99.4994 44.3019 99.6527 44.5823 99.8563 44.8244C100.041 45.0387 100.272 45.2076 100.532 45.3181C100.8 45.4301 101.087 45.4864 101.377 45.4837C101.619 45.4879 101.86 45.4606 102.095 45.4024C102.276 45.357 102.45 45.2861 102.612 45.1917L102.78 45.7788Z" fill="white"/>
<path d="M110.151 40.3146H108.156V46.0347H107.399V40.3146H105.409V39.6372H110.148L110.151 40.3146Z" fill="white"/>
<path d="M117.318 41.1033C117.317 41.2616 117.293 41.4188 117.246 41.5699C117.197 41.7282 117.123 41.8776 117.026 42.0125C116.924 42.1544 116.797 42.2768 116.651 42.3737C116.486 42.483 116.304 42.5635 116.113 42.6116V42.6477C116.294 42.6779 116.471 42.7305 116.639 42.8042C116.804 42.8759 116.953 42.978 117.081 43.1053C117.209 43.2406 117.311 43.3989 117.381 43.5719C117.464 43.7784 117.504 43.9997 117.498 44.2222C117.506 44.5202 117.436 44.8151 117.294 45.0772C117.164 45.317 116.979 45.5232 116.756 45.6793C116.524 45.8369 116.265 45.9521 115.993 46.0195C115.706 46.0922 115.411 46.1286 115.115 46.1279H114.767C114.626 46.1279 114.48 46.1279 114.328 46.1279C114.176 46.1279 114.023 46.1159 113.871 46.0918C113.735 46.0793 113.601 46.0561 113.469 46.0225V39.6943C113.693 39.6582 113.954 39.6281 114.253 39.604C114.551 39.5799 114.877 39.5679 115.229 39.5679C115.473 39.5685 115.716 39.5886 115.957 39.6281C116.192 39.664 116.419 39.7415 116.627 39.8569C116.829 39.9702 117 40.1315 117.126 40.3265C117.264 40.5613 117.33 40.8311 117.318 41.1033ZM114.698 42.458H115.073C115.219 42.458 115.342 42.449 115.44 42.4309C115.582 42.3842 115.72 42.3248 115.851 42.2533C115.976 42.186 116.091 42.103 116.194 42.0064C116.293 41.9133 116.374 41.8019 116.431 41.6783C116.49 41.5509 116.52 41.4121 116.519 41.2719C116.525 41.0981 116.486 40.9256 116.404 40.7721C116.33 40.6492 116.227 40.546 116.104 40.471C115.969 40.3894 115.82 40.3323 115.665 40.3025C115.5 40.2686 115.332 40.2514 115.163 40.2513C114.963 40.2513 114.779 40.2513 114.61 40.2513C114.483 40.2562 114.357 40.2703 114.232 40.2934V42.4701L114.698 42.458ZM115.199 45.4686C115.39 45.4688 115.58 45.4456 115.764 45.3993C115.938 45.3574 116.102 45.2828 116.248 45.1796C116.385 45.0824 116.499 44.9559 116.582 44.8093C116.667 44.6493 116.71 44.4698 116.705 44.2884C116.715 44.0773 116.662 43.868 116.555 43.6863C116.456 43.5352 116.321 43.4118 116.161 43.3281C115.991 43.2396 115.807 43.1806 115.617 43.1535C115.418 43.1235 115.217 43.1084 115.016 43.1083H114.223V45.4054C114.283 45.4201 114.344 45.4292 114.406 45.4325L114.662 45.4505H114.944L115.199 45.4686Z" fill="white"/>
<path d="M120.909 42.8406C120.909 41.7728 121.134 40.954 121.585 40.384C121.815 40.0989 122.11 39.8727 122.445 39.7241C122.78 39.5755 123.145 39.5086 123.511 39.529C123.914 39.519 124.313 39.6003 124.68 39.7668C125.003 39.9205 125.283 40.151 125.497 40.4382C125.724 40.7504 125.888 41.1044 125.978 41.4798C126.086 41.9241 126.139 42.3802 126.134 42.8376C126.134 43.9053 125.908 44.7242 125.455 45.2942C125.222 45.5799 124.924 45.8063 124.587 45.9549C124.25 46.1035 123.882 46.1701 123.514 46.1492C123.116 46.1589 122.722 46.0776 122.36 45.9114C122.039 45.7568 121.761 45.5264 121.549 45.24C121.322 44.9279 121.158 44.5739 121.068 44.1984C120.959 43.7542 120.905 43.2981 120.909 42.8406ZM121.711 42.8406C121.71 43.1786 121.745 43.5158 121.816 43.8461C121.878 44.1411 121.987 44.4239 122.141 44.6831C122.28 44.9165 122.473 45.1136 122.703 45.2581C122.946 45.4045 123.227 45.4786 123.511 45.4718C123.769 45.482 124.026 45.4287 124.258 45.3163C124.491 45.204 124.692 45.0362 124.845 44.8276C125.168 44.3981 125.329 43.7347 125.329 42.8376C125.33 42.5006 125.295 42.1645 125.224 41.8351C125.163 41.5374 125.053 41.2524 124.896 40.9921C124.755 40.7583 124.562 40.5605 124.331 40.4141C124.085 40.266 123.801 40.1918 123.514 40.2003C123.258 40.1905 123.004 40.2442 122.774 40.3566C122.544 40.469 122.345 40.6366 122.195 40.8446C121.872 41.2781 121.711 41.9434 121.711 42.8406Z" fill="white"/>
<path d="M134.341 42.8406C134.341 41.7728 134.566 40.954 135.017 40.384C135.247 40.0989 135.542 39.8727 135.877 39.7241C136.212 39.5755 136.577 39.5086 136.943 39.529C137.346 39.519 137.745 39.6003 138.112 39.7668C138.435 39.9204 138.716 40.1509 138.929 40.4382C139.156 40.7504 139.32 41.1043 139.41 41.4798C139.518 41.9241 139.571 42.3802 139.566 42.8376C139.566 43.9053 139.34 44.7242 138.887 45.2942C138.654 45.5799 138.356 45.8063 138.019 45.9549C137.682 46.1035 137.314 46.1701 136.946 46.1492C136.548 46.1589 136.154 46.0776 135.792 45.9114C135.471 45.7568 135.193 45.5264 134.981 45.24C134.754 44.9279 134.59 44.5739 134.5 44.1984C134.391 43.7542 134.337 43.2981 134.341 42.8406ZM135.143 42.8406C135.141 43.1786 135.177 43.5158 135.248 43.8461C135.31 44.1411 135.419 44.4238 135.573 44.6831C135.712 44.9165 135.905 45.1136 136.135 45.2581C136.378 45.4045 136.659 45.4786 136.943 45.4718C137.201 45.482 137.458 45.4287 137.69 45.3163C137.923 45.204 138.124 45.0362 138.277 44.8276C138.6 44.3981 138.761 43.7347 138.761 42.8376C138.762 42.5006 138.727 42.1645 138.656 41.8351C138.595 41.5375 138.485 41.2524 138.328 40.9921C138.187 40.7583 137.994 40.5605 137.763 40.4141C137.517 40.266 137.233 40.1918 136.946 40.2003C136.69 40.1905 136.436 40.2442 136.206 40.3566C135.976 40.469 135.777 40.6366 135.627 40.8446C135.306 41.2781 135.145 41.9434 135.143 42.8406Z" fill="white"/>
<path d="M148.467 47.2238H147.947L147.809 46.0437H143.226V39.6372H143.983V45.3573H146.859V39.6372H147.616V45.3573H148.467V47.2238Z" fill="white"/>
<path d="M151.874 39.6372H155.354V40.3146H152.629V42.422H155.123V43.0994H152.629V45.3783H155.396V46.0557H151.871L151.874 39.6372Z" fill="white"/>
<path d="M162.969 43.1054H159.901V46.0407H159.143V39.6372H159.901V42.428H162.969V39.6372H163.726V46.0407H162.969V43.1054Z" fill="white"/>
<path d="M168.855 43.0783H168.425V46.0437H167.653V39.6372H168.41V42.6207L168.822 42.4942L170.968 39.6402H171.86L169.724 42.3949L169.339 42.6959L169.805 43.0632L172.143 46.0467H171.184L168.855 43.0783Z" fill="white"/>
<path d="M179.508 41.7055L179.562 40.9739H179.526L179.132 41.7235L176.046 46.0407H175.598V39.6372H176.367V44.0296L176.304 44.7522H176.34L176.743 44.0025L179.829 39.6372H180.274V46.0407H179.517L179.508 41.7055Z" fill="white"/>
<path d="M269 33.2368H60.1584V33.5379H269V33.2368Z" fill="white"/>
</g>
<defs>
<clipPath id="clip0">
<rect width="269" height="49" fill="white"/>
</clipPath>
</defs>
</svg>
