<svg width="87" height="87" viewBox="0 0 87 87" fill="none" xmlns="http://www.w3.org/2000/svg">
<g clip-path="url(#clip0)">
<path d="M79.8257 15.9834H51.2302L52.1233 4.37277C52.1833 3.59283 51.5466 2.90617 50.7651 2.90617H36.2349C35.4534 2.90617 34.8167 3.593 34.8767 4.37277L35.7698 15.9834H7.1742C3.21842 15.9834 -7.42187e-05 19.2017 -7.42187e-05 23.1576V66.7484C-7.42187e-05 67.5008 0.609775 68.1106 1.36219 68.1106C2.11443 68.1106 2.72445 67.501 2.72445 66.7484V30.3319H66.7485C67.5007 30.3319 68.1107 29.7222 68.1107 28.9696C68.1107 28.2171 67.5009 27.6074 66.7485 27.6074H2.72428V23.1575C2.72428 20.7036 4.72053 18.7076 7.1742 18.7076H35.9792L36.3296 23.262C36.3843 23.9716 36.9759 24.5197 37.6877 24.5197H49.3119C50.0237 24.5197 50.6154 23.9716 50.6701 23.262L51.0205 18.7076H79.8255C82.2792 18.7076 84.2754 20.7036 84.2754 23.1575V27.6074H74.0133C73.2611 27.6074 72.651 28.2171 72.651 28.9696C72.651 29.7222 73.2609 30.3319 74.0133 30.3319H84.2754V81.3695H2.72428V74.0136C2.72428 73.2611 2.11443 72.6513 1.36202 72.6513C0.609775 72.6513 -0.000244141 73.261 -0.000244141 74.0136V82.7318C-0.000244141 83.4842 0.609605 84.094 1.36202 84.094H85.6377C86.3899 84.094 86.9999 83.4843 86.9999 82.7318V23.1576C86.9999 19.2017 83.7814 15.9834 79.8257 15.9834ZM48.0506 21.7954H38.9494L37.7059 5.63036H49.2943L48.0506 21.7954Z" fill="black"/>
<path d="M21.7047 33.4196C16.1464 33.4196 11.6243 37.9415 11.6243 43.5C11.6243 49.0585 16.1462 53.5804 21.7047 53.5804C27.2632 53.5804 31.7852 49.0585 31.7852 43.5C31.7852 37.9415 27.263 33.4196 21.7047 33.4196ZM21.7047 50.8559C17.6485 50.8559 14.3488 47.556 14.3488 43.5C14.3488 39.444 17.6487 36.1441 21.7047 36.1441C25.7607 36.1441 29.0606 39.444 29.0606 43.5C29.0606 47.556 25.7607 50.8559 21.7047 50.8559Z" fill="black"/>
<path d="M28.9698 53.7621H14.4394C10.4835 53.7621 7.26514 56.9806 7.26514 60.9364V76.9197C7.26514 77.6721 7.87499 78.282 8.6274 78.282H34.7819C35.5342 78.282 36.1442 77.6723 36.1442 76.9197V60.9364C36.144 56.9804 32.9255 53.7621 28.9698 53.7621ZM33.4195 75.5575H9.98949V60.9364C9.98949 58.4825 11.9857 56.4865 14.4394 56.4865H28.9696C31.4233 56.4865 33.4195 58.4825 33.4195 60.9364V75.5575Z" fill="black"/>
<path d="M78.3728 49.4029H63.8426C63.0904 49.4029 62.4803 50.0126 62.4803 50.7652C62.4803 51.5176 63.0902 52.1274 63.8426 52.1274H78.3728C79.125 52.1274 79.7351 51.5178 79.7351 50.7652C79.7349 50.0126 79.125 49.4029 78.3728 49.4029Z" fill="black"/>
<path d="M78.3727 61.0271H43.5C42.7477 61.0271 42.1377 61.6368 42.1377 62.3894C42.1377 63.1418 42.7475 63.7516 43.5 63.7516H78.3727C79.1249 63.7516 79.7349 63.1419 79.7349 62.3894C79.7348 61.6369 79.1249 61.0271 78.3727 61.0271Z" fill="black"/>
<path d="M63.8423 72.6513H43.5C42.7477 72.6513 42.1377 73.261 42.1377 74.0136C42.1377 74.766 42.7475 75.3758 43.5 75.3758H63.8423C64.5946 75.3758 65.2046 74.7661 65.2046 74.0136C65.2046 73.2611 64.5946 72.6513 63.8423 72.6513Z" fill="black"/>
<path d="M58.0301 49.4029H43.5C42.7477 49.4029 42.1377 50.0126 42.1377 50.7652C42.1377 51.5176 42.7475 52.1274 43.5 52.1274H58.0301C58.7824 52.1274 59.3924 51.5178 59.3924 50.7652C59.3924 50.0126 58.7826 49.4029 58.0301 49.4029Z" fill="black"/>
<path d="M43.5 7.26517C41.1464 7.26517 39.2317 9.17985 39.2317 11.5334C39.2317 13.887 41.1464 15.8017 43.5 15.8017C45.8536 15.8017 47.7682 13.887 47.7682 11.5334C47.7682 9.17985 45.8536 7.26517 43.5 7.26517ZM43.5 13.0772C42.6487 13.0772 41.9561 12.3846 41.9561 11.5333C41.9561 10.682 42.6487 9.98935 43.5 9.98935C44.3513 9.98935 45.0439 10.682 45.0439 11.5333C45.0439 12.3847 44.3513 13.0772 43.5 13.0772Z" fill="black"/>
<path d="M78.3727 33.4196H43.5C42.7477 33.4196 42.1377 34.0292 42.1377 34.7818V40.594C42.1377 41.3464 42.7475 41.9563 43.5 41.9563H78.3727C79.1249 41.9563 79.7349 41.3466 79.7349 40.594V34.7818C79.7348 34.0294 79.1249 33.4196 78.3727 33.4196ZM77.0104 39.2317H44.8622V36.1441H77.0104V39.2317Z" fill="black"/>
</g>
<defs>
<clipPath id="clip0">
<rect width="87" height="87" fill="white"/>
</clipPath>
</defs>
</svg>
