<svg width="80" height="80" viewBox="0 0 80 80" fill="none" xmlns="http://www.w3.org/2000/svg">
<path d="M28.028 38.636C25 35.216 20.9627 33.3333 16.6574 33.3333C12.352 33.3333 8.31469 35.216 5.28803 38.636C-0.861308 45.584 -0.861308 56.8867 5.28803 63.8347L16.6574 76.6787L28.0267 63.8347C34.1774 56.8867 34.1774 45.584 28.028 38.636ZM26.0307 62.0667L16.6587 72.6547L7.28536 62.0667C1.99736 56.0947 1.99736 46.376 7.28536 40.404C9.79869 37.564 13.128 36 16.6574 36C20.1867 36 23.5174 37.564 26.0294 40.404C31.3174 46.376 31.3174 56.0933 26.0307 62.0667Z" fill="black"/>
<path d="M64.996 32.676L73.6146 22.9613C78.2519 17.7347 78.2519 9.23333 73.6146 4.00667C71.3213 1.42267 68.2599 0 64.9946 0C61.7306 0 58.6693 1.42267 56.3759 4.00667C51.7386 9.23333 51.7386 17.7347 56.3759 22.9613L64.996 32.676ZM58.3706 5.77733C60.1506 3.77067 62.5026 2.66667 64.9946 2.66667C67.4879 2.66667 69.8399 3.77067 71.6199 5.77733C75.3906 10.0267 75.3906 16.9413 71.6199 21.1907L64.996 28.6587L58.3706 21.1907C54.5999 16.9413 54.5999 10.0267 58.3706 5.77733Z" fill="black"/>
<path d="M70.1387 72.6893C69.42 72.528 68.7067 72.9787 68.5454 73.6973C68.392 74.3773 68.0947 75.0027 67.6614 75.5533C67.2067 76.132 67.3054 76.9707 67.8854 77.4253C68.1307 77.6173 68.42 77.7107 68.708 77.7107C69.104 77.7107 69.4947 77.536 69.7574 77.2013C70.4294 76.348 70.9094 75.34 71.1467 74.284C71.308 73.564 70.8574 72.8507 70.1387 72.6893Z" fill="black"/>
<path d="M42.6601 41.3333C42.0828 41.332 41.5214 41.2293 40.9908 41.0267C40.3081 40.7667 39.5334 41.1093 39.2694 41.7973C39.0081 42.4853 39.3534 43.256 40.0401 43.5187C40.8748 43.836 41.7534 43.9987 42.6574 44H43.1334C43.8708 44 44.4668 43.404 44.4668 42.6667C44.4668 41.9293 43.8708 41.3333 43.1334 41.3333H42.6601Z" fill="black"/>
<path d="M39.4948 32.9013C39.7361 32.9013 39.9788 32.836 40.1988 32.7C40.7894 32.332 41.4428 32.1067 42.1374 32.0293C42.8694 31.948 43.3974 31.2893 43.3174 30.5573C43.2374 29.8253 42.5828 29.3027 41.8454 29.3773C40.7494 29.4987 39.7201 29.8533 38.7868 30.436C38.1614 30.8253 37.9721 31.648 38.3614 32.2733C38.6148 32.6787 39.0494 32.9013 39.4948 32.9013Z" fill="black"/>
<path d="M24.0852 77.3333H21.4185C20.6812 77.3333 20.0852 77.9293 20.0852 78.6667C20.0852 79.404 20.6812 80 21.4185 80H24.0852C24.8225 80 25.4185 79.404 25.4185 78.6667C25.4185 77.9293 24.8212 77.3333 24.0852 77.3333Z" fill="black"/>
<path d="M47.9906 53.3333C47.8759 53.3333 47.7626 53.336 47.6493 53.3413C46.9133 53.3707 46.3426 53.992 46.3719 54.728C46.3999 55.4453 46.9919 56.0067 47.7026 56.0067C47.7213 56.0067 47.7399 56.0067 47.7586 56.0053L50.3706 56C51.1079 56 51.7039 55.404 51.7039 54.6667C51.7039 53.9293 51.1079 53.3333 50.3706 53.3333H47.9906Z" fill="black"/>
<path d="M47.3241 32H49.9907C50.7281 32 51.3241 31.404 51.3241 30.6667C51.3241 29.9293 50.7281 29.3333 49.9907 29.3333H47.3241C46.5867 29.3333 45.9907 29.9293 45.9907 30.6667C45.9907 31.404 46.5867 32 47.3241 32Z" fill="black"/>
<path d="M63.7039 53.3333C62.9666 53.3333 62.3706 53.9293 62.3706 54.6667C62.3706 55.404 62.9666 56 63.7039 56H66.3706C67.1079 56 67.7039 55.404 67.7039 54.6667C67.7039 53.9293 67.1079 53.3333 66.3706 53.3333H63.7039Z" fill="black"/>
<path d="M68.4681 42.6667C68.4681 41.9293 67.8721 41.3333 67.1348 41.3333H64.4681C63.7308 41.3333 63.1348 41.9293 63.1348 42.6667C63.1348 43.404 63.7308 44 64.4681 44H67.1348C67.8708 44 68.4681 43.404 68.4681 42.6667Z" fill="black"/>
<path d="M55.7039 56H58.3706C59.1079 56 59.7039 55.404 59.7039 54.6667C59.7039 53.9293 59.1079 53.3333 58.3706 53.3333H55.7039C54.9666 53.3333 54.3706 53.9293 54.3706 54.6667C54.3706 55.404 54.9679 56 55.7039 56Z" fill="black"/>
<path d="M57.9907 32C58.7281 32 59.3241 31.404 59.3241 30.6667C59.3241 29.9293 58.7281 29.3333 57.9907 29.3333H55.3241C54.5867 29.3333 53.9907 29.9293 53.9907 30.6667C53.9907 31.404 54.5867 32 55.3241 32H57.9907Z" fill="black"/>
<path d="M48.4681 41.3333C47.7308 41.3333 47.1348 41.9293 47.1348 42.6667C47.1348 43.404 47.7308 44 48.4681 44H51.1348C51.8721 44 52.4681 43.404 52.4681 42.6667C52.4681 41.9293 51.8721 41.3333 51.1348 41.3333H48.4681Z" fill="black"/>
<path d="M60.4681 42.6667C60.4681 41.9293 59.8721 41.3333 59.1348 41.3333H56.4681C55.7308 41.3333 55.1348 41.9293 55.1348 42.6667C55.1348 43.404 55.7308 44 56.4681 44H59.1348C59.8708 44 60.4681 43.404 60.4681 42.6667Z" fill="black"/>
<path d="M79.2348 47.5093C79.1174 46.7813 78.4308 46.284 77.7068 46.404C76.9788 46.52 76.4841 47.2053 76.6014 47.932C76.6388 48.1693 76.6601 48.4107 76.6574 48.668C76.6574 49.116 76.5934 49.5587 76.4681 49.9853C76.2614 50.692 76.6654 51.4333 77.3734 51.64C77.4988 51.676 77.6241 51.6933 77.7481 51.6933C78.3254 51.6933 78.8574 51.3173 79.0281 50.7347C79.2241 50.064 79.3241 49.3693 79.3241 48.6773C79.3268 48.2933 79.2974 47.9 79.2348 47.5093Z" fill="black"/>
<path d="M56.0852 77.3333H53.4185C52.6812 77.3333 52.0852 77.9293 52.0852 78.6667C52.0852 79.404 52.6812 80 53.4185 80H56.0852C56.8225 80 57.4185 79.404 57.4185 78.6667C57.4185 77.9293 56.8212 77.3333 56.0852 77.3333Z" fill="black"/>
<path d="M48.0852 77.3333H45.4185C44.6812 77.3333 44.0852 77.9293 44.0852 78.6667C44.0852 79.404 44.6812 80 45.4185 80H48.0852C48.8225 80 49.4185 79.404 49.4185 78.6667C49.4185 77.9293 48.8212 77.3333 48.0852 77.3333Z" fill="black"/>
<path d="M62.7535 66.6667C62.7535 65.9293 62.1575 65.3333 61.4202 65.3333H58.7535C58.0162 65.3333 57.4202 65.9293 57.4202 66.6667C57.4202 67.404 58.0162 68 58.7535 68H61.4202C62.1562 68 62.7535 67.404 62.7535 66.6667Z" fill="black"/>
<path d="M54.7535 66.6667C54.7535 65.9293 54.1575 65.3333 53.4202 65.3333H50.7535C50.0162 65.3333 49.4202 65.9293 49.4202 66.6667C49.4202 67.404 50.0162 68 50.7535 68H53.4202C54.1562 68 54.7535 67.404 54.7535 66.6667Z" fill="black"/>
<path d="M63.9907 77.3333H61.4173C60.68 77.3333 60.084 77.9293 60.084 78.6667C60.084 79.404 60.68 80 61.4173 80L64.0453 79.9987L64.084 78.6653V79.9987C64.8213 79.9987 65.3707 79.4027 65.3707 78.6653C65.3707 77.9293 64.728 77.3333 63.9907 77.3333Z" fill="black"/>
<path d="M68.7079 70.292C68.9959 70.292 69.2879 70.1987 69.5306 70.0067C70.1106 69.5507 70.2093 68.712 69.7546 68.1347C69.0839 67.2827 68.2186 66.5787 67.2493 66.0973C66.5866 65.768 65.7893 66.0387 65.4613 66.6973C65.1333 67.3573 65.4026 68.1573 66.0613 68.4853C66.6786 68.7907 67.2306 69.24 67.6573 69.784C67.9213 70.1173 68.3119 70.292 68.7079 70.292Z" fill="black"/>
<path d="M73.7933 52.972C73.2213 53.212 72.6159 53.3333 71.9906 53.3333H71.7039C70.9666 53.3333 70.3706 53.9293 70.3706 54.6667C70.3706 55.404 70.9666 56 71.7039 56H71.9906C72.9719 56 73.9253 55.808 74.8239 55.4307C75.5039 55.1453 75.8226 54.364 75.5373 53.6853C75.2533 53.0067 74.4666 52.6867 73.7933 52.972Z" fill="black"/>
<path d="M37.372 39.8067C38.0706 39.576 38.452 38.8227 38.2226 38.1227C38.0693 37.6547 37.9906 37.1653 37.9906 36.672C37.992 36.4707 38.004 36.2693 38.028 36.0733C38.12 35.3427 37.6026 34.6747 36.872 34.584C36.1186 34.5 35.4733 35.012 35.3826 35.74C35.3453 36.0413 35.3253 36.348 35.324 36.6653C35.324 37.4493 35.4466 38.22 35.688 38.956C35.8733 39.5173 36.3946 39.8733 36.9546 39.8733C37.0933 39.8733 37.2346 39.8533 37.372 39.8067Z" fill="black"/>
<path d="M32.0852 77.3333H29.4185C28.6812 77.3333 28.0852 77.9293 28.0852 78.6667C28.0852 79.404 28.6812 80 29.4185 80H32.0852C32.8225 80 33.4185 79.404 33.4185 78.6667C33.4185 77.9293 32.8212 77.3333 32.0852 77.3333Z" fill="black"/>
<path d="M45.4959 67.4587C46.0026 67.4587 46.4852 67.1693 46.7092 66.68C47.0146 66.0093 46.7212 65.2187 46.0519 64.9133C45.4266 64.6267 44.8599 64.196 44.4146 63.6653C43.9399 63.1013 43.0999 63.028 42.5359 63.5027C41.9719 63.976 41.8986 64.8173 42.3732 65.3813C43.0719 66.212 43.9599 66.8893 44.9426 67.3373C45.1226 67.4187 45.3106 67.4587 45.4959 67.4587Z" fill="black"/>
<path d="M75.6613 42.3173C74.7093 41.7653 73.6693 41.4413 72.572 41.3547C71.84 41.3013 71.196 41.844 71.1386 42.58C71.0813 43.3147 71.6293 43.956 72.364 44.0133C73.06 44.068 73.72 44.2733 74.324 44.624C74.5346 44.7467 74.7653 44.804 74.992 44.804C75.452 44.804 75.9 44.5653 76.1466 44.14C76.516 43.504 76.2986 42.688 75.6613 42.3173Z" fill="black"/>
<path d="M40.0852 77.3333H37.4185C36.6812 77.3333 36.0852 77.9293 36.0852 78.6667C36.0852 79.404 36.6812 80 37.4185 80H40.0852C40.8225 80 41.4185 79.404 41.4185 78.6667C41.4185 77.9293 40.8212 77.3333 40.0852 77.3333Z" fill="black"/>
<path d="M43.4068 59.7853C43.5388 59.1 43.8161 58.4667 44.2321 57.9013C44.6681 57.3093 44.5415 56.4747 43.9481 56.0373C43.3548 55.6027 42.5215 55.728 42.0841 56.3213C41.4321 57.2093 40.9948 58.2053 40.7868 59.284C40.6481 60.0067 41.1215 60.7053 41.8455 60.8453C41.9295 60.8613 42.0148 60.8693 42.0975 60.8693C42.7241 60.8667 43.2828 60.4227 43.4068 59.7853Z" fill="black"/>
<path d="M65.3241 20C69.3667 20 72.6574 16.7093 72.6574 12.6667C72.6574 8.62399 69.3667 5.33333 65.3241 5.33333C61.2814 5.33333 57.9907 8.62399 57.9907 12.6667C57.9907 16.7093 61.2814 20 65.3241 20ZM65.3241 7.99999C67.8974 7.99999 69.9907 10.0933 69.9907 12.6667C69.9907 15.24 67.8974 17.3333 65.3241 17.3333C62.7507 17.3333 60.6574 15.24 60.6574 12.6667C60.6574 10.0933 62.7521 7.99999 65.3241 7.99999Z" fill="black"/>
<path d="M16.6575 41.3333C12.2455 41.3333 8.65747 44.9213 8.65747 49.3333C8.65747 53.7453 12.2455 57.3333 16.6575 57.3333C21.0695 57.3333 24.6575 53.7453 24.6575 49.3333C24.6575 44.9213 21.0695 41.3333 16.6575 41.3333ZM16.6575 54.6667C13.7161 54.6667 11.3241 52.2747 11.3241 49.3333C11.3241 46.392 13.7161 44 16.6575 44C19.5988 44 21.9908 46.392 21.9908 49.3333C21.9908 52.2747 19.5988 54.6667 16.6575 54.6667Z" fill="black"/>
</svg>
