<svg width="80" height="80" viewBox="0 0 80 80" fill="none" xmlns="http://www.w3.org/2000/svg">
<g clip-path="url(#clip0)">
<path d="M40.2739 0C33.9807 0 28.8794 5.10128 28.8794 11.3945C28.8794 17.6876 33.9807 22.7889 40.2739 22.7889C46.567 22.7889 51.6683 17.6876 51.6683 11.3945C51.6613 5.10449 46.5638 0.00707172 40.2739 0ZM40.2739 20.4848C35.2536 20.4848 31.1835 16.4147 31.1835 11.3945C31.1835 6.37419 35.2536 2.30409 40.2739 2.30409C45.2941 2.30409 49.3642 6.37419 49.3642 11.3945C49.3584 16.4122 45.2916 20.4784 40.2739 20.4848Z" fill="black"/>
<path d="M43.4086 8.25975C42.9585 7.80974 42.2295 7.80974 41.7795 8.25975L40.2739 9.76539L38.7682 8.25975C38.3182 7.80974 37.5886 7.80974 37.1385 8.25975C36.6885 8.70913 36.6885 9.4388 37.1385 9.88882L38.6442 11.3945L37.1385 12.9001C36.6885 13.3501 36.6885 14.0798 37.1385 14.5298C37.5886 14.9798 38.3182 14.9798 38.7682 14.5298L40.2739 13.0242L41.7795 14.5298C42.2295 14.9798 42.9585 14.9798 43.4086 14.5298C43.8586 14.0798 43.8586 13.3501 43.4086 12.9001L41.9029 11.3945L43.4086 9.88882C43.8586 9.4388 43.8586 8.70913 43.4086 8.25975Z" fill="black"/>
<path d="M12.891 0C6.59786 0 1.49658 5.10128 1.49658 11.3945C1.49658 17.687 6.59786 22.7889 12.891 22.7889C19.1836 22.7889 24.2855 17.6876 24.2855 11.3945C24.2784 5.10449 19.181 0.00707172 12.891 0ZM12.891 20.4848C7.87077 20.4848 3.80067 16.4147 3.80067 11.3945C3.80067 6.37419 7.87012 2.30409 12.891 2.30409C17.9113 2.30409 21.9814 6.37419 21.9814 11.3945C21.975 16.4122 17.9087 20.4784 12.891 20.4848Z" fill="black"/>
<path d="M15.9534 8.24241L11.7728 12.0714L9.89682 10.0367C9.46545 9.56932 8.73642 9.53975 8.26904 9.97112C7.80102 10.4025 7.77145 11.1315 8.20283 11.5989L10.8579 14.4777C11.288 14.9445 12.0151 14.9747 12.4831 14.5465L17.5098 9.94155C17.9791 9.5121 18.0113 8.78308 17.5812 8.31377C17.1518 7.84447 16.4227 7.81297 15.9534 8.24241Z" fill="black"/>
<path d="M67.0617 0C60.7685 0 55.6672 5.10128 55.6672 11.3945C55.6672 17.6876 60.7685 22.7889 67.0617 22.7889C73.3542 22.7889 78.4562 17.6876 78.4562 11.3945C78.4491 5.10449 73.3517 0.00707172 67.0617 0ZM67.0617 20.4848C62.0414 20.4848 57.9713 16.4147 57.9713 11.3945C57.9713 6.37419 62.0414 2.30409 67.0617 2.30409C72.082 2.30409 76.1521 6.37419 76.1521 11.3945C76.1456 16.4122 72.0794 20.4784 67.0617 20.4848Z" fill="black"/>
<path d="M70.1242 8.24241L65.9442 12.0714L64.0676 10.0367C63.6362 9.56932 62.9072 9.53975 62.4398 9.97112C61.9718 10.4025 61.9429 11.1315 62.3743 11.5989L65.0287 14.4777C65.4595 14.9445 66.1859 14.9747 66.6539 14.5465L71.6806 9.94155C72.15 9.5121 72.1821 8.78308 71.752 8.31377C71.3226 7.84447 70.5935 7.81297 70.1242 8.24241Z" fill="black"/>
<path d="M12.8446 37.5836C15.3885 37.5804 17.4502 35.5193 17.4528 32.9754V31.4061C17.4502 28.8622 15.3885 26.8011 12.8446 26.7979H12.689C10.1451 26.8011 8.08402 28.8622 8.08081 31.4061V32.9754C8.08402 35.5193 10.1451 37.5804 12.689 37.5836H12.8446ZM10.3855 32.9754V31.4061C10.3868 30.1345 11.4174 29.1033 12.6896 29.102H12.8446C14.1168 29.1033 15.1474 30.1345 15.1487 31.4061V32.9754C15.1474 34.247 14.1168 35.2782 12.8446 35.2795H12.689C11.4174 35.2782 10.3862 34.247 10.3849 32.9754H10.3855Z" fill="black"/>
<path d="M17.9967 38.5826H16.1362C15.843 38.5826 15.5608 38.6945 15.3473 38.8957L12.905 41.1869L10.563 38.9086C10.3483 38.6996 10.0596 38.5826 9.76005 38.5826H7.78511C6.43185 38.5826 5.14094 39.1509 4.22676 40.1487C3.31258 41.1471 2.85999 42.483 2.97956 43.8305V54.6393C2.97956 56.3513 4.36755 57.7393 6.07955 57.7399H6.11619C6.42799 57.7367 6.73786 57.6846 7.03423 57.5862L7.52346 76.8522C7.56653 78.1039 8.32321 79.2193 9.46883 79.7239C10.6151 80.2279 11.9484 80.0319 12.9005 79.2186C13.8546 80.0325 15.1905 80.2273 16.3374 79.7201C17.4836 79.2128 18.2384 78.0929 18.277 76.8393L18.7656 57.5965C19.7087 57.8935 20.736 57.7238 21.5332 57.1388C22.3303 56.5544 22.8016 55.6255 22.8016 54.6373V43.8311C22.9205 42.483 22.4679 41.1471 21.5544 40.1493C20.6408 39.1509 19.3499 38.5826 17.9967 38.5826ZM15.0137 77.695C14.4827 77.6943 14.0532 77.2642 14.0526 76.7339V57.1388H11.7485V76.7332C11.7466 77.254 11.3306 77.6783 10.8105 77.6911C10.2904 77.704 9.85391 77.3002 9.82691 76.7802L9.27146 54.8868H16.529L15.9742 76.7686C15.9568 77.2861 15.5319 77.6969 15.0137 77.695ZM20.5033 43.6601C20.4994 43.6987 20.4968 43.7379 20.4968 43.7765V54.6373C20.4968 55.0784 20.1394 55.4364 19.6984 55.4364C19.2567 55.4364 18.8993 55.0784 18.8993 54.6373V52.339L18.9102 51.9019H18.8993V47.367H16.5952V52.3056L16.5881 52.582H9.21296L9.19431 51.8434H9.18274V47.367H6.87865V54.5833C6.88636 55.0327 6.53921 55.4075 6.09047 55.4352C5.87704 55.4352 5.67132 55.3516 5.51831 55.2018C5.36852 55.0526 5.2843 54.8501 5.2843 54.6386V43.7765C5.2843 43.7379 5.28237 43.6987 5.27851 43.6601C5.20651 42.951 5.43859 42.2451 5.91625 41.7167C6.39392 41.1882 7.07344 40.8867 7.78576 40.8867H9.29203L12.0873 43.6055C12.0924 43.6106 12.0982 43.6145 12.104 43.619C12.1387 43.6518 12.1754 43.6826 12.2139 43.7109C12.2165 43.7128 12.2184 43.7154 12.221 43.7173C12.2634 43.7469 12.3072 43.7739 12.3528 43.7977C12.3618 43.8022 12.3702 43.8067 12.3792 43.8106C12.4216 43.8318 12.4647 43.8504 12.509 43.8658L12.5199 43.8703C12.5675 43.8864 12.6157 43.8993 12.6646 43.9083C12.6755 43.9108 12.6865 43.9121 12.6974 43.9141C12.7405 43.9218 12.7842 43.9269 12.8279 43.9295C12.8343 43.9295 12.8407 43.9308 12.8478 43.9308C12.8967 43.9327 12.9455 43.9308 12.9938 43.9263C13.006 43.9256 13.0182 43.9237 13.0298 43.9224C13.0773 43.9173 13.1243 43.9089 13.1705 43.8973L13.1783 43.8961C13.2284 43.8826 13.2779 43.8665 13.3261 43.8466C13.3306 43.8446 13.3351 43.8433 13.3396 43.8421C13.3441 43.8401 13.3493 43.8369 13.3538 43.8343C13.4476 43.7938 13.5351 43.7405 13.6148 43.6762C13.6251 43.6672 13.636 43.6582 13.6463 43.6485C13.6572 43.6395 13.6694 43.6305 13.6791 43.6203L16.5926 40.8874H17.9973C18.709 40.8874 19.3885 41.1889 19.8662 41.7173C20.3432 42.2458 20.5753 42.9517 20.5033 43.6601Z" fill="black"/>
<path d="M67.0165 37.5836C69.5603 37.5804 71.6214 35.5193 71.6246 32.9754V31.4061C71.6214 28.8622 69.5603 26.8011 67.0165 26.7979H66.8609C64.317 26.8011 62.2553 28.8622 62.2527 31.4061V32.9754C62.2553 35.5193 64.317 37.5804 66.8609 37.5836H67.0165ZM64.5568 32.9754V31.4061C64.5581 30.1345 65.5886 29.1033 66.8609 29.102H67.0165C68.2881 29.1033 69.3193 30.1345 69.3205 31.4061V32.9754C69.3193 34.247 68.2881 35.2782 67.0165 35.2795H66.8609C65.5886 35.2782 64.5574 34.2477 64.5561 32.9754H64.5568Z" fill="black"/>
<path d="M72.1671 38.5826H70.3066C70.0135 38.5826 69.7319 38.6945 69.5184 38.8957L67.0755 41.1876L64.7341 38.9099C64.5188 38.7003 64.2307 38.5833 63.9305 38.5833H61.9556C60.6023 38.5833 59.3114 39.1516 58.3972 40.1493C57.4837 41.1477 57.0311 42.4836 57.15 43.8311V54.6393C57.1507 56.3513 58.538 57.7392 60.25 57.7405H60.2867C60.5985 57.7367 60.9083 57.6852 61.2047 57.5869L61.6939 76.8528C61.7376 78.1038 62.4937 79.2192 63.6399 79.7233C64.7855 80.2279 66.1189 80.0312 67.071 79.2186C68.025 80.0325 69.3609 80.2273 70.5078 79.7201C71.6541 79.2128 72.4088 78.0929 72.4474 76.8393L72.936 57.5965C73.8791 57.8935 74.9064 57.7238 75.7036 57.1388C76.5008 56.5544 76.972 55.6255 76.972 54.6373V43.8311C77.091 42.483 76.6384 41.1471 75.7248 40.1493C74.8113 39.1516 73.5204 38.5826 72.1671 38.5826ZM69.1841 77.695C68.6538 77.6943 68.2237 77.2642 68.223 76.7339V57.1388H65.9189V76.7332C65.9189 77.2552 65.503 77.6815 64.981 77.6943C64.4596 77.7072 64.0231 77.3015 63.998 76.7802L63.4419 54.8861H70.6994L70.1446 76.7686C70.1279 77.2861 69.7023 77.6969 69.1841 77.695ZM74.6737 43.6601C74.6699 43.6987 74.6679 43.7379 74.6679 43.7765V54.6373C74.6615 55.0739 74.3053 55.4249 73.8688 55.4249C73.4317 55.4249 73.0755 55.0739 73.0697 54.6373V52.339L73.0807 51.9025H73.0697V47.3676H70.7656V52.3062L70.7586 52.5827H63.3834L63.3641 51.844H63.3532V47.367H61.0491V54.584C61.0568 55.0327 60.7097 55.4082 60.2609 55.4358C60.0469 55.4364 59.8411 55.3522 59.6888 55.2018C59.5383 55.0533 59.4541 54.8501 59.4548 54.6386V43.7765C59.4548 43.7379 59.4528 43.6993 59.449 43.6601C59.377 42.9517 59.6091 42.2458 60.0867 41.7167C60.5644 41.1882 61.2439 40.8867 61.9562 40.8874H63.4625L66.2577 43.6061C66.2629 43.6113 66.2687 43.6145 66.2745 43.6196C66.3092 43.6524 66.3452 43.6826 66.3838 43.7109C66.3863 43.7128 66.3889 43.7154 66.3921 43.7173C66.4339 43.7469 66.4776 43.7739 66.5226 43.7977C66.5316 43.8022 66.5406 43.8067 66.5496 43.8112C66.5914 43.8324 66.6345 43.8504 66.6788 43.8658L66.6911 43.871C66.738 43.8864 66.7856 43.8993 66.8344 43.9089C66.8453 43.9115 66.8569 43.9128 66.8685 43.9153C66.9116 43.9224 66.9546 43.9276 66.9983 43.9301C67.0048 43.9301 67.0118 43.9314 67.0189 43.9314C67.0678 43.9333 67.116 43.9314 67.1649 43.9269C67.1764 43.9263 67.1886 43.9243 67.2002 43.9231C67.2478 43.9173 67.2947 43.9089 67.3416 43.898C67.3442 43.898 67.3461 43.898 67.3487 43.8961C67.3989 43.8832 67.4484 43.8665 67.4966 43.8472C67.5011 43.8453 67.5056 43.844 67.5101 43.8427C67.5146 43.8408 67.5191 43.8376 67.5236 43.8356C67.6174 43.7945 67.7055 43.7411 67.7846 43.6768C67.7955 43.6678 67.8058 43.6588 67.8167 43.6498C67.827 43.6402 67.8392 43.6312 67.8495 43.6209L70.7624 40.888H72.1671C72.8794 40.888 73.5583 41.1895 74.036 41.718C74.5136 42.2464 74.7457 42.9523 74.6744 43.6608L74.6737 43.6601Z" fill="black"/>
<path d="M40.2277 37.5836C42.7716 37.5804 44.8334 35.5193 44.8359 32.9754V31.4061C44.8334 28.8622 42.7716 26.8011 40.2277 26.7979H40.0728C37.5289 26.8011 35.4672 28.8622 35.4646 31.4061V32.9754C35.4672 35.5193 37.5289 37.5804 40.0728 37.5836H40.2277ZM37.7687 32.9754V31.4061C37.77 30.1345 38.8005 29.1033 40.0728 29.102H40.2277C41.5 29.1033 42.5305 30.1345 42.5318 31.4061V32.9754C42.5305 34.247 41.5 35.2782 40.2277 35.2795H40.0728C38.8005 35.2782 37.77 34.247 37.7687 32.9754Z" fill="black"/>
<path d="M45.3796 38.5826H43.5191C43.226 38.5826 42.9444 38.6945 42.7303 38.8957L40.2886 41.1869L37.9473 38.9086C37.7319 38.6996 37.4439 38.5826 37.1437 38.5826H35.1687C33.8154 38.5826 32.5245 39.1509 31.611 40.1487C30.6968 41.1471 30.2442 42.483 30.3632 43.8305V54.6393C30.3638 56.3513 31.7512 57.7393 33.4632 57.7399H33.4998C33.8116 57.7367 34.1215 57.6846 34.4178 57.5862L34.9071 76.8522C34.9508 78.1026 35.7068 79.2186 36.8524 79.7226C37.998 80.2273 39.3314 80.0312 40.2835 79.2186C41.2369 80.0325 42.5734 80.2273 43.7197 79.7201C44.8666 79.2128 45.6207 78.0929 45.6599 76.8393L46.1485 57.5965C47.0916 57.8935 48.1189 57.7238 48.9161 57.1388C49.7133 56.5544 50.1839 55.6255 50.1839 54.6373V43.8305C50.3035 42.483 49.8509 41.1471 48.9373 40.1493C48.0238 39.1509 46.7329 38.5826 45.3796 38.5826ZM42.3966 77.695C41.8663 77.6943 41.4362 77.2643 41.4355 76.7339V57.1388H39.1314V76.7332C39.1295 77.254 38.7142 77.6783 38.1935 77.6911C37.6734 77.704 37.2375 77.3003 37.2099 76.7802L36.6544 54.8861H43.9119L43.3571 76.7679C43.3404 77.2861 42.9148 77.6963 42.3966 77.695ZM47.8862 43.6601C47.8824 43.6987 47.8798 43.7379 47.8798 43.7765V54.6373C47.8798 55.0784 47.5223 55.4364 47.0813 55.4364C46.6397 55.4364 46.2822 55.0784 46.2822 54.6373V52.339L46.2932 51.9019H46.2822V47.367H43.9781V52.3056L43.9711 52.5827H36.5959L36.5773 51.8434H36.5663V47.367H34.2623V54.584C34.2693 55.0327 33.9222 55.4082 33.4741 55.4352C33.2594 55.4364 33.0536 55.3522 32.9013 55.2018C32.7515 55.0533 32.6673 54.8501 32.6673 54.6386V43.7765C32.6673 43.7379 32.6653 43.6993 32.6615 43.6601C32.5901 42.9517 32.8216 42.2458 33.2992 41.7167C33.7775 41.1882 34.4564 40.8867 35.1687 40.8867H36.675L39.4709 43.6061C39.4754 43.6106 39.4812 43.6145 39.487 43.619C39.5217 43.6524 39.559 43.6833 39.5975 43.7115L39.6046 43.7173C39.6464 43.7469 39.6908 43.7739 39.7364 43.7977C39.7448 43.8022 39.7525 43.8067 39.7621 43.8106C39.8045 43.8324 39.8483 43.8511 39.8933 43.8665C39.8965 43.8678 39.8997 43.8697 39.9035 43.8703C39.9505 43.8864 39.9987 43.8993 40.0482 43.9089C40.0591 43.9108 40.0701 43.9128 40.081 43.9147C40.1247 43.9218 40.1684 43.9269 40.2128 43.9295C40.2192 43.9295 40.225 43.9308 40.2321 43.9308C40.2809 43.9327 40.3298 43.9308 40.3786 43.9263C40.3902 43.9256 40.4018 43.9237 40.4134 43.9224C40.4616 43.9173 40.5085 43.9083 40.5554 43.8967L40.5619 43.8954C40.612 43.8826 40.6615 43.8652 40.7097 43.8453C40.7142 43.844 40.7187 43.8427 40.7226 43.8414C40.7264 43.8395 40.7309 43.8363 40.7354 43.8343C40.8299 43.7932 40.918 43.7398 40.9977 43.6749C41.008 43.6665 41.0189 43.6575 41.0286 43.6485C41.0389 43.6395 41.0517 43.6299 41.0627 43.6196L43.9756 40.8867H45.3803C46.0926 40.8867 46.7715 41.1882 47.2491 41.7167C47.7268 42.2451 47.9582 42.9517 47.8869 43.6601H47.8862Z" fill="black"/>
</g>
<defs>
<clipPath id="clip0">
<rect width="80" height="80" fill="white"/>
</clipPath>
</defs>
</svg>
