<svg width="386" height="594" viewBox="0 0 386 594" fill="none" xmlns="http://www.w3.org/2000/svg">
<g style="mix-blend-mode:overlay" opacity="0.2">
<path d="M5.68357 -132.32L-14.6582 -112.241C-25.5733 -101.581 -40.3481 -95.6527 -55.7349 -95.7599C-71.1218 -95.8671 -85.8613 -102.001 -96.7135 -112.813L-117.14 -132.976C-126.656 -142.542 -139.264 -148.513 -152.756 -149.842C-166.248 -151.171 -179.764 -147.774 -190.936 -140.247C-202.48 -132.375 -213.29 -123.506 -223.239 -113.745C-234.147 -103.077 -240.3 -88.5537 -240.344 -73.3658C-240.389 -58.1779 -234.322 -43.5691 -223.476 -32.7504L-97.2862 92.9368C-86.4341 103.749 -71.6944 109.882 -56.3076 109.99C-40.9208 110.097 -26.146 104.169 -15.231 93.5085L111.575 -30.5299C122.483 -41.197 128.636 -55.7209 128.68 -70.9088C128.725 -86.0967 122.658 -100.705 111.813 -111.524C101.917 -121.389 91.1607 -130.374 79.6691 -138.374C68.5496 -146.12 55.0354 -149.76 41.5033 -148.653C27.9711 -147.546 15.2876 -141.762 5.68357 -132.32Z" fill="white"/>
</g>
<g style="mix-blend-mode:overlay" opacity="0.2">
<path d="M-118.211 448.1L-98.0094 428.16C-87.1695 417.574 -72.4664 411.717 -57.1325 411.876C-41.7985 412.035 -27.0885 418.198 -16.236 429.01L4.19077 449.173C13.7068 458.738 26.2921 464.731 39.7421 466.102C53.1921 467.473 66.6493 464.134 77.7568 456.67C89.2327 448.866 99.9742 440.064 109.855 430.37C120.688 419.778 126.768 405.325 126.759 390.19C126.75 375.055 120.653 360.476 109.808 349.657L-16.3867 223.974C-27.2392 213.163 -41.9494 207 -57.2833 206.84C-72.6173 206.681 -87.3202 212.538 -98.1601 223.124L-224.092 346.3C-234.925 356.893 -241.006 371.346 -240.997 386.481C-240.988 401.616 -234.891 416.195 -224.045 427.013C-214.149 436.878 -203.399 445.868 -191.919 453.88C-180.811 461.637 -167.33 465.311 -153.849 464.254C-140.367 463.197 -127.748 457.477 -118.211 448.1Z" fill="white"/>
</g>
<g style="mix-blend-mode:overlay" opacity="0.2">
<path d="M238.171 219.38L217.688 199.162C212.27 193.786 207.972 187.417 205.039 180.421C202.106 173.425 200.597 165.938 200.598 158.392C200.599 150.847 202.111 143.389 205.046 136.45C207.981 129.51 212.281 123.224 217.7 117.953L237.987 97.9284C247.613 88.6015 253.575 76.1973 254.828 62.8882C256.082 49.5792 252.548 36.2141 244.844 25.1336C236.789 13.6847 227.73 2.95285 217.772 -6.93594C206.89 -17.7771 192.133 -23.9504 176.746 -24.0991C161.359 -24.2478 146.6 -18.3596 135.715 -7.72875L9.25113 115.969C-1.62756 126.607 -7.74016 141.114 -7.74266 156.302C-7.74515 171.489 -1.63741 186.115 9.23771 196.963L135.776 322.99C146.658 333.831 161.414 340.005 176.802 340.153C192.189 340.302 206.948 334.414 217.833 323.783C227.759 314.083 236.787 303.527 244.813 292.239C252.526 281.334 256.087 268.064 254.873 254.747C253.659 241.43 247.747 228.912 238.171 219.38Z" fill="white"/>
</g>
</svg>
