<svg width="83" height="83" viewBox="0 0 83 83" fill="none" xmlns="http://www.w3.org/2000/svg">
<path d="M76.8348 37.6103C76.8348 35.4739 76.1039 33.5064 74.8816 31.9401V18.6053C76.6843 18.0563 78 16.378 78 14.3976C78 11.9727 76.0277 10 73.6035 10C71.1792 10 69.207 11.9727 69.207 14.3976C69.207 16.378 70.5227 18.0561 72.3254 18.6053V29.6792C70.9425 28.8522 69.3271 28.3753 67.602 28.3753C65.9397 28.3753 64.3803 28.8191 63.0315 29.5913V18.6053C64.8342 18.0563 66.1499 16.378 66.1499 14.3976C66.1499 11.9727 64.1776 10 61.7534 10C59.3291 10 57.3569 11.9727 57.3569 14.3976C57.3569 16.378 58.6726 18.0561 60.4753 18.6053V31.7455C59.1601 33.3415 58.3691 35.3852 58.3691 37.6103V50.4727C56.9091 47.2465 54.8462 44.2753 52.2365 41.6961C46.6526 36.1775 39.2709 33.1383 31.4513 33.1383C25.137 33.1383 19.2008 35.5979 14.7359 40.0638C10.2711 44.5297 7.81218 50.4676 7.81218 56.7832C7.81218 63.209 10.9894 68.9063 15.8547 72.3867L5.54062 79.6775C5.08592 79.9989 4.8915 80.5776 5.06006 81.1086C5.22862 81.6393 5.72136 82 6.27816 82H59.2134C64.8041 82 69.2089 80.4137 72.3054 77.2852C76.8465 72.6973 76.8374 66.5034 76.8347 66.2547L76.8348 37.6103ZM71.7632 14.3976C71.7632 13.3825 72.5888 12.5568 73.6035 12.5568C74.6183 12.5568 75.4438 13.3825 75.4438 14.3976C75.4438 15.4127 74.6181 16.2384 73.6035 16.2384C72.5888 16.2385 71.7632 15.4127 71.7632 14.3976ZM59.9132 14.3976C59.9132 13.3825 60.7387 12.5568 61.7535 12.5568C62.7682 12.5568 63.5939 13.3825 63.5939 14.3976C63.5939 15.4127 62.7682 16.2384 61.7535 16.2384C60.7387 16.2385 59.9132 15.4127 59.9132 14.3976ZM10.3687 56.7832C10.3687 51.1504 12.5616 45.8547 16.5437 41.8716C20.5257 37.8888 25.8202 35.6952 31.4516 35.6952C45.9752 35.6952 57.8492 47.1537 58.3527 61.4296L41.2822 66.5644C42.1096 64.6624 42.5687 62.5649 42.5687 60.3619C42.5687 53.3425 36.8595 47.6319 29.8418 47.6319C27.0539 47.6319 24.4329 48.7178 22.4616 50.6895C20.4903 52.6613 19.4047 55.283 19.4047 58.0714C19.4047 62.8178 23.265 66.6791 28.0099 66.6791C31.9469 66.679 35.1498 63.4751 35.1498 59.5374C35.1498 56.2459 32.4727 53.5681 29.1823 53.5681C27.8388 53.5681 26.5757 54.0913 25.6257 55.0417C24.6757 55.992 24.1525 57.2555 24.1526 58.5991C24.1526 60.9592 26.0723 62.8795 28.4317 62.8795C29.1375 62.8795 29.7098 62.3071 29.7098 61.6011C29.7098 60.8951 29.1375 60.3227 28.4317 60.3227C27.4817 60.3227 26.7088 59.5494 26.7088 58.5989C26.7087 57.9382 26.9659 57.317 27.4331 56.8496C27.9004 56.3823 28.5216 56.1249 29.1823 56.1249C31.0634 56.1249 32.5936 57.6557 32.5936 59.5374C32.5936 62.0655 30.5372 64.1221 28.0098 64.1223C24.6744 64.1223 21.9607 61.4078 21.9607 58.0714C21.9607 55.9658 22.7804 53.9864 24.269 52.4974C25.7575 51.0087 27.7366 50.1886 29.8417 50.1886C35.4498 50.1886 40.0123 54.7522 40.0123 60.3618C40.0123 67.5501 34.1658 73.3982 26.9793 73.3982C17.8202 73.3982 10.3687 65.9447 10.3687 56.7832ZM70.4687 75.5067C67.8705 78.1186 64.0837 79.443 59.2134 79.443H10.3015L18.0446 73.9697C18.1054 73.9269 18.1601 73.8787 18.2108 73.8279C20.8399 75.1868 23.8215 75.9552 26.9793 75.9552C32.0353 75.9552 36.5374 73.5346 39.3874 69.7917C39.4448 69.7827 39.5023 69.7696 39.5594 69.7524L60.0153 63.5995C60.5556 63.437 60.9253 62.9395 60.9253 62.3752V37.6103C60.9253 33.928 63.9205 30.9321 67.602 30.9321C71.2835 30.9321 74.2786 33.928 74.2786 37.6103L74.2788 66.2643C74.2789 66.318 74.2621 71.6932 70.4687 75.5067Z" fill="black"/>
</svg>
