<svg width="90" height="90" viewBox="0 0 90 90" fill="none" xmlns="http://www.w3.org/2000/svg">
<g clip-path="url(#clip0)">
<path d="M75.0626 10.5219H62.9436V10.428C62.9436 7.9933 60.9629 6.0126 58.5281 6.0126H52.2875C51.6275 2.59154 48.6109 0 45 0C41.3893 0 38.3725 2.59154 37.7125 6.0126H31.4719C29.0371 6.0126 27.0564 7.9933 27.0564 10.428V10.5219H14.9374C12.5026 10.5219 10.5219 12.5026 10.5219 14.9374V63.0376C10.5219 63.8158 11.1528 64.4469 11.9311 64.4469C12.7095 64.4469 13.3404 63.816 13.3404 63.0376V14.9374C13.3404 14.0567 14.0569 13.3402 14.9375 13.3402H18.0378V81.0751C18.0378 81.8532 18.6687 82.4843 19.447 82.4843H70.5533C71.3317 82.4843 71.9625 81.8534 71.9625 81.0751V28.4655C71.9625 27.6873 71.3318 27.0562 70.5533 27.0562C69.775 27.0562 69.1441 27.6871 69.1441 28.4655V79.6658H20.8559V13.3402H27.0564V16.4405C27.0564 17.2187 27.6873 17.8497 28.4657 17.8497H61.5345C62.3129 17.8497 62.9437 17.2188 62.9437 16.4405V13.3402H69.1441V20.9498C69.1441 21.728 69.7748 22.359 70.5533 22.359C71.3317 22.359 71.9625 21.7281 71.9625 20.9498V13.3402H75.0628C75.9435 13.3402 76.66 14.0567 76.66 14.9374V85.5846C76.66 86.4652 75.9435 87.1817 75.0628 87.1817H14.9374C14.0567 87.1817 13.3402 86.4652 13.3402 85.5846V70.5533C13.3402 69.7751 12.7093 69.1441 11.931 69.1441C11.1526 69.1441 10.5217 69.775 10.5217 70.5533V85.5847C10.5217 88.0195 12.5024 90.0002 14.9372 90.0002H75.0625C77.4972 90.0002 79.4779 88.0195 79.4779 85.5847V14.9374C79.4781 12.5026 77.4974 10.5219 75.0626 10.5219ZM60.1253 15.0312H29.8747V10.428C29.8747 9.54738 30.5912 8.8309 31.4719 8.8309H38.9876C39.7658 8.8309 40.3968 8.20002 40.3968 7.42166C40.3968 4.88338 42.4619 2.8183 45.0002 2.8183C47.5386 2.8183 49.6035 4.88338 49.6035 7.42166C49.6035 8.19984 50.2342 8.8309 51.0128 8.8309H58.5285C59.4091 8.8309 60.1256 9.54738 60.1256 10.428V15.0312H60.1253Z" fill="black"/>
<path d="M45.0001 4.50928C44.2219 4.50928 43.5908 5.14016 43.5908 5.91852V7.42162C43.5908 8.1998 44.2217 8.83086 45.0001 8.83086C45.7784 8.83086 46.4093 8.19998 46.4093 7.42162V5.91852C46.4093 5.14033 45.7784 4.50928 45.0001 4.50928Z" fill="black"/>
<path d="M63.9806 55.0504L48.9494 24.9878C48.1967 23.4822 46.6834 22.5469 45.0001 22.5469C43.317 22.5469 41.8035 23.4822 41.0508 24.9878L26.0194 55.0504C24.9306 57.2278 25.8164 59.8854 27.9942 60.9742C30.1717 62.063 32.8292 61.1774 33.918 58.9995L39.4618 47.9123H50.5384L56.0821 58.9995C57.1589 61.1535 59.8461 62.0537 62.0061 60.9742C64.1836 59.8853 65.0694 57.228 63.9806 55.0504ZM60.684 58.4827C59.9116 58.8307 58.9803 58.4943 58.6028 57.7391L52.6694 45.8729C52.4306 45.3954 51.9429 45.0938 51.4091 45.0938H38.5906C38.0567 45.0938 37.5688 45.3954 37.3302 45.8729L31.3971 57.7391C31.003 58.527 30.0418 58.8471 29.2543 58.4535C28.4667 58.0598 28.1462 57.0984 28.54 56.3108L43.5712 26.2481C44.1488 25.0929 45.8507 25.0929 46.4283 26.2481L61.4596 56.3108C61.8619 57.115 61.5002 58.115 60.684 58.4827Z" fill="black"/>
<path d="M49.6635 39.8603L46.2603 33.0543C45.7511 32.0361 44.2487 32.0358 43.7396 33.0543L40.3367 39.8603C39.876 40.7814 40.5693 41.8997 41.597 41.8997H48.4031C49.4309 41.8997 50.1244 40.7814 49.6635 39.8603ZM43.8771 39.0814L45 36.8355L46.1231 39.0813H43.8771V39.0814Z" fill="black"/>
<path d="M61.5346 25.5533H59.9374V23.9561C59.9374 23.1779 59.3067 22.5469 58.5282 22.5469C57.7498 22.5469 57.1189 23.1778 57.1189 23.9561V25.5533H55.5218C54.7434 25.5533 54.1125 26.1841 54.1125 26.9625C54.1125 27.7409 54.7433 28.3717 55.5218 28.3717H57.1189V29.9689C57.1189 30.7471 57.7496 31.3781 58.5282 31.3781C59.3065 31.3781 59.9374 30.7472 59.9374 29.9689V28.3717H61.5346C62.3129 28.3717 62.9438 27.7409 62.9438 26.9625C62.9438 26.1841 62.3129 25.5533 61.5346 25.5533Z" fill="black"/>
<path d="M57.0249 66.1377H32.9749C32.1967 66.1377 31.5657 66.7686 31.5657 67.5469C31.5657 68.3251 32.1966 68.9562 32.9749 68.9562H57.0249C57.8033 68.9562 58.4342 68.3253 58.4342 67.5469C58.4342 66.7686 57.8035 66.1377 57.0249 66.1377Z" fill="black"/>
<path d="M46.503 72.1504H32.9749C32.1967 72.1504 31.5657 72.7813 31.5657 73.5596C31.5657 74.3378 32.1966 74.9689 32.9749 74.9689H46.503C47.2814 74.9689 47.9123 74.338 47.9123 73.5596C47.9123 72.7813 47.2816 72.1504 46.503 72.1504Z" fill="black"/>
</g>
<defs>
<clipPath id="clip0">
<rect width="90" height="90" fill="white"/>
</clipPath>
</defs>
</svg>
