<svg width="50" height="50" viewBox="0 0 50 50" fill="none" xmlns="http://www.w3.org/2000/svg">
<g clip-path="url(#clip0)">
<path d="M45.876 17.5356H40.8134V9.13272C40.8134 7.78008 39.713 6.67969 38.3604 6.67969H37.473V0.782031C37.473 0.349707 37.1227 -0.000878906 36.6901 -0.000878906H31.6797C31.2473 -0.000878906 30.8968 0.349609 30.8968 0.782031C30.8968 1.21436 31.2472 1.56494 31.6797 1.56494H35.9072V17.5357H14.091V1.56484H27.5044C27.9368 1.56484 28.2873 1.21436 28.2873 0.781934C28.2873 0.349609 27.9369 -0.000976562 27.5044 -0.000976562H13.3081C12.8757 -0.000976562 12.5252 0.349512 12.5252 0.781934V6.67959H11.6379C10.2853 6.67959 9.18486 7.77998 9.18486 9.13262V17.5355H4.12227C1.84883 17.5356 -0.000878906 19.3854 -0.000878906 21.6588V24.164C-0.000878906 24.5963 0.349512 24.9469 0.782031 24.9469C1.21445 24.9469 1.56494 24.5964 1.56494 24.164V21.6588C1.56494 20.2486 2.71211 19.1014 4.12236 19.1014H45.876C47.2862 19.1014 48.4334 20.2486 48.4334 21.6588V30.9315H44.2059C43.7734 30.9315 43.423 31.282 43.423 31.7145C43.423 32.1469 43.7733 32.4974 44.2059 32.4974H48.4334V41.7006C48.4334 43.1107 47.2862 44.258 45.876 44.258H40.8134V38.3603C40.8134 37.9279 40.463 37.5773 40.0305 37.5773H9.96777C9.53535 37.5773 9.18486 37.9278 9.18486 38.3603V44.258H4.12227C2.71201 44.258 1.56484 43.1107 1.56484 41.7006V32.4974H40.0304C40.4628 32.4974 40.8133 32.1469 40.8133 31.7145C40.8133 31.282 40.4629 30.9315 40.0304 30.9315H1.56484V28.3394C1.56484 27.907 1.21445 27.5564 0.781934 27.5564C0.349512 27.5564 -0.000976562 27.9069 -0.000976562 28.3394V41.7005C-0.000976562 43.974 1.84873 45.8236 4.12217 45.8236H12.5251V49.2161C12.5251 49.6484 12.8755 49.999 13.308 49.999H36.69C37.1225 49.999 37.4729 49.6485 37.4729 49.2161V45.8236H45.8759C48.1494 45.8236 49.999 43.9739 49.999 41.7005V21.6588C49.9991 19.3854 48.1494 17.5356 45.876 17.5356ZM12.5252 17.5356H10.7507V9.13272C10.7507 8.64346 11.1487 8.24541 11.638 8.24541H12.5253V17.5356H12.5252ZM39.2476 17.5356H37.473V8.24551H38.3604C38.8496 8.24551 39.2477 8.64355 39.2477 9.13281V17.5356H39.2476ZM12.5252 44.258H10.7507V39.1432H12.5252V44.258ZM35.9072 48.4334H14.091V39.1432H35.9073V48.4334H35.9072ZM39.2476 44.258H37.473V39.1432H39.2476V44.258Z" fill="white"/>
<path d="M44.2067 22.5469C42.8541 22.5469 41.7537 23.6473 41.7537 24.9999C41.7537 26.3526 42.8541 27.4529 44.2067 27.4529C45.5593 27.4529 46.6597 26.3526 46.6597 24.9999C46.6597 23.6473 45.5593 22.5469 44.2067 22.5469ZM44.2067 25.8872C43.7174 25.8872 43.3194 25.4892 43.3194 24.9999C43.3194 24.5107 43.7174 24.1126 44.2067 24.1126C44.6959 24.1126 45.094 24.5107 45.094 24.9999C45.094 25.4892 44.6959 25.8872 44.2067 25.8872Z" fill="white"/>
<path d="M38.3611 22.5469C37.0085 22.5469 35.9081 23.6473 35.9081 24.9999C35.9081 26.3526 37.0085 27.4529 38.3611 27.4529C39.7137 27.4529 40.8141 26.3526 40.8141 24.9999C40.8141 23.6473 39.7137 22.5469 38.3611 22.5469ZM38.3611 25.8872C37.8718 25.8872 37.4738 25.4892 37.4738 24.9999C37.4738 24.5107 37.8718 24.1126 38.3611 24.1126C38.8504 24.1126 39.2484 24.5107 39.2484 24.9999C39.2484 25.4892 38.8504 25.8872 38.3611 25.8872Z" fill="white"/>
<path d="M33.3506 40.9185H16.6492C16.2168 40.9185 15.8663 41.2689 15.8663 41.7014C15.8663 42.1337 16.2167 42.4843 16.6492 42.4843H33.3507C33.7831 42.4843 34.1336 42.1338 34.1336 41.7014C34.1335 41.269 33.7831 40.9185 33.3506 40.9185Z" fill="white"/>
<path d="M29.1753 44.2589H16.6492C16.2168 44.2589 15.8663 44.6094 15.8663 45.0418C15.8663 45.4741 16.2167 45.8247 16.6492 45.8247H29.1753C29.6077 45.8247 29.9582 45.4742 29.9582 45.0418C29.9581 44.6094 29.6077 44.2589 29.1753 44.2589Z" fill="white"/>
<path d="M21.6596 22.5469H9.96858C9.53616 22.5469 9.18567 22.8974 9.18567 23.3298C9.18567 23.7622 9.53606 24.1127 9.96858 24.1127H21.6596C22.092 24.1127 22.4425 23.7622 22.4425 23.3298C22.4425 22.8974 22.0921 22.5469 21.6596 22.5469Z" fill="white"/>
<path d="M25.8351 22.5469H24.165C23.7326 22.5469 23.3821 22.8974 23.3821 23.3298C23.3821 23.7622 23.7325 24.1127 24.165 24.1127H25.8351C26.2675 24.1127 26.618 23.7622 26.618 23.3298C26.618 22.8974 26.2676 22.5469 25.8351 22.5469Z" fill="white"/>
<path d="M7.46353 22.5469H5.79341C5.36099 22.5469 5.0105 22.8974 5.0105 23.3298C5.0105 23.7622 5.36089 24.1127 5.79341 24.1127H7.46353C7.89595 24.1127 8.24644 23.7622 8.24644 23.3298C8.24644 22.8974 7.89595 22.5469 7.46353 22.5469Z" fill="white"/>
<path d="M25.8351 25.8873H5.79341C5.36099 25.8873 5.0105 26.2378 5.0105 26.6702C5.0105 27.1027 5.36089 27.4531 5.79341 27.4531H25.8352C26.2676 27.4531 26.6181 27.1027 26.6181 26.6702C26.6181 26.2378 26.2676 25.8873 25.8351 25.8873Z" fill="white"/>
</g>
<defs>
<clipPath id="clip0">
<rect width="50" height="50" fill="white"/>
</clipPath>
</defs>
</svg>
