<svg width="81" height="81" viewBox="0 0 81 81" fill="none" xmlns="http://www.w3.org/2000/svg">
<path d="M53.9999 44.55C49.5327 44.55 45.8999 48.1828 45.8999 52.65C45.8999 57.1172 49.5327 60.75 53.9999 60.75C58.4671 60.75 62.0999 57.1172 62.0999 52.65C62.0999 48.1828 58.4671 44.55 53.9999 44.55ZM53.9999 58.05C51.0217 58.05 48.6 55.628 48.6 52.65C48.6 49.6718 51.0219 47.2501 53.9999 47.2501C56.9781 47.2501 59.3999 49.672 59.3999 52.65C59.4 55.6282 56.9781 58.05 53.9999 58.05Z" fill="black"/>
<path d="M56.7001 58.0499V63.6282L54.748 62.3268C54.2945 62.0231 53.7045 62.0231 53.2508 62.3268L51.3 63.6282V58.0499H48.6001V66.1499C48.6001 66.6481 48.8741 67.1058 49.3142 67.3406C49.7517 67.5755 50.2862 67.5485 50.6993 67.273L54 65.0726L57.3008 67.273C57.5262 67.4228 57.7882 67.4999 58.05 67.4999C58.2687 67.4999 58.4875 67.4472 58.6873 67.3406C59.126 67.1056 59.4001 66.648 59.4001 66.1499V58.0499H56.7001Z" fill="black"/>
<path d="M48.6 13.4999H31.05V16.2H48.6V13.4999Z" fill="black"/>
<path d="M62.0999 21.5999H18.8999V24.3H62.0999V21.5999Z" fill="black"/>
<path d="M48.5998 29.7H18.8999V32.4H48.5998V29.7Z" fill="black"/>
<path d="M62.1 29.7H54V32.4H62.1V29.7Z" fill="black"/>
<path d="M62.0999 37.7999H18.8999V40.5H62.0999V37.7999Z" fill="black"/>
<path d="M35.0999 45.8999H18.8999V48.6H35.0999V45.8999Z" fill="black"/>
<path d="M25.65 52.65H18.8999V55.35H25.65V52.65Z" fill="black"/>
<path d="M35.1 52.65H31.05V55.35H35.1V52.65Z" fill="black"/>
<path d="M74.2501 0C70.5282 0 67.5 3.02801 67.5 6.75005V9.45011C67.5 10.1952 68.1034 10.8001 68.85 10.8001H79.65C80.3966 10.8001 80.9999 10.1952 80.9999 9.45011V6.75005C81.0001 3.02801 77.9721 0 74.2501 0ZM78.3001 8.1H70.2001V6.75005C70.2001 4.51717 72.0172 2.70005 74.2501 2.70005C76.4829 2.70005 78.3001 4.51717 78.3001 6.75005V8.1Z" fill="black"/>
<path d="M74.25 0H17.5499C13.8281 0 10.8 3.02801 10.8 6.75005V71.55H13.5001V6.75005C13.5001 4.51717 15.3172 2.70005 17.5501 2.70005H68.8529C68.0038 3.82867 67.5002 5.2313 67.5002 6.75005V74.2501C67.5002 76.483 65.6831 78.3001 63.4502 78.3001H12.15V81H63.4501C67.1719 81 70.2001 77.972 70.2001 74.2499V6.75005C70.2001 4.51717 72.0172 2.70005 74.2501 2.70005C74.9967 2.70005 75.6001 2.09524 75.6001 1.35011C75.6001 0.604969 74.9965 0 74.25 0Z" fill="black"/>
<path d="M63.4501 78.2999C61.2172 78.2999 59.4001 76.4828 59.4001 74.25V71.5499C59.4001 70.8033 58.7967 70.2 58.0501 70.2H1.34995C0.604811 70.2 0 70.8033 0 71.5499V74.25C0 77.972 3.02801 81 6.75005 81H63.4501C64.1966 81 64.8 80.3966 64.8 79.6501C64.8 78.9035 64.1966 78.2999 63.4501 78.2999ZM6.75005 78.2999C4.51717 78.2999 2.70005 76.4828 2.70005 74.25V72.9H56.7V74.25C56.7 75.7687 57.2036 77.1713 58.0526 78.2999H6.75005Z" fill="black"/>
</svg>
