<svg width="90" height="90" viewBox="0 0 90 90" fill="none" xmlns="http://www.w3.org/2000/svg">
<g clip-path="url(#clip0)">
<path d="M87.2949 78.0361L57.2275 49.7907C60.9713 44.4786 62.9436 38.2524 62.9436 31.7031C62.9436 22.4964 58.9289 13.7791 51.9289 7.78652C51.3378 7.28045 50.448 7.34936 49.9419 7.94033C49.4357 8.53166 49.5049 9.42129 50.0959 9.92736C56.4694 15.3841 60.1249 23.321 60.1249 31.7031C60.1249 38.0555 58.0878 44.0734 54.2336 49.1062C54.2336 49.1064 54.2334 49.1064 54.2334 49.1064C54.2327 49.1072 54.2319 49.1081 54.2313 49.109C52.4457 51.4399 50.3244 53.4765 47.9261 55.1619C47.9259 55.162 47.9257 55.162 47.9255 55.1622C43.0903 58.5602 37.4006 60.3565 31.4715 60.3565C15.672 60.3565 2.81813 47.5027 2.81813 31.7031C2.81813 15.9036 15.6721 3.04975 31.4719 3.04975C35.8559 3.04975 40.063 4.01338 43.9757 5.9141C44.6759 6.25406 45.5189 5.96227 45.859 5.2623C46.1992 4.56234 45.9074 3.71912 45.2072 3.37898C40.9073 1.29053 36.2862 0.231445 31.4719 0.231445C14.1182 0.231445 0 14.3497 0 31.7031C0 49.0566 14.1182 63.175 31.4719 63.175C37.5731 63.175 43.4443 61.4429 48.53 58.1538L55.9981 66.1037C56.559 66.7008 57.5422 66.685 58.0834 66.0694C58.557 65.531 58.5438 64.6971 58.0525 64.1742L50.8435 56.5001C52.5421 55.1719 54.0983 53.6753 55.4929 52.0279L85.3655 80.0903C86.0143 80.699 86.0305 81.7544 85.4014 82.3833L81.2849 86.4998C80.6553 87.1294 79.6013 87.1129 78.9915 86.4643L63.3558 69.8197C62.823 69.2523 61.9311 69.2247 61.3638 69.7573C60.7966 70.2903 60.7688 71.182 61.3016 71.7493L76.9373 88.3938C78.6213 90.1868 81.5381 90.2325 83.2778 88.4928L87.3942 84.3763C89.1338 82.6365 89.0882 79.7206 87.2949 78.0361Z" fill="black"/>
<path d="M31.4718 7.74707C18.2622 7.74707 7.51562 18.4936 7.51562 31.7032C7.51562 44.9129 18.2622 55.6594 31.4718 55.6594C44.6814 55.6594 55.428 44.9129 55.428 31.7032C55.428 18.4936 44.6812 7.74707 31.4718 7.74707ZM31.4718 52.8411C19.8163 52.8411 10.3339 43.3586 10.3339 31.7032C10.3339 20.0479 19.8163 10.5655 31.4718 10.5655C43.1273 10.5655 52.6095 20.0481 52.6095 31.7032C52.6095 43.3584 43.1271 52.8411 31.4718 52.8411Z" fill="black"/>
<path d="M31.472 15.2622C22.4066 15.2622 15.0315 22.6373 15.0315 31.7027C15.0315 40.7681 22.4066 48.1431 31.472 48.1431C40.5373 48.1431 47.9124 40.7681 47.9124 31.7027C47.9124 22.6373 40.5373 15.2622 31.472 15.2622ZM30.0627 31.7027V45.2524C23.2113 44.5449 17.8498 38.738 17.8498 31.7027C17.8498 24.1914 23.9607 18.0805 31.472 18.0805C38.5074 18.0805 44.3142 23.442 45.0217 30.2934H31.472C30.6936 30.2936 30.0627 30.9243 30.0627 31.7027ZM32.881 45.2526V33.1119H45.0217C44.362 39.5 39.2693 44.5927 32.881 45.2526Z" fill="black"/>
<path d="M34.4781 64.8662C33.6999 64.8662 33.0689 65.4969 33.0689 66.2754V70.8788H7.42169C6.64351 70.8788 6.01245 71.5095 6.01245 72.288C6.01245 73.0664 6.64333 73.6973 7.42169 73.6973H34.4781C35.2563 73.6973 35.8874 73.0666 35.8874 72.288V66.2754C35.8874 65.4969 35.2563 64.8662 34.4781 64.8662Z" fill="black"/>
<path d="M34.4781 76.8911H31.4719C30.6937 76.8911 30.0626 77.5218 30.0626 78.3004C30.0626 79.0787 30.6935 79.7096 31.4719 79.7096H34.4781C35.2563 79.7096 35.8873 79.0789 35.8873 78.3004C35.8873 77.522 35.2563 76.8911 34.4781 76.8911Z" fill="black"/>
<path d="M25.4593 76.8911H7.42169C6.64351 76.8911 6.01245 77.5218 6.01245 78.3004C6.01245 79.0787 6.64333 79.7096 7.42169 79.7096H25.4593C26.2375 79.7096 26.8685 79.0789 26.8685 78.3004C26.8685 77.522 26.2375 76.8911 25.4593 76.8911Z" fill="black"/>
<path d="M25.4593 82.9038H7.42169C6.64351 82.9038 6.01245 83.5345 6.01245 84.313C6.01245 85.0914 6.64333 85.7223 7.42169 85.7223H25.4593C26.2375 85.7223 26.8685 85.0916 26.8685 84.313C26.8685 83.5345 26.2375 82.9038 25.4593 82.9038Z" fill="black"/>
<path d="M88.5907 18.2686H66.0438C65.2656 18.2686 64.6345 18.8993 64.6345 19.6778V25.6904C64.6345 26.4688 65.2654 27.0996 66.0438 27.0996C66.8219 27.0996 67.453 26.4689 67.453 25.6904V21.087H88.5909C89.3691 21.087 90.0001 20.4563 90.0001 19.6778C90.0001 18.8993 89.3691 18.2686 88.5907 18.2686Z" fill="black"/>
<path d="M69.05 12.2563H66.0438C65.2656 12.2563 64.6345 12.8871 64.6345 13.6656C64.6345 14.4441 65.2654 15.0748 66.0438 15.0748H69.05C69.8282 15.0748 70.4592 14.4441 70.4592 13.6656C70.4592 12.8871 69.8283 12.2563 69.05 12.2563Z" fill="black"/>
<path d="M88.5908 12.2563H75.0627C74.2845 12.2563 73.6534 12.8871 73.6534 13.6656C73.6534 14.4441 74.2843 15.0748 75.0627 15.0748H88.5908C89.369 15.0748 90 14.4441 90 13.6656C90 12.8871 89.3692 12.2563 88.5908 12.2563Z" fill="black"/>
<path d="M88.5908 6.24365H75.0627C74.2845 6.24365 73.6534 6.87436 73.6534 7.65289C73.6534 8.43143 74.2843 9.06213 75.0627 9.06213H88.5908C89.369 9.06213 90 8.43143 90 7.65289C90 6.87436 89.3692 6.24365 88.5908 6.24365Z" fill="black"/>
</g>
<defs>
<clipPath id="clip0">
<rect width="90" height="90" fill="white"/>
</clipPath>
</defs>
</svg>
