<svg width="8" height="8" viewBox="0 0 8 8" fill="none" xmlns="http://www.w3.org/2000/svg">
<path d="M2.81511 2.80468L3.20478 3.19436C3.41167 3.40344 3.52722 3.68597 3.52603 3.97983C3.52485 4.27369 3.40702 4.55484 3.19846 4.76146L2.80952 5.15041C2.62497 5.33158 2.51018 5.57202 2.48524 5.82963C2.4603 6.08723 2.5268 6.34556 2.6731 6.55938C2.82607 6.78031 2.99829 6.98728 3.18774 7.17787C3.39476 7.38683 3.67612 7.50518 3.96999 7.50692C4.26385 7.50866 4.54616 7.39364 4.75485 7.18714L7.17941 4.78444C7.38798 4.57781 7.50581 4.29666 7.50699 4.0028C7.50818 3.70894 7.39263 3.42641 7.18574 3.21733L4.77847 0.788252C4.57145 0.579298 4.29008 0.46094 3.99622 0.459202C3.70235 0.457464 3.42004 0.572487 3.21135 0.778982C3.02105 0.967393 2.84783 1.1723 2.69371 1.3913C2.54447 1.60322 2.47482 1.86111 2.49703 2.11962C2.51923 2.37813 2.63186 2.6207 2.81511 2.80468Z" fill="#C1F7E4"/>
</svg>
