<svg width="81" height="81" viewBox="0 0 81 81" fill="none" xmlns="http://www.w3.org/2000/svg">
<g clip-path="url(#clip0)">
<path d="M12.9961 50.0466C14.0207 50.6065 15.2678 50.562 16.2498 49.931L40.5111 34.3486L64.7718 49.931C65.7451 50.5558 67.0113 50.6009 68.0261 50.0466C69.0507 49.4867 69.6872 48.4139 69.6872 47.2465C69.6872 46.1551 69.139 45.1515 68.2207 44.5614L41.6976 27.5261V21.1096C41.6976 21.101 41.697 21.0923 41.697 21.0837C43.732 21.2728 46.2799 21.8326 48.564 23.2861C49.1084 23.6328 49.7894 23.639 50.3407 23.3028C55.6504 20.0609 62.0879 22.4352 63.9264 23.2367C63.9326 23.2398 63.9394 23.2423 63.9462 23.2454C64.9609 23.6835 66.0813 22.7485 65.8743 21.6744C64.8398 16.3073 61.7319 11.4055 57.123 7.87061C52.791 4.54772 47.3534 2.62086 41.6976 2.38355V1.18652C41.6976 0.531464 41.1661 0 40.5111 0C39.8554 0 39.3246 0.531464 39.3246 1.18652V2.38355C33.6688 2.62086 28.2306 4.54772 23.8985 7.87061C19.2902 11.4055 16.1818 16.3073 15.1473 21.6744C14.9396 22.7516 16.057 23.6804 17.0754 23.2454C17.0803 23.2435 17.0853 23.241 17.0902 23.2386C18.9423 22.4321 25.3755 20.0634 30.6809 23.3028C31.2136 23.6279 31.9181 23.6297 32.4576 23.2861C34.7422 21.8326 37.2895 21.2728 39.3252 21.0843C39.3246 21.0923 39.3246 21.101 39.3246 21.1096V27.5261L12.8008 44.5614C11.8831 45.1515 11.335 46.1551 11.335 47.2465C11.335 48.4139 11.9715 49.4867 12.9961 50.0466V50.0466ZM63.1242 20.3915C61.9118 19.9843 60.3359 19.569 58.571 19.3774C55.5459 19.0486 52.8033 19.454 50.3963 20.5825C49.8753 15.8914 48.3922 9.30679 44.269 5.00503C48.462 5.6193 52.4183 7.25262 55.6794 9.75359C59.3212 12.5469 61.9192 16.2758 63.1242 20.3915V20.3915ZM22.4512 19.3774C20.6856 19.569 19.1104 19.9843 17.8973 20.3915C19.1024 16.2758 21.7004 12.5469 25.3427 9.75359C28.6026 7.25324 32.5577 5.61992 36.7488 5.00565C35.697 6.10071 34.7645 7.39661 33.9592 8.88409C33.2387 10.2152 35.312 11.3708 36.0462 10.0138C37.242 7.80386 38.7418 6.09885 40.5111 4.93643C45.5563 8.24881 47.3459 15.24 47.9713 20.2741C45.2856 19.0505 42.5387 18.6976 40.5469 18.6371C40.5352 18.6365 40.5228 18.6365 40.5111 18.6365C40.4987 18.6365 40.487 18.6365 40.4746 18.6371C38.4822 18.6976 35.7359 19.0505 33.049 20.2747C33.2844 18.372 33.6397 16.573 34.11 14.9051C34.5247 13.4361 32.2431 12.7842 31.8266 14.2605C31.2741 16.2189 30.8712 18.3386 30.624 20.5819C28.2176 19.454 25.475 19.0486 22.4512 19.3774ZM14.0837 46.5581L40.5111 29.5846C40.5111 29.5846 66.9057 46.5371 66.9378 46.5581C67.7949 47.1081 66.9452 48.5059 66.0541 47.9343C66.0541 47.9343 41.6692 32.2722 41.6581 32.2648C40.9807 31.8297 40.0457 31.8273 39.3641 32.2648C39.3641 32.2648 15.0144 47.904 14.9675 47.9343C14.0813 48.5035 13.1969 47.1285 14.0837 46.5581V46.5581Z" fill="black"/>
<path d="M43.7098 52.5488C42.6339 52.5488 41.7588 53.4238 41.7588 54.4997V64.5716C41.7588 65.6475 42.6339 66.5226 43.7098 66.5226H56.6293C57.7052 66.5226 58.5802 65.6475 58.5802 64.5716V54.4997C58.5802 53.4238 57.7052 52.5488 56.6293 52.5488H43.7098ZM56.2072 64.1495H44.1325V54.9218H56.2072V64.1495Z" fill="black"/>
<path d="M74.641 74.1639C74.167 71.8267 72.2803 70.0321 69.9184 69.6817C69.1199 67.4563 67.3198 65.9219 64.249 65.9219C64.1427 65.9219 64.3547 65.9219 64.249 65.9219V52.9431C64.249 52.288 63.7182 51.7565 63.0625 51.7565C62.4074 51.7565 61.876 52.288 61.876 52.9431V74.2795H38.279V54.5473C38.279 53.4455 37.3829 52.5488 36.2804 52.5488H25.1438C24.0419 52.5488 23.1459 53.4455 23.1459 54.5473V74.2795H19.1457V52.9431C19.1457 52.288 18.6148 51.7565 17.9591 51.7565C17.3041 51.7565 16.7726 52.288 16.7726 52.9431V65.9219C16.6676 65.9219 16.8795 65.9219 16.7726 65.9219C13.7847 65.9219 11.9023 67.4563 11.1039 69.6817C8.74196 70.0321 6.85464 71.8267 6.38127 74.1639C5.05323 74.6799 4.11328 75.9795 4.11328 77.4627C4.11328 79.413 5.70026 81 7.6506 81H73.371C75.322 81 76.909 79.413 76.909 77.4621C76.909 75.9795 75.969 74.6799 74.641 74.1639V74.1639ZM25.5183 54.9218H35.9059V74.2795H25.5183V54.9218ZM6.48633 77.4621C6.48633 76.8614 6.95476 76.3522 7.55358 76.3034C8.15055 76.2545 8.61713 75.7682 8.64185 75.17C8.716 73.397 10.1547 72.0065 11.9239 71.9923C11.9518 71.9942 11.9796 71.996 12.008 71.996C12.5877 72.0016 13.0907 71.5919 13.1939 71.0202C13.4782 69.4413 14.8495 68.2949 16.4544 68.2949H16.7726V74.2795H15.7431C14.064 74.2795 12.6977 75.6458 12.6977 77.3249C12.6977 77.7377 12.6773 78.2061 12.7724 78.627H7.6506C7.00852 78.627 6.48633 78.1041 6.48633 77.4621ZM15.7431 78.627C15.3717 78.627 15.0701 78.3254 15.0701 77.9546V77.3249C15.0701 76.9541 15.3717 76.6525 15.7431 76.6525H65.2792C65.65 76.6525 65.9515 76.9541 65.9515 77.3249V77.9546C65.9515 78.3254 65.65 78.627 65.2792 78.627H15.7431ZM73.371 78.627C73.371 78.627 68.2504 78.627 68.2498 78.627C68.3617 78.6245 68.3246 77.4244 68.3246 77.3249C68.3246 75.6458 66.9582 74.2795 65.2792 74.2795H64.249V68.2949H64.5679C66.1722 68.2949 67.5435 69.4413 67.8284 71.0202C67.9303 71.5857 68.4222 71.9966 68.9957 71.9966C69.0019 71.9966 69.0081 71.9966 69.0143 71.996C69.0415 71.996 69.0686 71.9948 69.0977 71.9929C70.867 72.0065 72.3062 73.397 72.3798 75.17C72.4051 75.7688 72.8717 76.2545 73.4687 76.3034C74.0669 76.3528 74.5359 76.862 74.5359 77.4627C74.5359 78.1041 74.0131 78.627 73.371 78.627V78.627Z" fill="black"/>
</g>
<defs>
<clipPath id="clip0">
<rect width="81" height="81" fill="white"/>
</clipPath>
</defs>
</svg>
