<svg width="90" height="90" viewBox="0 0 90 90" fill="none" xmlns="http://www.w3.org/2000/svg">
<g clip-path="url(#clip0)">
<path d="M8.83105 45C8.83105 41.0377 9.4672 37.1434 10.7221 33.4256C10.971 32.6884 10.575 31.8886 9.83757 31.6399C9.10035 31.3908 8.30054 31.787 8.05181 32.5244C6.69865 36.5333 6.01257 40.7306 6.01257 45C6.01257 49.2695 6.69865 53.467 8.05181 57.4755C8.30757 58.2331 9.16943 58.6283 9.91175 58.3324C10.5971 58.0593 10.9578 57.2723 10.7221 56.5741C9.4672 52.8565 8.83105 48.9622 8.83105 45Z" fill="black"/>
<path d="M81.9483 32.5248C81.6994 31.7874 80.8992 31.3912 80.1625 31.6405C79.4251 31.8894 79.0291 32.6888 79.278 33.4262C80.5329 37.144 81.169 41.0383 81.169 45.0005C81.169 48.9628 80.5329 52.8571 79.278 56.5749C79.0418 57.2743 79.4037 58.0581 80.0884 58.3332C80.83 58.631 81.6931 58.2323 81.9483 57.4763C83.3014 53.4676 83.9875 49.2701 83.9875 45.0007C83.9875 40.7313 83.3014 36.5333 81.9483 32.5248Z" fill="black"/>
<path d="M2.81848 45.0001C2.81848 43.0524 2.95242 41.0944 3.21662 39.18C3.32297 38.409 2.78402 37.698 2.01322 37.5916C1.24119 37.4848 0.531035 38.024 0.424512 38.795C0.14291 40.8362 0 42.9241 0 45.0001C0 47.0761 0.142734 49.164 0.424512 51.2052C0.530859 51.9758 1.27072 52.5258 2.03924 52.4045C2.78754 52.2864 3.32016 51.5715 3.21645 50.82C2.95242 48.9058 2.81848 46.9478 2.81848 45.0001Z" fill="black"/>
<path d="M89.5757 38.7946C89.4693 38.0236 88.759 37.4859 87.9871 37.5913C87.2161 37.6977 86.6776 38.4091 86.7839 39.1799C87.0479 41.0941 87.1819 43.0521 87.1819 44.9998C87.1819 46.4565 87.107 47.9253 86.9588 49.3652C86.8792 50.1395 87.4422 50.8315 88.2163 50.9111C88.2654 50.9162 88.3141 50.9187 88.3621 50.9187C89.0756 50.9187 89.6876 50.3787 89.762 49.6536C89.9198 48.1183 89.9998 46.5527 89.9998 45C90.0002 42.9238 89.8573 40.8359 89.5757 38.7946Z" fill="black"/>
<path d="M80.4175 9.06707C78.448 7.09744 75.8294 6.0127 73.0438 6.0127C70.2582 6.0127 67.6396 7.09744 65.6701 9.06707L63.5444 11.1926C63.0018 11.7351 63.0018 12.643 63.5444 13.1854L76.2989 25.94C76.8414 26.4826 77.7493 26.4826 78.2918 25.94L80.4173 23.8142C84.4833 19.7484 84.4833 13.1327 80.4175 9.06707ZM78.4247 21.8212L77.2953 22.9506L66.5338 12.1891L67.663 11.0599C69.1003 9.62254 71.0113 8.831 73.0438 8.831C75.0764 8.831 76.9873 9.62254 78.4247 11.0597C81.3917 14.0267 81.3917 18.8542 78.4247 21.8212Z" fill="black"/>
<path d="M26.4558 11.1928L24.33 9.06725C22.3606 7.09744 19.742 6.0127 16.9564 6.0127C14.1709 6.0127 11.5523 7.09744 9.58269 9.06707C5.51687 13.1329 5.51687 19.7486 9.58269 23.8142L11.7082 25.94C12.2507 26.4826 13.1588 26.4826 13.7012 25.94L26.4558 13.1854C26.9984 12.6432 26.9984 11.7353 26.4558 11.1928ZM12.7049 22.9504L11.5755 21.8214C8.60851 18.8544 8.60851 14.0269 11.5755 11.0599C13.0129 9.62254 14.9238 8.831 16.9564 8.831C18.9889 8.831 20.8998 9.62254 22.3372 11.0597L23.4664 12.1889L12.7049 22.9504Z" fill="black"/>
<path d="M61.0592 36.0972C62.7613 34.3951 62.7613 31.5546 61.0592 29.8527C59.338 28.1311 56.5366 28.1311 54.8148 29.8527L45.559 39.1085C45.375 39.0913 45.1887 39.0812 45 39.0812C43.4901 39.0812 42.1112 39.6504 41.0645 40.5844H32.975C30.5403 40.5844 28.5596 42.5651 28.5596 44.9998C28.5596 47.4345 30.5403 49.4153 32.975 49.4153H41.0645C42.1112 50.3492 43.4901 50.9184 45 50.9184C45.9327 50.9184 46.8153 50.7007 47.6007 50.3149L54.3947 59.3738C54.8918 60.0367 55.8839 60.1217 56.4881 59.5545C57.0043 59.0695 57.0743 58.249 56.6494 57.6828L49.7658 48.5047C50.2216 47.8863 50.5598 47.1765 50.7481 46.4083L61.0592 36.0972ZM39.3023 46.5971H32.975C32.0944 46.5971 31.3779 45.8806 31.3779 45C31.3779 44.1193 32.0944 43.4028 32.975 43.4028H39.3023C39.1595 43.9112 39.0815 44.4466 39.0815 45C39.0815 45.5533 39.1595 46.0886 39.3023 46.5971ZM45.0002 48.1002C43.2907 48.1002 41.9 46.7094 41.9 45C41.9 43.2905 43.2907 41.8997 45.0002 41.8997C46.7097 41.8997 48.1005 43.2905 48.1005 45C48.1005 46.7094 46.7095 48.1002 45.0002 48.1002ZM48.4547 40.1985L56.8078 31.8454C57.3784 31.2748 58.3192 31.2258 58.9453 31.736C59.6688 32.3258 59.7266 33.4438 59.0664 34.104L50.4584 42.712C50.0328 41.7009 49.3334 40.8329 48.4547 40.1985Z" fill="black"/>
<path d="M67.7615 68.8373C74.051 62.8291 77.9749 54.3642 77.9749 45C77.9749 28.3147 65.5175 14.4861 49.4154 12.3216V8.8309H54.0188C54.7969 8.8309 55.428 8.20002 55.428 7.42166V1.40924C55.428 0.631055 54.7971 0 54.0188 0H35.9813C35.2031 0 34.5721 0.630879 34.5721 1.40924V7.42184C34.5721 8.20002 35.203 8.83107 35.9813 8.83107H40.5847V12.3217C24.4824 14.4861 12.0251 28.3147 12.0251 45C12.0251 48.8835 12.7017 52.6115 13.9408 56.0746C14.2502 56.9394 15.2996 57.2729 16.0588 56.7555C16.5902 56.3933 16.805 55.719 16.5888 55.1134C15.3984 51.7795 14.7784 48.1771 14.8489 44.4233C15.1518 28.3194 28.2183 15.2068 44.3211 14.8512C61.0797 14.4809 74.8627 27.859 75.1521 44.4674C75.4402 61.01 62.2052 74.7921 45.664 75.1497C35.2065 75.3757 25.9096 70.2478 20.3287 62.3232C19.8875 61.6968 19.0228 61.5449 18.3898 61.9764C17.7373 62.4212 17.5816 63.3132 18.0363 63.9587C19.2772 65.7193 20.685 67.3539 22.2384 68.8377L18.0689 88.2958C17.8836 89.1598 18.564 90.0002 19.4466 90.0002H22.4528C22.9542 90.0002 23.4177 89.7339 23.6701 89.3011L31.8694 75.2451C35.895 76.9996 40.3352 77.9752 44.9996 77.9752C49.6639 77.9752 54.1042 76.9996 58.1301 75.2451L66.3294 89.3011C66.582 89.734 67.0455 90.0002 67.5465 90.0002H70.5527C71.4357 90.0002 72.1158 89.1598 71.9305 88.2958L67.7615 68.8373ZM37.3904 6.0126V2.8183H52.6095V6.01242H37.3904V6.0126ZM46.5971 12.0644C46.0678 12.0391 45.5355 12.0252 44.9999 12.0252C44.4645 12.0252 43.9321 12.0391 43.4028 12.0644V8.8309H46.5969V12.0644H46.5971ZM21.6437 87.1817H21.19L24.6694 70.9446C26.129 72.0907 27.6871 73.1164 29.3289 74.0071L21.6437 87.1817ZM68.3565 87.1817L60.6714 74.0071C62.3132 73.1164 63.8715 72.0907 65.331 70.9446L68.8104 87.1817H68.3565Z" fill="black"/>
<path d="M71.946 44.0648C71.9161 43.2179 71.1599 42.584 70.3225 42.7127L70.3218 42.7129C69.6166 42.8214 69.1034 43.4394 69.1291 44.1525C69.1393 44.4338 69.1446 44.7163 69.1446 45C69.1446 58.3128 58.3138 69.1439 45.0007 69.1441C31.6865 69.1442 20.8561 58.3138 20.8562 44.9998C20.8564 31.6868 31.6874 20.8559 45.0003 20.8559C55.263 20.8559 64.0497 27.2927 67.5378 36.3406C67.7742 36.9538 68.4123 37.3138 69.0616 37.2139H69.062C69.9468 37.0777 70.4893 36.1585 70.1669 35.3232C66.27 25.2223 56.4586 18.0376 45.0003 18.0376C30.0631 18.0376 17.924 30.2472 18.0386 45.2104C18.1511 59.8756 30.1247 71.849 44.7899 71.9617C59.7533 72.0763 71.9627 59.9372 71.9627 45C71.9625 44.6869 71.9569 44.3753 71.946 44.0648Z" fill="black"/>
</g>
<defs>
<clipPath id="clip0">
<rect width="90" height="90" fill="white"/>
</clipPath>
</defs>
</svg>
