<svg width="8" height="8" viewBox="0 0 8 8" fill="none" xmlns="http://www.w3.org/2000/svg">
<path d="M2.81559 2.80468L3.20527 3.19436C3.41216 3.40344 3.52771 3.68597 3.52652 3.97983C3.52534 4.27369 3.40751 4.55484 3.19895 4.76146L2.81 5.15041C2.62546 5.33158 2.51067 5.57202 2.48573 5.82963C2.46079 6.08723 2.52729 6.34556 2.67359 6.55938C2.82656 6.78031 2.99878 6.98728 3.18822 7.17787C3.39524 7.38683 3.67661 7.50518 3.97048 7.50692C4.26434 7.50866 4.54665 7.39364 4.75534 7.18714L7.1799 4.78444C7.38847 4.57781 7.50629 4.29666 7.50748 4.0028C7.50867 3.70894 7.39312 3.42641 7.18623 3.21733L4.77896 0.788252C4.57194 0.579298 4.29057 0.46094 3.99671 0.459202C3.70284 0.457464 3.42053 0.572487 3.21183 0.778982C3.02154 0.967393 2.84832 1.1723 2.6942 1.3913C2.54496 1.60322 2.47531 1.86111 2.49752 2.11962C2.51972 2.37813 2.63235 2.6207 2.81559 2.80468Z" fill="black"/>
</svg>
