<svg width="13" height="14" viewBox="0 0 13 14" fill="none" xmlns="http://www.w3.org/2000/svg">
<path d="M4.31865 5.18643L4.91647 5.78425C5.23387 6.10502 5.41113 6.53846 5.40931 6.98928C5.40749 7.4401 5.22674 7.87142 4.90677 8.18842L4.31008 8.78511C4.02696 9.06305 3.85085 9.43193 3.81259 9.82713C3.77433 10.2223 3.87635 10.6186 4.10079 10.9467C4.33547 11.2856 4.59968 11.6031 4.89032 11.8955C5.20792 12.2161 5.63957 12.3977 6.0904 12.4003C6.54123 12.403 6.97433 12.2265 7.2945 11.9097L11.0141 8.22366C11.3341 7.90666 11.5148 7.47534 11.5167 7.02452C11.5185 6.5737 11.3412 6.14026 11.0238 5.8195L7.33073 2.09296C7.01313 1.77239 6.58147 1.59082 6.13064 1.58815C5.67982 1.58548 5.24671 1.76194 4.92654 2.07874C4.6346 2.36779 4.36886 2.68213 4.13242 3.01812C3.90346 3.34323 3.79661 3.73887 3.83068 4.13546C3.86474 4.53205 4.03753 4.90419 4.31865 5.18643Z" fill="#39B54A"/>
</svg>
