<svg width="17" height="17" viewBox="0 0 17 17" fill="none" xmlns="http://www.w3.org/2000/svg">
<g clip-path="url(#clip0)">
<path d="M14.1667 16.2209C14.0958 16.2209 14.025 16.2209 13.9542 16.2209C11.6875 15.9375 9.42083 15.1584 7.50833 13.9542C5.73749 12.8209 4.17916 11.2625 3.04583 9.4917C1.77083 7.5792 0.99166 5.31253 0.77916 3.04587C0.77916 2.4792 0.920826 1.91253 1.27499 1.48753C1.62916 1.06253 2.12499 0.779199 2.69166 0.708366C2.76249 0.708366 2.83333 0.708366 2.90416 0.708366H5.02916C6.09166 0.708366 7.01249 1.48753 7.15416 2.55003C7.22499 3.18753 7.36666 3.82503 7.57916 4.3917C7.86249 5.17087 7.64999 6.02087 7.08333 6.65837L6.58749 7.1542C7.43749 8.4292 8.49999 9.56253 9.84583 10.4125L10.3417 9.9167C10.9083 9.35003 11.8292 9.13753 12.6083 9.42087C13.175 9.63337 13.8125 9.77503 14.45 9.84587C15.5125 9.98753 16.2917 10.9084 16.2917 11.9709V14.0959C16.2917 14.6625 16.0792 15.2292 15.6542 15.5834C15.2292 15.9375 14.7333 16.2209 14.1667 16.2209ZM5.02916 2.12503H2.90416C2.69166 2.12503 2.47916 2.2667 2.33749 2.40837C2.26666 2.55003 2.19583 2.6917 2.19583 2.9042C2.40833 4.95837 3.11666 6.9417 4.24999 8.71253C5.31249 10.3417 6.65833 11.7584 8.28749 12.75C10.0583 13.8834 12.0417 14.5917 14.0958 14.8042C14.3792 14.8042 14.5208 14.7334 14.6625 14.5917C14.8042 14.45 14.875 14.3084 14.875 14.0959V11.9709C14.875 11.6167 14.5917 11.3334 14.2375 11.2625C13.5292 11.1917 12.8208 10.9792 12.1125 10.6959C11.8292 10.625 11.5458 10.625 11.3333 10.8375L10.4125 11.7584C10.2 11.9709 9.84583 12.0417 9.56249 11.9C7.64999 10.8375 6.09166 9.2792 5.02916 7.3667C4.95833 7.08337 5.02916 6.7292 5.24166 6.5167L6.16249 5.59587C6.30416 5.4542 6.37499 5.10003 6.30416 4.88753C6.02083 4.1792 5.87916 3.47087 5.73749 2.76253C5.73749 2.40837 5.38333 2.12503 5.02916 2.12503ZM13.4583 7.08337C13.1042 7.08337 12.8208 6.87087 12.75 6.5167C12.5375 5.38337 11.6167 4.53337 10.4833 4.25003C10.1292 4.1792 9.84583 3.82503 9.91666 3.40003C9.98749 3.04587 10.3417 2.76253 10.7667 2.83337C12.4667 3.18753 13.8125 4.46253 14.0958 6.16253C14.1667 6.5167 13.9542 6.9417 13.5292 7.01253C13.5292 7.01253 13.5292 7.08337 13.4583 7.08337ZM16.2917 7.01253C15.9375 7.01253 15.6542 6.7292 15.5833 6.37503C15.3 3.7542 13.2458 1.70003 10.5542 1.34587C10.2 1.27503 9.91666 0.920866 9.91666 0.566699C9.91666 0.212533 10.3417 -0.0708008 10.6958 -0.0708008C14.025 0.283366 16.575 2.83337 16.9292 6.16253C17 6.5167 16.7167 6.87087 16.2917 6.9417C16.3625 7.01253 16.2917 7.01253 16.2917 7.01253Z" fill="black"/>
</g>
<defs>
<clipPath id="clip0">
<rect width="17" height="17" fill="white"/>
</clipPath>
</defs>
</svg>
