<svg width="16" height="16" viewBox="0 0 16 16" fill="none" xmlns="http://www.w3.org/2000/svg">
<path d="M13.3333 8C13.3333 6.46667 12.6667 5.13333 11.6667 4.13333L11.4667 1.8C11.3333 0.8 10.5333 0 9.46666 0H6.53332C5.53332 0 4.66666 0.8 4.53332 1.8L4.33332 4.13333C3.33332 5.06667 2.66666 6.46667 2.66666 8C2.66666 9.53333 3.33332 10.9333 4.33332 11.8667L4.53332 14.2C4.66666 15.2 5.53332 16 6.53332 16H9.39999C10.4667 16 11.2667 15.2 11.4 14.2L11.6 11.9333C12.6667 10.9333 13.3333 9.53333 13.3333 8ZM5.86666 1.93333C5.86666 1.6 6.19999 1.33333 6.53332 1.33333H9.46666C9.79999 1.33333 10.0667 1.6 10.1333 1.93333L10.2667 3.13333C9.53332 2.86667 8.79999 2.66667 7.99999 2.66667C7.19999 2.66667 6.46666 2.86667 5.79999 3.13333L5.86666 1.93333ZM3.99999 8C3.99999 5.8 5.79999 4 7.99999 4C10.2 4 12 5.8 12 8C12 9.2 11.4667 10.3333 10.6 11.0667C9.93332 11.6667 8.99999 12 7.99999 12C5.79999 12 3.99999 10.2 3.99999 8ZM10.1333 14.0667C10.1333 14.4 9.79999 14.6667 9.46666 14.6667H6.53332C6.19999 14.6667 5.93332 14.4 5.86666 14.0667L5.73332 12.8667C6.39999 13.2 7.13332 13.3333 7.93332 13.3333C8.73332 13.3333 9.46666 13.1333 10.1333 12.8667V14.0667Z" fill="black"/>
<path d="M8.53332 9.46667C8.66666 9.6 8.86666 9.66667 8.99999 9.66667C9.13332 9.66667 9.33332 9.6 9.46666 9.46667C9.73332 9.2 9.73332 8.8 9.46666 8.53333L8.66666 7.73333V6C8.66666 5.6 8.39999 5.33333 7.99999 5.33333C7.59999 5.33333 7.33332 5.6 7.33332 6V8C7.33332 8.2 7.39999 8.33333 7.53332 8.46667L8.53332 9.46667Z" fill="black"/>
</svg>
