<svg width="46" height="46" viewBox="0 0 46 46" fill="none" xmlns="http://www.w3.org/2000/svg">
<path fill-rule="evenodd" clip-rule="evenodd" d="M45.1017 25.5169H41.9725C41.4764 25.5169 41.0741 25.9191 41.0741 26.4153C41.0741 26.9114 41.4765 27.3136 41.9725 27.3136H42.9174L28.8156 41.4154L26.7722 39.372V28.6094C29.0269 28.0081 31.164 26.8573 32.9698 25.1575C33.0775 25.0562 33.185 24.9529 33.2902 24.8477C35.5242 22.6137 36.9454 19.785 37.3999 16.6671C37.8393 13.654 37.3096 10.5151 35.9084 7.82849C35.679 7.38852 35.1364 7.21782 34.6965 7.44728C34.2565 7.67674 34.0858 8.21931 34.3153 8.65927C36.7441 13.3166 36.0804 18.8839 32.7146 22.8252L31.3336 24.2146C28.9475 26.2767 25.9738 27.3079 22.999 27.3077C20.0249 27.3074 17.0501 26.2761 14.6644 24.2146L13.2835 22.8244C9.0165 17.8178 9.24776 10.2665 13.978 5.53622C18.0808 1.43351 24.4383 0.612784 29.4385 3.54052C29.8668 3.79136 30.4169 3.64725 30.6678 3.21915C30.9185 2.79095 30.7745 2.24066 30.3464 1.99C24.6413 -1.35048 17.388 -0.414668 12.7075 4.26556C7.03298 9.94008 7.03298 19.1731 12.7075 24.8477C14.5784 26.7186 16.8361 27.9722 19.2255 28.6093V31.8255L16.7001 29.3C16.3491 28.9492 15.7805 28.9492 15.4295 29.3L11.0012 33.7283C10.6503 34.0791 10.6503 34.6479 11.0012 34.9987C11.1767 35.1742 11.4066 35.2619 11.6365 35.2619C11.8664 35.2619 12.0963 35.1741 12.2718 34.9987L16.0648 31.2058L19.2256 34.3666V42.2267C19.2256 44.3073 20.9183 45.9999 22.9989 45.9999C25.0795 45.9999 26.7721 44.3073 26.7721 42.2267V41.913L28.1803 43.3211C28.3557 43.4966 28.5856 43.5843 28.8155 43.5843C29.0455 43.5843 29.2754 43.4965 29.4508 43.3211L44.2033 28.5689V29.5445C44.2033 30.0407 44.6056 30.4429 45.1016 30.4429C45.5978 30.4429 46 30.0406 46 29.5445V26.4153C46.0001 25.9191 45.5979 25.5169 45.1017 25.5169ZM22.9989 44.2033C24.0888 44.2033 24.9754 43.3166 24.9754 42.2267V28.969C24.3198 29.0581 23.6594 29.1036 22.9989 29.1036C22.3383 29.1036 21.678 29.0581 21.0224 28.969V42.2268C21.0224 43.3167 21.909 44.2033 22.9989 44.2033Z" fill="white"/>
<path d="M7.46307 38.537C7.11214 38.1861 6.54351 38.1861 6.19257 38.537L0.263135 44.4663C-0.0877115 44.8171 -0.0877115 45.3859 0.263135 45.7369C0.438603 45.9123 0.668517 46 0.898431 46C1.12835 46 1.35826 45.9123 1.53373 45.7369L7.46316 39.8075C7.81392 39.4568 7.81392 38.8879 7.46307 38.537Z" fill="white"/>
<path d="M9.97838 36.0217C9.81136 35.8546 9.57956 35.7584 9.34327 35.7584C9.10697 35.7584 8.87517 35.8546 8.70806 36.0217C8.54095 36.1888 8.44481 36.4206 8.44481 36.6569C8.44481 36.8932 8.54086 37.125 8.70806 37.2921C8.87526 37.4592 9.10697 37.5553 9.34327 37.5553C9.57956 37.5553 9.81136 37.4592 9.97838 37.2921C10.1455 37.125 10.2417 36.8932 10.2417 36.6569C10.2417 36.4206 10.1456 36.1888 9.97838 36.0217Z" fill="white"/>
<path d="M32.6554 5.79901C33.1516 5.79901 33.5538 5.39681 33.5538 4.90066C33.5538 4.40452 33.1516 4.00232 32.6554 4.00232C32.1593 4.00232 31.7571 4.40452 31.7571 4.90066C31.7571 5.39681 32.1593 5.79901 32.6554 5.79901Z" fill="white"/>
<path d="M22.9864 13.4463C22.3994 13.4463 21.9219 13.0502 21.9219 12.5633C21.9219 12.0765 22.3994 11.6804 22.9864 11.6804C23.5733 11.6804 24.0509 12.0765 24.0509 12.5633C24.0509 13.0595 24.4531 13.4618 24.9493 13.4618C25.4455 13.4618 25.8478 13.0595 25.8478 12.5633C25.8478 11.3796 25.0237 10.3733 23.8848 10.0196V9.9727C23.8848 9.47649 23.4826 9.07426 22.9864 9.07426C22.4902 9.07426 22.0879 9.47649 22.0879 9.9727V10.0196C20.949 10.3733 20.125 11.3796 20.125 12.5633C20.125 14.041 21.4086 15.2432 22.9864 15.2432C23.5733 15.2432 24.0509 15.6393 24.0509 16.1262C24.0509 16.613 23.5733 17.0092 22.9864 17.0092C22.3994 17.0092 21.9219 16.613 21.9219 16.1262C21.9219 15.63 21.5197 15.2277 21.0234 15.2277C20.5272 15.2277 20.125 15.63 20.125 16.1262C20.125 17.3103 20.9496 18.3168 22.089 18.6703C22.1006 19.1563 22.4974 19.5471 22.9864 19.5471C23.4753 19.5471 23.8722 19.1563 23.8838 18.6703C25.0232 18.3168 25.8478 17.3103 25.8478 16.1262C25.8478 14.6485 24.5641 13.4463 22.9864 13.4463Z" fill="white"/>
</svg>
