<svg width="133" height="76" viewBox="0 0 133 76" fill="none" xmlns="http://www.w3.org/2000/svg">
<g clip-path="url(#clip0)">
<path d="M11.6493 54.7987C11.6493 58.2635 9.24921 60.3689 6.08986 60.3689C2.54512 60.3689 9.19341e-05 57.7458 9.19341e-05 54.49C-0.00426071 53.7097 0.145986 52.9364 0.442068 52.215C0.73815 51.4937 1.17414 50.8388 1.72463 50.2886C2.27512 49.7384 2.92909 49.3038 3.64841 49.0102C4.36773 48.7166 5.13801 48.5698 5.91434 48.5785C8.074 48.5785 9.89406 49.6465 10.8442 51.169L8.65206 52.4326C8.18464 51.6886 7.16968 51.1057 5.89717 51.1057C3.98934 51.1057 2.57756 52.515 2.57756 54.5072C2.57756 56.4343 3.93021 57.8436 6.1223 57.8436C7.61994 57.8436 8.60247 57.1802 9.00693 56.0949H5.99256V53.8265H11.6493V54.7987Z" fill="black"/>
<path d="M11.9353 59.0247C11.9353 58.7653 12.0118 58.5117 12.1552 58.296C12.2986 58.0803 12.5024 57.9122 12.7409 57.813C12.9793 57.7137 13.2417 57.6877 13.4948 57.7383C13.748 57.7889 13.9805 57.9139 14.163 58.0973C14.3455 58.2807 14.4698 58.5144 14.5201 58.7688C14.5705 59.0232 14.5446 59.2869 14.4459 59.5266C14.3471 59.7662 14.1798 59.9711 13.9652 60.1152C13.7506 60.2593 13.4984 60.3362 13.2403 60.3362C12.8948 60.3342 12.564 60.1954 12.3197 59.9498C12.0754 59.7043 11.9373 59.3719 11.9353 59.0247Z" fill="black"/>
<path d="M16.3328 56.4841V48.8143H18.9102V56.2636C18.9102 57.1226 19.3128 57.8512 20.6826 57.8512C22.0524 57.8512 22.455 57.1226 22.455 56.2636V48.8066H25.0324V56.4764C25.0324 58.9058 23.1628 60.3631 20.6826 60.3631C18.2024 60.3631 16.3328 58.9116 16.3328 56.4841Z" fill="black"/>
<path d="M25.7327 59.0247C25.7327 58.7653 25.8092 58.5117 25.9526 58.296C26.096 58.0803 26.2998 57.9122 26.5382 57.813C26.7767 57.7137 27.0391 57.6877 27.2922 57.7383C27.5453 57.7889 27.7778 57.9139 27.9603 58.0973C28.1428 58.2807 28.2671 58.5144 28.3175 58.7688C28.3678 59.0232 28.342 59.2869 28.2432 59.5266C28.1445 59.7662 27.9772 59.9711 27.7626 60.1152C27.548 60.2593 27.2957 60.3362 27.0376 60.3362C26.6921 60.3342 26.3614 60.1954 26.1171 59.9498C25.8728 59.7043 25.7347 59.3719 25.7327 59.0247Z" fill="black"/>
<path d="M31.4963 54.4747C31.4963 51.1384 33.9612 48.5805 37.361 48.5805C38.3227 48.5658 39.2722 48.7991 40.1185 49.2584C40.9649 49.7176 41.68 50.3874 42.1954 51.2036L39.9804 52.4998C39.4806 51.6254 38.5133 51.1077 37.3705 51.1077C35.373 51.1077 34.0833 52.4499 34.0833 54.4766C34.0833 56.5034 35.373 57.8456 37.3705 57.8456C38.5152 57.8456 39.4977 57.3279 39.9804 56.4535L42.1954 57.7497C41.2281 59.3527 39.4233 60.3728 37.361 60.3728C33.9612 60.3709 31.4963 57.8111 31.4963 54.4747Z" fill="black"/>
<path d="M43.403 54.4748C43.403 53.309 43.747 52.1694 44.3914 51.2001C45.0358 50.2308 45.9518 49.4754 47.0234 49.0292C48.095 48.5831 49.2742 48.4664 50.4118 48.6938C51.5494 48.9213 52.5944 49.4826 53.4146 50.3069C54.2348 51.1313 54.7934 52.1815 55.0196 53.3249C55.2459 54.4683 55.1298 55.6534 54.6859 56.7304C54.242 57.8075 53.4903 58.728 52.5259 59.3757C51.5615 60.0233 50.4276 60.369 49.2677 60.369C48.4957 60.3757 47.7301 60.2278 47.0156 59.9339C46.3011 59.64 45.6519 59.2061 45.106 58.6575C44.5601 58.1088 44.1284 57.4564 43.836 56.7383C43.5436 56.0202 43.3964 55.2507 43.403 54.4748ZM52.5606 54.4748C52.5606 52.45 51.1106 51.1058 49.2734 51.1058C47.4362 51.1058 45.9862 52.4481 45.9862 54.4748C45.9862 56.5015 47.4362 57.8438 49.2734 57.8438C51.1106 57.8438 52.5549 56.4996 52.5549 54.4748H52.5606Z" fill="black"/>
<path d="M65.7664 48.8066V60.1426H63.828L59.4782 53.9895V60.1426H56.9045V48.8066H58.8372L63.187 54.9597V48.8066H65.7664Z" fill="black"/>
<path d="M67.2966 57.5675L69.5212 56.2713C69.9237 57.2109 70.6162 57.8417 71.8888 57.8417C73.1136 57.8417 73.415 57.3566 73.415 56.9194C73.415 56.2234 72.7702 55.9473 71.0779 55.4775C69.3857 55.0077 67.7583 54.1986 67.7583 52.0261C67.7583 49.8536 69.5956 48.5747 71.5453 48.5747C73.3978 48.5747 74.8478 49.4663 75.6701 51.1326L73.4951 52.4115C73.1136 51.6023 72.5775 51.1 71.5453 51.1C70.7402 51.1 70.3377 51.5046 70.3377 51.959C70.3377 52.4767 70.6124 52.8334 72.3676 53.3683C74.0847 53.886 75.9925 54.4862 75.9925 56.883C75.9925 59.0689 74.2525 60.3651 71.7953 60.3651C69.441 60.3708 67.9262 59.2357 67.2966 57.5675Z" fill="black"/>
<path d="M77.8506 56.4841V48.8143H80.4261V56.2636C80.4261 57.1226 80.8287 57.8512 82.1985 57.8512C83.5683 57.8512 83.9709 57.1226 83.9709 56.2636V48.8066H86.5483V56.4764C86.5483 58.9058 84.6787 60.3631 82.1985 60.3631C79.7184 60.3631 77.8506 58.9116 77.8506 56.4841Z" fill="black"/>
<path d="M95.9769 57.6499V60.1426H89.3701V48.8066H91.9476V57.648L95.9769 57.6499Z" fill="black"/>
<path d="M104.194 51.3013H101.294V60.1426H98.7165V51.3013H95.8167V48.8086H104.196L104.194 51.3013Z" fill="black"/>
<path d="M108.544 48.8066V60.1426H105.966V48.8066H108.544Z" fill="black"/>
<path d="M119.662 48.8066V60.1426H117.73L113.38 53.9895V60.1426H110.799V48.8066H112.731L117.081 54.9597V48.8066H119.662Z" fill="black"/>
<path d="M132.762 54.7987C132.762 58.2635 130.362 60.3689 127.202 60.3689C123.657 60.3689 121.112 57.7458 121.112 54.49C121.108 53.7097 121.258 52.9364 121.554 52.215C121.85 51.4937 122.286 50.8388 122.837 50.2886C123.387 49.7384 124.041 49.3038 124.761 49.0102C125.48 48.7166 126.25 48.5698 127.027 48.5785C129.186 48.5785 131.006 49.6465 131.956 51.169L129.764 52.4326C129.297 51.6886 128.282 51.1057 127.009 51.1057C125.102 51.1057 123.69 52.515 123.69 54.5072C123.69 56.4343 125.043 57.8436 127.235 57.8436C128.732 57.8436 129.715 57.1802 130.119 56.0949H127.107V53.8265H132.762V54.7987Z" fill="black"/>
<path d="M30.2618 74.117H28.7737L28.3692 75.2483H27.8884L29.4242 71.1047H29.6436L31.1852 75.2483H30.6758L30.2618 74.117ZM28.9263 73.6971H30.1149L29.6646 72.4565L29.5196 71.8391L29.3746 72.468L28.9263 73.6971Z" fill="black"/>
<path d="M35.4015 71.5995H33.7093V75.2426H33.2285V71.1719H35.4015V71.5995Z" fill="black"/>
<path d="M37.3093 71.1719H39.5186V71.6033H37.7901V72.9455H39.3736V73.3769H37.7901V74.815H39.5472V75.2465H37.3093V71.1719Z" fill="black"/>
<path d="M44.3493 73.3769H42.3995V75.2465H41.9187V71.1719H42.3995V72.9494H44.3493V71.1719H44.83V75.2503H44.3493V73.3769Z" fill="black"/>
<path d="M49.943 71.5995H48.68V75.2426H48.1993V71.5995H46.9363V71.1719H49.9449L49.943 71.5995Z" fill="black"/>
<path d="M54.3673 75.0797C54.2372 75.1773 54.0863 75.2429 53.9266 75.2715C53.7379 75.3074 53.5462 75.3247 53.3542 75.3233C53.1201 75.3254 52.8878 75.2831 52.6693 75.1986C52.457 75.1151 52.2664 74.984 52.1122 74.8151C51.941 74.6256 51.8111 74.4023 51.7307 74.1594C51.6319 73.8537 51.5848 73.5335 51.5914 73.2121C51.5833 72.882 51.6357 72.5531 51.7459 72.2419C51.8345 71.9984 51.9729 71.7763 52.1523 71.59C52.3137 71.4259 52.5091 71.2995 52.7246 71.2199C52.9284 71.1431 53.1442 71.1035 53.3619 71.103C53.5534 71.1 53.7448 71.1128 53.9342 71.1413C54.0647 71.1612 54.1926 71.1953 54.3158 71.2429L54.1994 71.6744C53.9486 71.5686 53.6774 71.5208 53.4057 71.5344C53.2453 71.535 53.0862 71.5648 52.9364 71.6226C52.7779 71.6837 52.6361 71.7816 52.5224 71.9083C52.3904 72.0586 52.291 72.2349 52.2305 72.426C52.151 72.6802 52.1136 72.9458 52.1199 73.2121C52.1154 73.461 52.1509 73.709 52.2248 73.9465C52.2843 74.1391 52.3816 74.3177 52.511 74.4719C52.6282 74.6084 52.775 74.716 52.9402 74.7864C53.11 74.8576 53.2924 74.8935 53.4763 74.8918C53.6299 74.8945 53.7832 74.8771 53.9323 74.8401C54.0474 74.8111 54.1579 74.7659 54.2604 74.7058L54.3673 75.0797Z" fill="black"/>
<path d="M59.0453 71.5995H57.7823V75.2426H57.3016V71.5995H56.0386V71.1719H59.0472L59.0453 71.5995Z" fill="black"/>
<path d="M63.5973 72.1019C63.5969 72.2027 63.5814 72.3029 63.5515 72.3991C63.5203 72.5 63.4733 72.5951 63.4122 72.681C63.3471 72.7714 63.2663 72.8494 63.1737 72.9111C63.0693 72.9807 62.9538 73.0319 62.8322 73.0626V73.0894C62.9472 73.1087 63.0593 73.1422 63.1661 73.1891C63.2708 73.2347 63.3659 73.2998 63.4465 73.3809C63.5282 73.467 63.5929 73.5678 63.6373 73.6781C63.6907 73.8094 63.7167 73.9504 63.7136 74.0922C63.7186 74.282 63.6739 74.4698 63.5839 74.6368C63.5012 74.7895 63.3843 74.9208 63.2424 75.0203C63.0949 75.1207 62.9308 75.194 62.7578 75.237C62.5757 75.2832 62.3886 75.3064 62.2007 75.306H61.968C61.8789 75.306 61.7861 75.306 61.6894 75.306C61.5928 75.306 61.4961 75.2983 61.3995 75.283C61.3132 75.275 61.2277 75.2603 61.1438 75.2389V71.2046C61.2862 71.1815 61.4522 71.1624 61.6417 71.147C61.8312 71.1317 62.0379 71.124 62.2618 71.124C62.4165 71.1244 62.5709 71.1372 62.7235 71.1624C62.8728 71.1853 63.0168 71.2346 63.1489 71.3081C63.2773 71.3803 63.386 71.483 63.4656 71.6072C63.5566 71.7557 63.6023 71.9276 63.5973 72.1019ZM61.9336 72.9648H62.1721C62.265 72.9648 62.3425 72.959 62.4049 72.9475C62.4952 72.9178 62.5827 72.8799 62.6662 72.8344C62.7451 72.7915 62.8182 72.7387 62.8837 72.6772C62.9469 72.6178 62.998 72.5469 63.0345 72.4682C63.0716 72.387 63.0905 72.2986 63.0898 72.2093C63.0941 72.0986 63.0691 71.9888 63.0173 71.891C62.9698 71.8127 62.9044 71.747 62.8265 71.6993C62.7407 71.6473 62.6464 71.6109 62.548 71.5919C62.4431 71.5703 62.3364 71.5594 62.2294 71.5593C62.1022 71.5593 61.9852 71.5593 61.8783 71.5593C61.7977 71.5624 61.7173 71.5714 61.6379 71.5861V72.9725L61.9336 72.9648ZM62.2522 74.8822C62.3732 74.8824 62.4936 74.8676 62.6109 74.8381C62.7212 74.8115 62.8254 74.764 62.9181 74.6982C63.0052 74.6362 63.0775 74.5557 63.1299 74.4623C63.1841 74.3604 63.211 74.2461 63.2081 74.1306C63.2143 73.9961 63.1811 73.8628 63.1127 73.7471C63.0501 73.6508 62.9641 73.5723 62.8628 73.5189C62.7547 73.4626 62.6379 73.425 62.5174 73.4077C62.3911 73.3886 62.2636 73.379 62.1359 73.3789H61.6322V74.842C61.6704 74.8513 61.7093 74.8571 61.7486 74.8592L61.9107 74.8707H62.0901L62.2522 74.8822Z" fill="black"/>
<path d="M65.8751 73.2082C65.8751 72.5281 66.0182 72.0066 66.3044 71.6435C66.4508 71.462 66.638 71.3179 66.8506 71.2232C67.0632 71.1286 67.2951 71.086 67.5273 71.099C67.7829 71.0926 68.0366 71.1444 68.2694 71.2504C68.4745 71.3483 68.6526 71.4951 68.7884 71.678C68.9325 71.8769 69.0362 72.1023 69.0936 72.3415C69.1623 72.6244 69.1957 72.915 69.1928 73.2062C69.1928 73.8863 69.0491 74.4078 68.7616 74.7709C68.6135 74.9529 68.4246 75.097 68.2104 75.1917C67.9962 75.2863 67.7628 75.3287 67.5292 75.3154C67.2767 75.3216 67.0261 75.2698 66.7966 75.164C66.593 75.0655 66.4162 74.9187 66.2815 74.7364C66.1372 74.5376 66.0335 74.3121 65.9762 74.0729C65.9068 73.79 65.8728 73.4995 65.8751 73.2082ZM66.3845 73.2082C66.3835 73.4234 66.4059 73.6382 66.4513 73.8486C66.4903 74.0365 66.5599 74.2165 66.6573 74.3816C66.7458 74.5303 66.8681 74.6558 67.0141 74.7479C67.1689 74.8411 67.3468 74.8883 67.5273 74.884C67.6911 74.8905 67.854 74.8565 68.0017 74.785C68.1494 74.7134 68.2774 74.6065 68.3744 74.4737C68.5791 74.2001 68.6815 73.7776 68.6815 73.2062C68.6822 72.9916 68.6599 72.7775 68.6147 72.5677C68.5764 72.3782 68.506 72.1966 68.4068 72.0308C68.3169 71.8826 68.1941 71.7573 68.0481 71.6646C67.8917 71.5703 67.7116 71.523 67.5292 71.5285C67.3664 71.5219 67.2046 71.5559 67.0581 71.6275C66.9116 71.6991 66.7851 71.8061 66.6898 71.9388C66.4875 72.2136 66.3864 72.6368 66.3864 73.2082H66.3845Z" fill="black"/>
<path d="M74.405 73.2082C74.405 72.5281 74.5481 72.0066 74.8342 71.6435C74.9806 71.462 75.1678 71.3179 75.3804 71.2232C75.593 71.1286 75.825 71.086 76.0571 71.099C76.3127 71.0927 76.5664 71.1444 76.7993 71.2504C77.0043 71.3484 77.1825 71.4952 77.3182 71.678C77.4623 71.8769 77.566 72.1023 77.6235 72.3415C77.6922 72.6245 77.7255 72.915 77.7227 73.2062C77.7227 73.8863 77.579 74.4078 77.2915 74.7709C77.1433 74.9529 76.9544 75.097 76.7402 75.1917C76.5261 75.2863 76.2926 75.3287 76.059 75.3154C75.8066 75.3216 75.556 75.2698 75.3264 75.164C75.1221 75.0657 74.9447 74.919 74.8094 74.7364C74.6653 74.5375 74.5615 74.3121 74.5042 74.0729C74.4353 73.79 74.402 73.4994 74.405 73.2082ZM74.9144 73.2082C74.9133 73.4234 74.9357 73.6382 74.9811 73.8486C75.0201 74.0365 75.0898 74.2166 75.1872 74.3816C75.2756 74.5304 75.3979 74.6559 75.5439 74.7479C75.6987 74.8411 75.8767 74.8883 76.0571 74.884C76.221 74.8905 76.3839 74.8565 76.5316 74.785C76.6793 74.7134 76.8072 74.6065 76.9042 74.4737C77.109 74.2001 77.2114 73.7776 77.2114 73.2062C77.2122 72.9916 77.1898 72.7775 77.1446 72.5677C77.1063 72.3782 77.0359 72.1966 76.9367 72.0308C76.8467 71.8826 76.724 71.7573 76.578 71.6646C76.4215 71.5703 76.2414 71.523 76.059 71.5285C75.8966 71.5222 75.7352 71.5564 75.589 71.628C75.4429 71.6996 75.3167 71.8063 75.2215 71.9388C75.0167 72.2136 74.9144 72.6368 74.9144 73.2082Z" fill="black"/>
<path d="M83.3738 76H83.0438L82.956 75.2484H80.0447V71.1719H80.5255V74.815H82.3512V71.1719H82.832V74.815H83.3719L83.3738 76Z" fill="black"/>
<path d="M85.5354 71.1719H87.7446V71.6033H86.0162V72.9455H87.5996V73.3769H86.0162V74.815H87.7733V75.2465H85.5354V71.1719Z" fill="black"/>
<path d="M92.5808 73.3769H90.633V75.2465H90.156V71.1719H90.6368V72.9494H92.5847V71.1719H93.0654V75.2503H92.5847L92.5808 73.3769Z" fill="black"/>
<path d="M96.3088 73.3597H96.0359V75.2484H95.5552V71.1719H96.0359V73.0721L96.2973 72.9915L97.6595 71.1738H98.2166L96.8601 72.9283L96.6159 73.12L96.9116 73.3539L98.3959 75.2541H97.7873L96.3088 73.3597Z" fill="black"/>
<path d="M103.08 72.4853L103.114 72.0194H103.091L102.841 72.4968L100.882 75.2465H100.598V71.1719H101.078V73.9694L101.031 74.4315H101.054L101.309 73.9541L103.269 71.1738H103.553V75.2522H103.072L103.08 72.4853Z" fill="black"/>
<path d="M55.8153 4.06102V5.97847C55.8102 7.00641 55.3992 7.99025 54.6726 8.7137C53.946 9.43714 52.9632 9.84097 51.9405 9.83638H50.0326C49.1321 9.82918 48.2577 10.1401 47.5621 10.7148C46.8664 11.2896 46.3937 12.0917 46.2265 12.981C46.0579 13.9046 45.9711 14.8414 45.9671 15.7805C45.9625 16.8084 46.3643 17.7961 47.0841 18.5264C47.8039 19.2566 48.7828 19.6697 49.8056 19.6748L61.6913 19.7285C62.7111 19.7275 63.6891 19.3207 64.4112 18.597C65.1334 17.8733 65.5411 16.8917 65.5451 15.8668L65.5986 3.92105C65.6011 2.8941 65.1982 1.9081 64.4781 1.17943C63.7581 0.450758 62.7799 0.0389475 61.7581 0.0343796C60.8252 0.0296762 59.8938 0.107958 58.9746 0.268309C58.0898 0.429321 57.2891 0.896978 56.7119 1.58993C56.1347 2.28288 55.8174 3.15728 55.8153 4.06102Z" fill="#39B54A"/>
<path d="M50.0078 31.9159H51.9156C52.9384 31.9209 53.9173 32.334 54.6371 33.0643C55.3569 33.7946 55.7587 34.7823 55.7542 35.8102V37.7277C55.747 38.6327 56.0563 39.5115 56.6282 40.2107C57.2001 40.9098 57.9981 41.3849 58.883 41.553C59.802 41.7224 60.7341 41.8097 61.6684 41.8137C62.6889 41.8188 63.6698 41.4174 64.3964 40.6972C65.123 39.977 65.536 38.9968 65.5451 37.9712L65.5985 26.0255C65.6031 24.9975 65.2013 24.0098 64.4815 23.2796C63.7617 22.5493 62.7827 22.1362 61.76 22.1311L49.8743 22.0774C48.8515 22.0728 47.8688 22.4767 47.1421 23.2001C46.4155 23.9236 46.0045 24.9074 45.9995 25.9353C45.9948 26.8729 46.0727 27.8091 46.2322 28.7329C46.3909 29.6239 46.8558 30.4307 47.5458 31.0124C48.2358 31.5941 49.1072 31.9138 50.0078 31.9159Z" fill="#39B54A"/>
<path d="M77.5968 37.7718V35.8543C77.6019 34.8264 78.0129 33.8425 78.7395 33.1191C79.4661 32.3956 80.4488 31.9918 81.4716 31.9964H83.3794C84.2799 32.0036 85.1543 31.6927 85.85 31.1179C86.5456 30.5432 87.0183 29.7411 87.1855 28.8518C87.3542 27.9282 87.441 26.9913 87.445 26.0523C87.4496 25.0244 87.0478 24.0367 86.3279 23.3064C85.6081 22.5761 84.6292 22.163 83.6065 22.158L71.7207 22.1043C70.6979 22.0997 69.7152 22.5035 68.9886 23.227C68.262 23.9504 67.851 24.9343 67.8459 25.9622L67.7925 37.9079C67.7903 38.4185 67.8884 38.9245 68.0812 39.3969C68.2741 39.8693 68.5579 40.2987 68.9163 40.6606C69.2747 41.0224 69.7008 41.3095 70.1699 41.5055C70.6391 41.7014 71.1421 41.8022 71.6501 41.8022C72.583 41.8069 73.5145 41.7286 74.4336 41.5683C75.3198 41.408 76.1219 40.9401 76.6999 40.2463C77.278 39.5525 77.5954 38.6767 77.5968 37.7718Z" fill="#39B54A"/>
<path d="M83.3947 9.91329H81.4869C80.4641 9.90822 79.4852 9.49513 78.7654 8.76486C78.0456 8.03458 77.6438 7.04689 77.6484 6.01895V4.1015C77.6555 3.19646 77.3462 2.31763 76.7743 1.61847C76.2024 0.919314 75.4044 0.44424 74.5195 0.276196C73.6005 0.106722 72.6684 0.0194533 71.7341 0.0154195C70.7113 0.0108316 69.7286 0.414654 69.002 1.1381C68.2754 1.86155 67.8644 2.84539 67.8593 3.87333L67.8059 15.819C67.8054 16.8453 68.2098 17.8299 68.9304 18.557C69.651 19.2842 70.6291 19.6945 71.6502 19.698L83.5359 19.7517C84.5587 19.7563 85.5414 19.3525 86.268 18.629C86.9946 17.9056 87.4056 16.9217 87.4107 15.8938C87.4154 14.9562 87.3375 14.02 87.1779 13.0963C87.019 12.2039 86.553 11.3962 85.8614 10.8143C85.1698 10.2325 84.2967 9.91351 83.3947 9.91329Z" fill="#39B54A"/>
<path d="M133 67.0916H0.406494V67.2833H133V67.0916Z" fill="black"/>
</g>
<defs>
<clipPath id="clip0">
<rect width="133" height="76" fill="white"/>
</clipPath>
</defs>
</svg>
