<svg width="269" height="49" viewBox="0 0 269 49" fill="none" xmlns="http://www.w3.org/2000/svg">
<g clip-path="url(#clip0)">
<path d="M11.5903 4.75445V7.00936C11.5839 8.21291 11.1008 9.36468 10.2471 10.2115C9.39348 11.0583 8.23911 11.5308 7.03782 11.5252H4.78714C3.72902 11.5155 2.70119 11.879 1.88371 12.5522C1.06622 13.2253 0.511194 14.1652 0.31583 15.2071C0.11921 16.2889 0.0186534 17.3861 0.0153385 18.4857C0.00974531 19.6892 0.4814 20.8457 1.32661 21.701C2.17183 22.5563 3.32142 23.0403 4.52271 23.0467L18.4895 23.1099C19.6908 23.1155 20.8452 22.6429 21.6989 21.7961C22.5525 20.9493 23.0356 19.7976 23.042 18.594L23.1051 4.60091C23.1107 3.39736 22.639 2.24083 21.7938 1.38556C20.9486 0.53029 19.799 0.0462737 18.5977 0.0399018C17.502 0.0344568 16.408 0.126136 15.3284 0.313865C14.2835 0.495194 13.3358 1.03985 12.6521 1.85205C11.9684 2.66425 11.5924 3.69196 11.5903 4.75445Z" fill="#39B54A"/>
<path d="M4.78683 37.3883H7.03751C8.2388 37.3947 9.38841 37.8787 10.2336 38.734C11.0788 39.5893 11.5505 40.7458 11.5449 41.9494V44.2043C11.5352 45.2644 11.898 46.2941 12.5699 47.1132C13.2418 47.9322 14.1799 48.4883 15.2199 48.684C16.2997 48.881 17.3947 48.9817 18.4922 48.9851C19.6935 48.9907 20.8479 48.5181 21.7016 47.6713C22.5552 46.8245 23.0383 45.6728 23.0447 44.4692L23.1078 30.4761C23.1134 29.2725 22.6417 28.116 21.7965 27.2607C20.9513 26.4055 19.8017 25.9215 18.6004 25.9151L4.63358 25.8519C3.43228 25.8463 2.27794 26.3188 1.42427 27.1656C0.570607 28.0124 0.0874906 29.1642 0.0811306 30.3677C0.0756958 31.4655 0.167203 32.5616 0.354579 33.6432C0.535568 34.6901 1.07921 35.6395 1.88988 36.3245C2.70056 37.0095 3.72634 37.3862 4.78683 37.3883Z" fill="#39B54A"/>
<path d="M37.1948 44.2464V41.9914C37.2012 40.7879 37.6843 39.6361 38.538 38.7893C39.3916 37.9425 40.546 37.47 41.7473 37.4756H43.998C45.0561 37.4853 46.0839 37.1218 46.9014 36.4486C47.7189 35.7754 48.2739 34.8356 48.4693 33.7937C48.6659 32.7119 48.7664 31.6147 48.7698 30.5151C48.7754 29.3116 48.3037 28.1551 47.4585 27.2998C46.6133 26.4445 45.4637 25.9605 44.2624 25.9541L30.2956 25.8909C29.0943 25.8853 27.9399 26.3579 27.0862 27.2047C26.2326 28.0515 25.7495 29.2032 25.7431 30.4068L25.68 44.3999C25.6744 45.6034 26.1461 46.76 26.9913 47.6152C27.8365 48.4705 28.9861 48.9545 30.1874 48.9609C31.2831 48.9663 32.3771 48.8747 33.4567 48.6869C34.5016 48.5056 35.4493 47.9609 36.133 47.1487C36.8167 46.3365 37.1927 45.3088 37.1948 44.2464Z" fill="#39B54A"/>
<path d="M44.01 11.6117H41.7593C41.1625 11.6102 40.5718 11.4905 40.0213 11.2595C39.4707 11.0286 38.9711 10.691 38.5512 10.2661C38.1312 9.84113 37.7992 9.33727 37.5742 8.78342C37.3492 8.22957 37.2356 7.63664 37.2399 7.03867V4.78376C37.2497 3.72364 36.8868 2.69389 36.2149 1.87486C35.543 1.05584 34.6049 0.499768 33.5649 0.304036C32.4852 0.107062 31.3901 0.00631586 30.2926 0.00297896C29.0913 -0.00262474 27.9369 0.469908 27.0833 1.31671C26.2296 2.16352 25.7465 3.31528 25.7401 4.51883L25.677 18.5119C25.6714 19.7155 26.1431 20.872 26.9883 21.7273C27.8335 22.5826 28.9831 23.0666 30.1844 23.073L44.1512 23.1362C45.3525 23.1418 46.5069 22.6692 47.3605 21.8224C48.2142 20.9756 48.6973 19.8239 48.7037 18.6203C48.7091 17.5225 48.6176 16.4264 48.4302 15.3448C48.2471 14.3022 47.7041 13.3571 46.8962 12.6748C46.0882 11.9924 45.0667 11.6162 44.01 11.6117Z" fill="#39B54A"/>
<path d="M77.8664 13.936C77.8664 19.3821 74.0862 22.6937 69.11 22.6937C63.5269 22.6937 59.5183 18.5752 59.5183 13.4633C59.5115 12.2382 59.7481 11.024 60.2145 9.89142C60.6808 8.75887 61.3675 7.73066 62.2346 6.86675C63.1016 6.00283 64.1317 5.32049 65.2646 4.8595C66.3976 4.39852 67.6108 4.16812 68.8336 4.18172C72.2352 4.18172 75.1018 5.8586 76.5983 8.24899L73.1456 10.233C72.4094 9.06486 70.8108 8.14965 68.8065 8.14965C65.8016 8.14965 63.578 10.3624 63.578 13.4904C63.578 16.516 65.7085 18.7288 69.1611 18.7288C71.52 18.7288 73.0675 17.6871 73.7046 15.9831H68.9598V12.4096H77.8664V13.936Z" fill="#231F20"/>
<path d="M78.3321 20.5863C78.3321 20.179 78.4527 19.7809 78.6785 19.4423C78.9044 19.1036 79.2254 18.8397 79.6009 18.6838C79.9765 18.528 80.3898 18.4872 80.7885 18.5667C81.1872 18.6461 81.5534 18.8422 81.8408 19.1302C82.1283 19.4182 82.324 19.7851 82.4033 20.1846C82.4827 20.584 82.442 20.9981 82.2864 21.3744C82.1308 21.7506 81.8674 22.0722 81.5294 22.2985C81.1914 22.5248 80.794 22.6456 80.3875 22.6456C79.8433 22.6424 79.3224 22.4244 78.9376 22.0389C78.5528 21.6534 78.3353 21.1315 78.3321 20.5863Z" fill="#231F20"/>
<path d="M85.2434 16.5822V4.53988H89.3031V16.2359C89.3031 17.5847 89.9371 18.7287 92.0946 18.7287C94.2522 18.7287 94.8862 17.5847 94.8862 16.2359V4.52783H98.9458V16.5701C98.9458 20.3845 96.001 22.6725 92.0946 22.6725C88.1882 22.6725 85.2434 20.3935 85.2434 16.5822Z" fill="#231F20"/>
<path d="M100.043 20.5863C100.043 20.179 100.163 19.7809 100.389 19.4423C100.615 19.1036 100.936 18.8397 101.311 18.6838C101.687 18.528 102.1 18.4872 102.499 18.5667C102.898 18.6461 103.264 18.8422 103.551 19.1302C103.839 19.4182 104.035 19.7851 104.114 20.1846C104.193 20.584 104.152 20.9981 103.997 21.3744C103.841 21.7506 103.578 22.0722 103.24 22.2985C102.902 22.5248 102.505 22.6456 102.098 22.6456C101.554 22.6424 101.033 22.4244 100.648 22.0389C100.263 21.6534 100.046 21.1315 100.043 20.5863Z" fill="#231F20"/>
<path d="M109.126 13.4271C109.126 8.18876 113.009 4.17266 118.364 4.17266C119.878 4.14952 121.374 4.51598 122.707 5.23702C124.04 5.95806 125.166 7.00959 125.978 8.29112L122.477 10.3263C121.69 8.95344 120.167 8.14059 118.367 8.14059C115.22 8.14059 113.189 10.248 113.189 13.4302C113.189 16.6123 115.22 18.7197 118.367 18.7197C120.17 18.7197 121.717 17.9069 122.477 16.534L125.978 18.5692C124.455 21.08 121.615 22.6937 118.373 22.6937C113.009 22.6937 109.126 18.6655 109.126 13.4271Z" fill="#231F20"/>
<path d="M127.88 13.4271C127.883 11.5974 128.426 9.80946 129.443 8.28922C130.459 6.76898 131.902 5.58468 133.59 4.88599C135.278 4.1873 137.135 4.00557 138.926 4.36377C140.717 4.72197 142.361 5.60403 143.652 6.89847C144.943 8.19291 145.822 9.84163 146.177 11.6363C146.533 13.431 146.35 15.291 145.651 16.9814C144.952 18.6718 143.768 20.1166 142.25 21.1334C140.732 22.1501 138.947 22.6931 137.12 22.6937C135.903 22.7045 134.696 22.4722 133.569 22.0102C132.443 21.5483 131.419 20.866 130.559 20.0032C129.699 19.1404 129.019 18.1145 128.559 16.9854C128.099 15.8563 127.868 14.6466 127.88 13.4271ZM142.304 13.4271C142.304 10.248 140.02 8.13757 137.126 8.13757C134.233 8.13757 131.949 10.245 131.949 13.4271C131.949 16.6093 134.233 18.7167 137.126 18.7167C140.02 18.7167 142.295 16.6063 142.295 13.4271H142.304Z" fill="#231F20"/>
<path d="M163.107 4.52783V22.3263H160.063L153.212 12.6654V22.3263H149.152V4.52783H152.196L159.047 14.1887V4.52783H163.107Z" fill="#231F20"/>
<path d="M165.517 18.2832L169.02 16.2481C169.655 17.7233 170.745 18.7138 172.753 18.7138C174.682 18.7138 175.156 17.9521 175.156 17.2657C175.156 16.1728 174.141 15.7393 171.475 15.0017C168.81 14.2641 166.247 12.9937 166.247 9.58272C166.247 6.17174 169.141 4.1637 172.212 4.1637C175.129 4.1637 177.413 5.56361 178.708 8.17979L175.283 10.1878C174.682 8.91738 173.837 8.12861 172.212 8.12861C170.944 8.12861 170.31 8.76384 170.31 9.47735C170.31 10.2902 170.742 10.8502 173.507 11.6901C176.211 12.503 179.216 13.4453 179.216 17.2085C179.216 20.6405 176.476 22.6757 172.605 22.6757C168.891 22.6937 166.505 20.9024 165.517 18.2832Z" fill="#231F20"/>
<path d="M182.137 16.5822V4.53988H186.197V16.2359C186.197 17.5847 186.831 18.7287 188.988 18.7287C191.146 18.7287 191.78 17.5847 191.78 16.2359V4.52783H195.839V16.5701C195.839 20.3845 192.895 22.6725 188.988 22.6725C185.082 22.6725 182.137 20.3935 182.137 16.5822Z" fill="#231F20"/>
<path d="M210.687 18.4126V22.3263H200.281V4.52783H204.34V18.4096L210.687 18.4126Z" fill="#231F20"/>
<path d="M223.632 8.44462H219.064V22.3264H215.005V8.44462H210.437V4.53088H223.635L223.632 8.44462Z" fill="#231F20"/>
<path d="M230.483 4.52783V22.3263H226.423V4.52783H230.483Z" fill="#231F20"/>
<path d="M247.993 4.52783V22.3263H244.949L238.097 12.6654V22.3263H234.038V4.52783H237.067L243.918 14.1887V4.52783H247.993Z" fill="#231F20"/>
<path d="M268.618 13.9359C268.618 19.376 264.838 22.6816 259.862 22.6816C254.279 22.6816 250.27 18.5632 250.27 13.4512C250.263 12.2261 250.5 11.0119 250.966 9.87933C251.433 8.74679 252.12 7.71859 252.987 6.85467C253.854 5.99076 254.884 5.30841 256.017 4.84743C257.15 4.38644 258.363 4.15603 259.586 4.16964C262.987 4.16964 265.854 5.84653 267.35 8.23692L263.898 10.2209C263.161 9.05278 261.563 8.13756 259.559 8.13756C256.554 8.13756 254.33 10.3503 254.33 13.4783C254.33 16.5039 256.46 18.7167 259.913 18.7167C262.272 18.7167 263.82 17.6751 264.457 15.9711H259.712V12.4096H268.618V13.9359Z" fill="#231F20"/>
<path d="M64.813 44.2674H62.4812L61.8442 46.0436H61.0869L63.4969 39.5529H63.8424L66.2704 46.0587H65.4681L64.813 44.2674ZM62.7096 43.6081H64.5846L63.8785 41.6603L63.6501 40.6909L63.4217 41.6783L62.7096 43.6081Z" fill="#231F20"/>
<path d="M72.9203 40.3146H70.2549V46.0347H69.4977V39.6372H72.9233L72.9203 40.3146Z" fill="#231F20"/>
<path d="M75.9072 39.6372H79.3869V40.3146H76.6644V42.422H79.1585V43.0994H76.6644V45.3783H79.4319V46.0557H75.9072V39.6372Z" fill="#231F20"/>
<path d="M87.0013 43.1054H83.9333V46.0407H83.1761V39.6372H83.9333V42.428H87.0013V39.6372H87.7585V46.0407H87.0013V43.1054Z" fill="#231F20"/>
<path d="M95.8147 40.3146H93.8225V46.0347H93.0652V40.3146H91.076V39.6372H95.8147V40.3146Z" fill="#231F20"/>
<path d="M102.78 45.7786C102.575 45.9318 102.338 46.0349 102.086 46.0797C101.789 46.1361 101.487 46.1633 101.185 46.161C100.816 46.1643 100.45 46.0979 100.106 45.9653C99.7713 45.8342 99.4711 45.6283 99.2283 45.3632C98.9586 45.0656 98.7539 44.7149 98.6273 44.3336C98.4718 43.8536 98.3976 43.3509 98.408 42.8463C98.3952 42.3279 98.4777 41.8115 98.6514 41.323C98.7909 40.9407 99.0089 40.592 99.2914 40.2994C99.5457 40.0418 99.8535 39.8434 100.193 39.7184C100.514 39.5977 100.854 39.5355 101.197 39.5347C101.498 39.5301 101.8 39.5502 102.098 39.5949C102.304 39.6262 102.505 39.6797 102.699 39.7545L102.516 40.4319C102.121 40.2659 101.693 40.1908 101.266 40.2121C101.013 40.213 100.762 40.2599 100.526 40.3506C100.277 40.4465 100.053 40.6002 99.8744 40.7992C99.6665 41.0352 99.5099 41.3121 99.4146 41.612C99.2893 42.0111 99.2304 42.4281 99.2403 42.8463C99.2334 43.2371 99.2892 43.6264 99.4056 43.9994C99.4994 44.3017 99.6527 44.5822 99.8563 44.8243C100.041 45.0386 100.272 45.2075 100.532 45.318C100.8 45.4299 101.087 45.4863 101.377 45.4836C101.619 45.4878 101.86 45.4605 102.095 45.4023C102.276 45.3569 102.45 45.2859 102.612 45.1916L102.78 45.7786Z" fill="#231F20"/>
<path d="M110.151 40.3146H108.156V46.0347H107.399V40.3146H105.409V39.6372H110.148L110.151 40.3146Z" fill="#231F20"/>
<path d="M117.318 41.1034C117.317 41.2617 117.293 41.419 117.246 41.57C117.197 41.7283 117.123 41.8777 117.026 42.0126C116.924 42.1546 116.797 42.2769 116.651 42.3738C116.486 42.4832 116.304 42.5636 116.113 42.6117V42.6478C116.294 42.6781 116.471 42.7306 116.639 42.8044C116.804 42.876 116.953 42.9782 117.081 43.1054C117.209 43.2407 117.311 43.399 117.381 43.572C117.464 43.7785 117.504 43.9998 117.498 44.2223C117.506 44.5204 117.436 44.8152 117.294 45.0773C117.164 45.3172 116.979 45.5233 116.756 45.6794C116.524 45.837 116.265 45.9522 115.993 46.0196C115.706 46.0923 115.411 46.1287 115.115 46.128H114.767C114.626 46.128 114.48 46.128 114.328 46.128C114.176 46.128 114.023 46.116 113.871 46.0919C113.735 46.0794 113.601 46.0562 113.469 46.0227V39.6944C113.693 39.6583 113.954 39.6282 114.253 39.6041C114.551 39.58 114.877 39.568 115.229 39.568C115.473 39.5686 115.716 39.5887 115.957 39.6282C116.192 39.6642 116.419 39.7416 116.627 39.857C116.829 39.9703 117 40.1316 117.126 40.3267C117.264 40.5614 117.33 40.8313 117.318 41.1034ZM114.698 42.4582H115.073C115.219 42.4582 115.342 42.4491 115.44 42.431C115.582 42.3844 115.72 42.3249 115.851 42.2534C115.976 42.1861 116.091 42.1031 116.194 42.0066C116.293 41.9135 116.374 41.802 116.431 41.6784C116.49 41.551 116.52 41.4122 116.519 41.272C116.525 41.0982 116.486 40.9257 116.404 40.7722C116.33 40.6493 116.227 40.5461 116.104 40.4712C115.969 40.3895 115.82 40.3324 115.665 40.3026C115.5 40.2687 115.332 40.2516 115.163 40.2514C114.963 40.2514 114.779 40.2514 114.61 40.2514C114.483 40.2563 114.357 40.2704 114.232 40.2936V42.4702L114.698 42.4582ZM115.199 45.4687C115.39 45.469 115.58 45.4457 115.764 45.3995C115.938 45.3575 116.102 45.283 116.248 45.1797C116.385 45.0825 116.499 44.956 116.582 44.8094C116.667 44.6494 116.71 44.4699 116.705 44.2886C116.715 44.0775 116.662 43.8681 116.555 43.6864C116.456 43.5353 116.321 43.412 116.161 43.3282C115.991 43.2397 115.807 43.1807 115.617 43.1536C115.418 43.1236 115.217 43.1085 115.016 43.1084H114.223V45.4055C114.283 45.4202 114.344 45.4293 114.406 45.4326L114.662 45.4507H114.944L115.199 45.4687Z" fill="#231F20"/>
<path d="M120.909 42.8404C120.909 41.7726 121.134 40.9537 121.585 40.3837C121.815 40.0987 122.11 39.8725 122.445 39.7239C122.78 39.5752 123.145 39.5083 123.511 39.5287C123.914 39.5187 124.313 39.6 124.68 39.7666C125.003 39.9203 125.283 40.1507 125.497 40.4379C125.724 40.7501 125.888 41.1041 125.978 41.4796C126.086 41.9239 126.139 42.38 126.134 42.8373C126.134 43.9051 125.908 44.724 125.455 45.294C125.222 45.5797 124.924 45.8061 124.587 45.9546C124.25 46.1032 123.882 46.1698 123.514 46.149C123.116 46.1587 122.722 46.0773 122.36 45.9111C122.039 45.7565 121.761 45.5261 121.549 45.2398C121.322 44.9277 121.158 44.5737 121.068 44.1981C120.959 43.754 120.905 43.2978 120.909 42.8404ZM121.711 42.8404C121.71 43.1784 121.745 43.5155 121.816 43.8459C121.878 44.1409 121.987 44.4236 122.141 44.6828C122.28 44.9163 122.473 45.1133 122.703 45.2578C122.946 45.4043 123.227 45.4784 123.511 45.4716C123.769 45.4818 124.026 45.4284 124.258 45.3161C124.491 45.2037 124.692 45.0359 124.845 44.8273C125.168 44.3978 125.329 43.7345 125.329 42.8373C125.33 42.5003 125.295 42.1642 125.224 41.8348C125.163 41.5372 125.053 41.2521 124.896 40.9919C124.755 40.7581 124.562 40.5602 124.331 40.4138C124.085 40.2657 123.801 40.1916 123.514 40.2001C123.258 40.1903 123.004 40.2439 122.774 40.3563C122.544 40.4687 122.345 40.6364 122.195 40.8443C121.872 41.2779 121.711 41.9432 121.711 42.8404Z" fill="#231F20"/>
<path d="M134.341 42.8404C134.341 41.7726 134.566 40.9537 135.017 40.3837C135.247 40.0987 135.542 39.8725 135.877 39.7239C136.212 39.5752 136.577 39.5083 136.943 39.5287C137.346 39.5187 137.745 39.6 138.112 39.7666C138.435 39.9202 138.716 40.1507 138.929 40.4379C139.156 40.7501 139.32 41.1041 139.41 41.4796C139.518 41.9239 139.571 42.38 139.566 42.8373C139.566 43.9051 139.34 44.724 138.887 45.294C138.654 45.5797 138.356 45.8061 138.019 45.9546C137.682 46.1032 137.314 46.1698 136.946 46.149C136.548 46.1587 136.154 46.0773 135.792 45.9111C135.471 45.7565 135.193 45.5261 134.981 45.2398C134.754 44.9277 134.59 44.5737 134.5 44.1981C134.391 43.754 134.337 43.2978 134.341 42.8404ZM135.143 42.8404C135.141 43.1784 135.177 43.5155 135.248 43.8459C135.31 44.1408 135.419 44.4236 135.573 44.6828C135.712 44.9163 135.905 45.1133 136.135 45.2578C136.378 45.4043 136.659 45.4784 136.943 45.4716C137.201 45.4818 137.458 45.4284 137.69 45.3161C137.923 45.2037 138.124 45.0359 138.277 44.8273C138.6 44.3978 138.761 43.7345 138.761 42.8373C138.762 42.5003 138.727 42.1642 138.656 41.8348C138.595 41.5372 138.485 41.2521 138.328 40.9919C138.187 40.7581 137.994 40.5602 137.763 40.4138C137.517 40.2657 137.233 40.1916 136.946 40.2001C136.69 40.1903 136.436 40.2439 136.206 40.3563C135.976 40.4687 135.777 40.6364 135.627 40.8443C135.306 41.2779 135.145 41.9432 135.143 42.8404Z" fill="#231F20"/>
<path d="M148.467 47.2238H147.947L147.809 46.0437H143.226V39.6372H143.983V45.3573H146.859V39.6372H147.616V45.3573H148.467V47.2238Z" fill="#231F20"/>
<path d="M151.874 39.6372H155.354V40.3146H152.629V42.422H155.123V43.0994H152.629V45.3783H155.396V46.0557H151.871L151.874 39.6372Z" fill="#231F20"/>
<path d="M162.969 43.1054H159.901V46.0407H159.143V39.6372H159.901V42.428H162.969V39.6372H163.726V46.0407H162.969V43.1054Z" fill="#231F20"/>
<path d="M168.855 43.0783H168.425V46.0437H167.653V39.6372H168.41V42.6207L168.822 42.4942L170.968 39.6402H171.86L169.724 42.3949L169.339 42.6959L169.805 43.0632L172.143 46.0467H171.184L168.855 43.0783Z" fill="#231F20"/>
<path d="M179.508 41.7055L179.562 40.9739H179.526L179.132 41.7235L176.046 46.0407H175.598V39.6372H176.367V44.0296L176.304 44.7522H176.34L176.743 44.0025L179.829 39.6372H180.274V46.0407H179.517L179.508 41.7055Z" fill="#231F20"/>
<path d="M269 33.2367H60.1584V33.5378H269V33.2367Z" fill="black"/>
</g>
<defs>
<clipPath id="clip0">
<rect width="269" height="49" fill="white"/>
</clipPath>
</defs>
</svg>
