<svg width="23" height="23" viewBox="0 0 23 23" fill="none" xmlns="http://www.w3.org/2000/svg">
<path fill-rule="evenodd" clip-rule="evenodd" d="M11.5 2.87492C6.73654 2.87492 2.875 6.73646 2.875 11.4999C2.875 16.2634 6.73654 20.1249 11.5 20.1249C16.2635 20.1249 20.125 16.2634 20.125 11.4999C20.125 6.73646 16.2635 2.87492 11.5 2.87492ZM0.958332 11.4999C0.958332 5.67792 5.678 0.958252 11.5 0.958252C17.322 0.958252 22.0417 5.67792 22.0417 11.4999C22.0417 17.3219 17.322 22.0416 11.5 22.0416C5.678 22.0416 0.958332 17.3219 0.958332 11.4999Z" fill="white"/>
<path fill-rule="evenodd" clip-rule="evenodd" d="M11.5 4.79158C12.0293 4.79158 12.4583 5.22065 12.4583 5.74992V10.9076L15.7619 12.5594C16.2353 12.7961 16.4272 13.3718 16.1905 13.8452C15.9538 14.3186 15.3781 14.5104 14.9048 14.2737L11.0714 12.3571C10.7468 12.1947 10.5417 11.8629 10.5417 11.4999V5.74992C10.5417 5.22065 10.9707 4.79158 11.5 4.79158Z" fill="white"/>
</svg>
