<svg width="80" height="75" viewBox="0 0 80 75" fill="none" xmlns="http://www.w3.org/2000/svg">
<path d="M40 56.25C39.1376 56.25 38.4375 56.9501 38.4375 57.8125C38.4375 58.6749 39.1376 59.375 40 59.375C40.8624 59.375 41.5625 58.6749 41.5625 57.8125C41.5625 56.9501 40.8624 56.25 40 56.25Z" fill="#39B54A"/>
<path d="M75.3125 15.625H60.3125V7.8125C60.3125 3.50464 56.8079 0 52.5 0H27.5C23.1921 0 19.6875 3.50464 19.6875 7.8125V15.625H4.6875C2.10266 15.625 0 17.7277 0 20.3125V30.8813C0 32.6685 0.993042 34.2749 2.59216 35.0739C2.60376 35.08 2.61536 35.0861 2.62756 35.0916L3.125 35.3241V70.3125C3.125 72.8973 5.22766 75 7.8125 75H72.1875C74.7723 75 76.875 72.8973 76.875 70.3125V35.3241C76.875 35.3241 77.3962 35.08 77.4078 35.0739C79.007 34.2749 80 32.6678 80 30.8813V20.3125C80 17.7277 77.8973 15.625 75.3125 15.625ZM22.8125 7.8125C22.8125 5.22766 24.9152 3.125 27.5 3.125H52.5C55.0848 3.125 57.1875 5.22766 57.1875 7.8125V15.625H54.0625V7.8125C54.0625 6.94946 53.363 6.25 52.5 6.25H27.5C26.637 6.25 25.9375 6.94946 25.9375 7.8125V15.625H22.8125V7.8125ZM50.9375 9.375V15.625H29.0625V9.375H50.9375ZM73.75 70.3125C73.75 71.1743 73.0493 71.875 72.1875 71.875H41.5625V64.0625C41.5625 63.1995 40.863 62.5 40 62.5C39.137 62.5 38.4375 63.1995 38.4375 64.0625V71.875H7.8125C6.95068 71.875 6.25 71.1743 6.25 70.3125V36.7883L16.5625 41.6187V48.4375C16.5625 49.3005 17.262 50 18.125 50H24.375C25.238 50 25.9375 49.3005 25.9375 48.4375V46.2781L37.9053 52.262C38.5608 52.5891 39.2804 52.7527 39.9994 52.7527C40.719 52.7527 41.4392 52.5891 42.0953 52.2614L54.0625 46.2781V48.4375C54.0625 49.3005 54.762 50 55.625 50H61.875C62.738 50 63.4375 49.3005 63.4375 48.4375V41.6187L73.75 36.7883V70.3125ZM19.6875 46.875V37.5H22.8125V46.875H19.6875ZM57.1875 46.875V37.5H60.3125V46.875H57.1875ZM76.875 30.8813C76.875 31.4709 76.5497 32.0026 76.0254 32.2717L63.4375 38.1677V35.9375C63.4375 35.0745 62.738 34.375 61.875 34.375H55.625C54.762 34.375 54.0625 35.0745 54.0625 35.9375V42.7844L40.6995 49.4659C40.2612 49.6845 39.7388 49.6845 39.3018 49.4666L25.9375 42.7844V35.9375C25.9375 35.0745 25.238 34.375 24.375 34.375H18.125C17.262 34.375 16.5625 35.0745 16.5625 35.9375V38.1677L3.97461 32.2711C3.45032 32.0026 3.125 31.4716 3.125 30.8813V20.3125C3.125 19.4507 3.82568 18.75 4.6875 18.75H75.3125C76.1743 18.75 76.875 19.4507 76.875 20.3125V30.8813Z" fill="#39B54A"/>
<path d="M47.8125 54.6875V67.1875C47.8125 68.0505 48.512 68.75 49.375 68.75H65C65.863 68.75 66.5625 68.0505 66.5625 67.1875V54.6875C66.5625 53.8245 65.863 53.125 65 53.125H49.375C48.512 53.125 47.8125 53.8245 47.8125 54.6875ZM50.9375 56.25H63.4375V65.625H50.9375V56.25Z" fill="#39B54A"/>
<path d="M30.625 53.125H15C14.137 53.125 13.4375 53.8245 13.4375 54.6875V67.1875C13.4375 68.0505 14.137 68.75 15 68.75H30.625C31.488 68.75 32.1875 68.0505 32.1875 67.1875V54.6875C32.1875 53.8245 31.488 53.125 30.625 53.125ZM29.0625 65.625H16.5625V56.25H29.0625V65.625Z" fill="#39B54A"/>
<path d="M40 25C37.4152 25 35.3125 27.1027 35.3125 29.6875C35.3125 32.2723 37.4152 34.375 40 34.375C42.5848 34.375 44.6875 32.2723 44.6875 29.6875C44.6875 27.1027 42.5848 25 40 25ZM40 31.25C39.1382 31.25 38.4375 30.5493 38.4375 29.6875C38.4375 28.8257 39.1382 28.125 40 28.125C40.8618 28.125 41.5625 28.8257 41.5625 29.6875C41.5625 30.5493 40.8618 31.25 40 31.25Z" fill="#39B54A"/>
</svg>
