<svg width="80" height="80" viewBox="0 0 80 80" fill="none" xmlns="http://www.w3.org/2000/svg">
<path d="M78.4375 9.49375H69.6941C69.3205 5.35219 65.8295 2.09562 61.592 2.09562C57.3548 2.09562 53.8639 5.35219 53.4903 9.49375H36.0366V8.13484C36.0366 3.64922 32.3872 0 27.9016 0C23.4161 0 19.7667 3.64922 19.7667 8.13484V9.49375H11.0563C10.1934 9.49375 9.49375 10.1933 9.49375 11.0563V19.7667H8.135C3.64922 19.7667 0 23.4159 0 27.9016C0 32.3872 3.64922 36.0364 8.13484 36.0364H9.49359V44.5906C9.49359 44.617 9.49359 44.7205 9.49359 44.7469V54.5436C9.49359 55.4066 10.1933 56.1061 11.0561 56.1061H14.4955C17.5205 56.1061 19.9816 58.5672 19.9816 61.5922C19.9816 64.6172 17.5205 67.0783 14.4955 67.0783H11.0563C10.1934 67.0783 9.49375 67.7778 9.49375 68.6408V78.4375C9.49375 79.3005 10.1934 80 11.0563 80H78.4375C79.3003 80 80 79.3005 80 78.4375V11.0563C80 10.1933 79.3003 9.49375 78.4375 9.49375ZM11.0563 32.9114H8.13484C5.3725 32.9114 3.125 30.6641 3.125 27.9016C3.125 25.1391 5.3725 22.8917 8.13484 22.8917H11.0563C11.9191 22.8917 12.6188 22.1922 12.6188 21.3292V12.6188H21.3294C22.1922 12.6188 22.8919 11.9192 22.8919 11.0563V8.13484C22.8919 5.37234 25.1392 3.125 27.9017 3.125C30.6642 3.125 32.9116 5.37234 32.9116 8.13484V11.0563C32.9116 11.9192 33.6113 12.6188 34.4741 12.6188H43.1844V21.3292C43.1844 22.1922 43.8841 22.8917 44.7469 22.8917H47.6681C50.4306 22.8917 52.678 25.1391 52.678 27.9016C52.678 30.6641 50.4305 32.9114 47.6681 32.9114H44.7469C43.8841 32.9114 43.1844 33.6109 43.1844 34.4739V43.1844H28.5502V34.7578C28.5502 33.8948 27.8505 33.1953 26.9877 33.1953C26.1248 33.1953 25.4252 33.8948 25.4252 34.7578V43.1844H12.6188V34.4739C12.6188 33.6109 11.9191 32.9114 11.0563 32.9114ZM44.7469 66.5989C43.8841 66.5989 43.1844 67.2984 43.1844 68.1614V76.875H33.2109V68.4484C33.2109 67.5855 32.5112 66.8859 31.6484 66.8859C30.7856 66.8859 30.0859 67.5855 30.0859 68.4484V76.875H12.6188V70.2033H14.4956C19.2439 70.2033 23.1067 66.3403 23.1067 61.5922C23.1067 56.8441 19.2438 52.9811 14.4956 52.9811H12.6188V46.3094H43.1844V55.0228C43.1844 55.8858 43.8841 56.5853 44.7469 56.5853H45.6711C48.4319 56.5853 50.678 58.8314 50.678 61.592C50.678 64.3527 48.4319 66.5989 45.6711 66.5989H44.7469ZM76.875 64.8209H68.4484C67.5856 64.8209 66.8859 65.5205 66.8859 66.3834C66.8859 67.2464 67.5856 67.9459 68.4484 67.9459H76.875V76.875H46.3094V69.6992C50.4961 69.3725 53.803 65.8613 53.803 61.5922C53.803 57.3231 50.4961 53.8119 46.3094 53.4852V46.3094H53.4573V49.7638C53.4573 54.2494 57.1066 57.8986 61.5922 57.8986C66.0778 57.8986 69.727 54.2494 69.727 49.7638V46.3094H76.875V64.8209ZM76.875 25.0195H68.4484C67.5856 25.0195 66.8859 25.7191 66.8859 26.582C66.8859 27.445 67.5856 28.1445 68.4484 28.1445H76.875V43.1844H68.1647C67.3019 43.1844 66.6022 43.8839 66.6022 44.7469V49.7638C66.6022 52.5263 64.3547 54.7736 61.5922 54.7736C58.8297 54.7736 56.5823 52.5263 56.5823 49.7638V44.7469C56.5823 43.8839 55.8827 43.1844 55.0198 43.1844H46.3094V36.0364H47.6681C52.1537 36.0364 55.803 32.3872 55.803 27.9016C55.803 23.4159 52.1537 19.7667 47.6681 19.7667H46.3094V12.6188H55.0198C55.8827 12.6188 56.5823 11.9192 56.5823 11.0563V10.2305C56.5823 7.46797 58.8298 5.22062 61.5922 5.22062C64.3545 5.22062 66.602 7.46797 66.602 10.2305V11.0563C66.602 11.9192 67.3017 12.6188 68.1645 12.6188H76.875V25.0195Z" fill="black"/>
<path d="M31.6484 64.136C32.5114 64.136 33.2109 63.4364 33.2109 62.5735C33.2109 61.7105 32.5114 61.011 31.6484 61.011C30.7855 61.011 30.0859 61.7105 30.0859 62.5735C30.0859 63.4364 30.7855 64.136 31.6484 64.136Z" fill="black"/>
<path d="M62.5735 67.9453C63.4364 67.9453 64.136 67.2458 64.136 66.3828C64.136 65.5199 63.4364 64.8203 62.5735 64.8203C61.7105 64.8203 61.011 65.5199 61.011 66.3828C61.011 67.2458 61.7105 67.9453 62.5735 67.9453Z" fill="black"/>
<path d="M62.5735 28.1438C63.4364 28.1438 64.136 27.4442 64.136 26.5813C64.136 25.7184 63.4364 25.0188 62.5735 25.0188C61.7105 25.0188 61.011 25.7184 61.011 26.5813C61.011 27.4442 61.7105 28.1438 62.5735 28.1438Z" fill="black"/>
<path d="M26.9875 30.4453C27.8505 30.4453 28.55 29.7458 28.55 28.8828C28.55 28.0199 27.8505 27.3203 26.9875 27.3203C26.1246 27.3203 25.425 28.0199 25.425 28.8828C25.425 29.7458 26.1246 30.4453 26.9875 30.4453Z" fill="black"/>
</svg>
