<svg width="75" height="75" viewBox="0 0 75 75" fill="none" xmlns="http://www.w3.org/2000/svg">
<path d="M24.2324 0.532959C20.7622 0.532959 17.939 3.35615 17.939 6.82622C17.939 10.2964 20.7622 13.1196 24.2324 13.1196C27.7024 13.1196 30.5258 10.2964 30.5258 6.82622C30.5258 3.35615 27.7026 0.532959 24.2324 0.532959ZM24.2324 10.1898C22.3776 10.1898 20.8687 8.68086 20.8687 6.82607C20.8687 4.97129 22.3776 3.4625 24.2324 3.4625C26.0872 3.4625 27.5961 4.97144 27.5961 6.82607C27.5961 8.68071 26.0872 10.1898 24.2324 10.1898Z" fill="black"/>
<path d="M52.7695 0.532959C49.2993 0.532959 46.4761 3.35615 46.4761 6.82622C46.4761 10.2964 49.2994 13.1196 52.7695 13.1196C56.2395 13.1196 59.0629 10.2964 59.0629 6.82622C59.0629 3.35615 56.2397 0.532959 52.7695 0.532959ZM52.7695 10.1898C50.9147 10.1898 49.4058 8.68086 49.4058 6.82607C49.4058 4.97129 50.9147 3.4625 52.7695 3.4625C54.6243 3.4625 56.1332 4.97144 56.1332 6.82607C56.1332 8.68071 54.6243 10.1898 52.7695 10.1898Z" fill="black"/>
<path d="M73.5352 71.5373H66.0278L65.9607 40.1585C65.959 39.3505 65.3036 38.6968 64.4959 38.6968C64.4949 38.6968 64.4937 38.6968 64.4928 38.6968C63.6839 38.6985 63.0294 39.3558 63.0311 40.1647L63.098 71.5371H54.004L53.9369 37.2546C53.9367 37.1667 53.9275 37.0811 53.9124 36.9974V35.3401C53.9124 33.888 53.693 32.4653 53.2607 31.0951C54.8121 30.2382 56.5563 29.7864 58.3666 29.7825C58.3746 29.7825 58.3821 29.7825 58.3901 29.7825C61.159 29.7825 63.7617 30.8232 65.7202 32.7145C67.6723 34.5995 68.7504 37.1054 68.7561 39.7729L68.7795 46.315C68.7825 47.1223 69.4377 47.7746 70.2442 47.7746C70.2461 47.7746 70.2478 47.7746 70.2497 47.7746C71.0585 47.7716 71.712 47.1135 71.7092 46.3045L71.6858 39.7645C71.6785 36.2996 70.2826 33.0473 67.7553 30.607C66.3842 29.2831 64.7681 28.2875 63.0084 27.6543C64.2769 26.3427 64.9736 24.6211 64.9696 22.7925C64.9613 18.951 61.8335 15.8316 57.9939 15.8316C57.9889 15.8316 57.9838 15.8316 57.9788 15.8316C54.1324 15.8399 51.0098 18.9759 51.0179 22.8223C51.0218 24.6857 51.7512 26.4359 53.0716 27.7507C53.1149 27.7939 53.1601 27.8347 53.2043 27.8766C52.8268 28.0326 52.4563 28.2062 52.0935 28.3967C50.306 25.2015 47.3877 22.8259 43.9354 21.6617C45.4129 20.2554 46.3368 18.2723 46.3368 16.0762C46.3368 11.8222 42.876 8.36133 38.6221 8.36133C34.3682 8.36133 30.9073 11.8222 30.9073 16.0762C30.9073 18.3848 31.9279 20.4582 33.5399 21.8732C30.357 23.0952 27.6718 25.3652 25.984 28.3589C25.4711 28.0935 24.9429 27.8621 24.4021 27.6656C25.6245 26.4085 26.3795 24.6945 26.3795 22.8066C26.3795 18.9601 23.2501 15.8307 19.4036 15.8307C15.5571 15.8307 12.4277 18.9601 12.4277 22.8066C12.4277 24.7963 13.2664 26.5926 14.6071 27.8646C9.82705 29.8277 6.46348 34.4353 6.46348 39.7929V46.3351C6.46348 47.1441 7.11943 47.7999 7.92832 47.7999C8.73721 47.7999 9.39316 47.1441 9.39316 46.3351V39.7929C9.39316 34.2731 14.0443 29.7825 19.7615 29.7825C21.5468 29.7825 23.2709 30.2188 24.8092 31.0509C24.3675 32.4347 24.1433 33.8723 24.1433 35.3401V46.7818V47.7858V71.5371H15.3097V40.1747C15.3097 39.3656 14.6537 38.7098 13.8448 38.7098C13.0359 38.7098 12.38 39.3656 12.38 40.1747V71.5373H1.46484C0.655957 71.5373 0 72.1931 0 73.0021C0 73.8111 0.655957 74.4669 1.46484 74.4669H13.845H73.5352C74.344 74.4669 75 73.8111 75 73.0021C75 72.1931 74.344 71.5373 73.5352 71.5373ZM57.9851 18.7613C57.9882 18.7613 57.9908 18.7613 57.9937 18.7613C60.2207 18.7613 62.0351 20.5708 62.0399 22.7988C62.0423 23.8796 61.6235 24.8965 60.861 25.6625C60.0984 26.4283 59.0832 26.8513 58.0024 26.8537C57.9993 26.8537 57.9965 26.8537 57.9935 26.8537C56.9161 26.8537 55.9025 26.4352 55.1388 25.6748C54.3728 24.9122 53.9499 23.897 53.9476 22.8163C53.9429 20.5852 55.754 18.7661 57.9851 18.7613ZM19.4036 26.8529C17.1727 26.8529 15.3574 25.0378 15.3574 22.8067C15.3574 20.5756 17.1725 18.7605 19.4036 18.7605C21.6346 18.7605 23.4498 20.5756 23.4498 22.8067C23.4498 25.0378 21.6346 26.8529 19.4036 26.8529ZM38.6221 11.2912C41.2605 11.2912 43.4071 13.4377 43.4071 16.0764C43.4071 18.715 41.2605 20.8616 38.6221 20.8616C35.9836 20.8616 33.837 18.715 33.837 16.0764C33.837 13.4377 35.9836 11.2912 38.6221 11.2912ZM30.8533 71.5371H27.0729V53.4993C28.144 54.2856 29.4426 54.7906 30.8533 54.9054V71.5371ZM45.9545 34.3083C45.1456 34.3083 44.4897 34.9641 44.4897 35.7731V71.5373H40.2765V53.8502C40.2765 53.0411 39.6205 52.3853 38.8116 52.3853C38.0027 52.3853 37.3468 53.0411 37.3468 53.8502V71.5371H33.7831V35.773C33.7831 34.9639 33.1271 34.3081 32.3183 34.3081C31.5094 34.3081 30.8534 34.9639 30.8534 35.773V51.9608C28.7202 51.6732 27.0731 49.9112 27.0731 47.786V46.782V35.3402C27.0731 33.841 27.3669 32.3814 27.946 31.0021C27.9472 30.9993 27.9482 30.9965 27.9494 30.9936C29.7913 26.6181 34.1394 23.7911 39.028 23.7911C43.9405 23.7911 48.2971 26.6373 50.1271 31.0419C50.695 32.4091 50.983 33.8552 50.983 35.3401V47.7858C50.983 49.8385 49.4464 51.5524 47.4193 51.9262V35.7731C47.4193 34.9642 46.7634 34.3083 45.9545 34.3083ZM47.4192 71.5371V54.8852C48.7709 54.7357 50.0118 54.2257 51.039 53.4563L51.0744 71.5371H47.4192Z" fill="black"/>
<path d="M70.2451 53.5355C71.0541 53.5355 71.71 52.8797 71.71 52.0707C71.71 51.2617 71.0541 50.6058 70.2451 50.6058C69.4361 50.6058 68.7803 51.2617 68.7803 52.0707C68.7803 52.8797 69.4361 53.5355 70.2451 53.5355Z" fill="black"/>
<path d="M7.92774 53.5355C8.73675 53.5355 9.39258 52.8797 9.39258 52.0707C9.39258 51.2617 8.73675 50.6058 7.92774 50.6058C7.11872 50.6058 6.46289 51.2617 6.46289 52.0707C6.46289 52.8797 7.11872 53.5355 7.92774 53.5355Z" fill="black"/>
</svg>
