<svg width="80" height="80" viewBox="0 0 80 80" fill="none" xmlns="http://www.w3.org/2000/svg">
<g clip-path="url(#clip0)">
<path d="M51.25 6.875C39.1881 6.875 29.375 16.6881 29.375 28.75C29.375 29.4589 29.4102 30.1597 29.4764 30.8514C27.733 29.7286 25.6609 29.0741 23.4375 29.0741C17.2687 29.0741 12.25 34.0928 12.25 40.2616V40.6872V42.5786V46.6667C12.25 49.832 13.5734 52.6922 15.6934 54.7292H13.9984C6.27969 54.7292 0 61.0089 0 68.7277V78.4375C0 79.3005 0.699531 80 1.5625 80H45.3125C46.1755 80 46.875 79.3005 46.875 78.4375V68.7277C46.875 61.0089 40.5953 54.7292 32.8766 54.7292H31.1816C33.3016 52.6922 34.625 49.832 34.625 46.6667V42.9505C38.6403 47.6444 44.6033 50.625 51.25 50.625C63.3119 50.625 73.125 40.8119 73.125 28.75C73.125 16.6881 63.3119 6.875 51.25 6.875ZM15.375 40.687V40.2616C15.375 35.8158 18.9919 32.1991 23.4375 32.1991C27.7423 32.1991 31.27 35.5908 31.4892 39.842L27.4152 37.4486C26.757 37.0617 25.9161 37.2072 25.4261 37.7922C23.7092 39.8409 21.1914 41.0159 18.5184 41.0159H15.375V40.687ZM31.2911 66.3028C31.5481 66.3028 31.8056 66.2395 32.0395 66.1119C32.5414 65.8381 32.8536 65.312 32.8536 64.7403V58.2133C32.8536 58.0895 32.8377 57.9697 32.8105 57.8544H32.8766C38.8722 57.8544 43.75 62.7322 43.75 68.7278V76.875H3.125V68.7277C3.125 62.732 8.00281 57.8542 13.9984 57.8542H14.0214V64.7403C14.0214 65.312 14.3336 65.838 14.8355 66.1119C15.3372 66.3858 15.9488 66.3637 16.4294 66.0544L21.875 62.5508V65.9434C21.875 66.8064 22.5745 67.5059 23.4375 67.5059C24.3005 67.5059 25 66.8064 25 65.9434V62.5508L30.4456 66.0544C30.7025 66.2197 30.9964 66.3028 31.2911 66.3028ZM17.1464 61.877V57.8542H29.7716C29.7444 57.9697 29.7284 58.0894 29.7284 58.2131V61.877L24.2828 58.3734C23.7678 58.0422 23.107 58.0422 22.592 58.3734L17.1464 61.877ZM31.5 46.6667C31.5 51.1125 27.8831 54.7292 23.4375 54.7292C18.9919 54.7292 15.375 51.1125 15.375 46.6667V44.1411H18.5186C21.6698 44.1411 24.6609 42.9283 26.9084 40.7752L31.5 43.4728V46.6667ZM51.25 47.5C40.9113 47.5 32.5 39.0887 32.5 28.75C32.5 18.4113 40.9113 10 51.25 10C61.5887 10 70 18.4113 70 28.75C70 39.0887 61.5887 47.5 51.25 47.5Z" fill="black"/>
<path d="M24.5422 70.5359C24.2516 70.2453 23.8484 70.0781 23.4375 70.0781C23.0266 70.0781 22.6234 70.2453 22.3328 70.5359C22.0422 70.8266 21.875 71.2297 21.875 71.6406C21.875 72.0516 22.0422 72.4547 22.3328 72.7453C22.6234 73.0359 23.0266 73.2031 23.4375 73.2031C23.8484 73.2031 24.2516 73.0359 24.5422 72.7453C24.8328 72.4547 25 72.0516 25 71.6406C25 71.2297 24.8328 70.8266 24.5422 70.5359Z" fill="black"/>
<path d="M38.9844 68.4375H31.9531C31.0902 68.4375 30.3906 69.137 30.3906 70C30.3906 70.863 31.0902 71.5625 31.9531 71.5625H38.9844C39.8473 71.5625 40.5469 70.863 40.5469 70C40.5469 69.137 39.8473 68.4375 38.9844 68.4375Z" fill="black"/>
<path d="M51.25 0C44.3988 0 37.763 2.45031 32.5649 6.89937C27.4242 11.2992 23.9874 17.3792 22.8877 24.0194C22.7467 24.8706 23.3225 25.6752 24.1739 25.8162C25.025 25.9562 25.8296 25.3813 25.9708 24.53C28.0247 12.127 38.6563 3.125 51.25 3.125C65.3797 3.125 76.875 14.6203 76.875 28.75C76.875 42.8797 65.3797 54.375 51.25 54.375C50.3871 54.375 49.6875 55.0745 49.6875 55.9375C49.6875 56.8005 50.3871 57.5 51.25 57.5C67.1028 57.5 80 44.6028 80 28.75C80 12.8972 67.1028 0 51.25 0Z" fill="black"/>
<path d="M46.4257 53.922C46.4205 53.9209 46.4101 53.9189 46.4037 53.9178C45.5585 53.7553 44.7427 54.3075 44.5774 55.1525C44.4116 55.9993 44.9659 56.8206 45.8129 56.9862C45.9163 57.0068 46.0193 57.0168 46.121 57.0168C46.8505 57.0168 47.5029 56.5032 47.6515 55.7604C47.8207 54.9143 47.2719 54.0912 46.4257 53.922Z" fill="black"/>
<path d="M59.6727 20.3529C59.0625 19.7426 58.0731 19.7428 57.4628 20.3529L51.2756 26.5401L48.0186 23.2831C47.4084 22.6729 46.4191 22.6729 45.8087 23.2831C45.1984 23.8933 45.1986 24.8826 45.8087 25.4929L50.1709 29.8548C50.4761 30.16 50.8759 30.3125 51.2758 30.3125C51.6756 30.3125 52.0756 30.16 52.3806 29.8548L59.6727 22.5628C60.2828 21.9526 60.2828 20.9633 59.6727 20.3529Z" fill="black"/>
<path d="M51.25 11.8882C50.387 11.8882 49.6875 12.5877 49.6875 13.4507V14.5576C49.6875 15.4205 50.387 16.1201 51.25 16.1201C52.113 16.1201 52.8125 15.4205 52.8125 14.5576V13.4507C52.8125 12.5877 52.113 11.8882 51.25 11.8882Z" fill="black"/>
<path d="M51.25 41.38C50.387 41.38 49.6875 42.0795 49.6875 42.9425V44.0494C49.6875 44.9123 50.387 45.6119 51.25 45.6119C52.113 45.6119 52.8125 44.9123 52.8125 44.0494V42.9425C52.8125 42.0795 52.113 41.38 51.25 41.38Z" fill="black"/>
<path d="M66.5494 27.1875H65.4425C64.5795 27.1875 63.88 27.887 63.88 28.75C63.88 29.613 64.5795 30.3125 65.4425 30.3125H66.5494C67.4123 30.3125 68.1119 29.613 68.1119 28.75C68.1119 27.887 67.4123 27.1875 66.5494 27.1875Z" fill="black"/>
<path d="M37.0574 27.1875H35.9506C35.0876 27.1875 34.3881 27.887 34.3881 28.75C34.3881 29.613 35.0876 30.3125 35.9506 30.3125H37.0574C37.9204 30.3125 38.6199 29.613 38.6199 28.75C38.6199 27.887 37.9204 27.1875 37.0574 27.1875Z" fill="black"/>
</g>
<defs>
<clipPath id="clip0">
<rect width="80" height="80" fill="white"/>
</clipPath>
</defs>
</svg>
