<svg width="80" height="79" viewBox="0 0 80 79" fill="none" xmlns="http://www.w3.org/2000/svg">
<path d="M5.79203 55.3812C5.50156 55.0905 5.09843 54.9233 4.6875 54.9233C4.27656 54.9233 3.87344 55.0905 3.58281 55.3812C3.29219 55.6718 3.125 56.0733 3.125 56.4858C3.125 56.8968 3.29203 57.2999 3.58281 57.5905C3.87344 57.881 4.27656 58.0483 4.6875 58.0483C5.09843 58.0483 5.50156 57.8812 5.79203 57.5905C6.08265 57.2983 6.25 56.8968 6.25 56.4858C6.25 56.0749 6.08281 55.6718 5.79203 55.3812Z" fill="black"/>
<path d="M8.91744 4.01999L5.79245 0.894999C5.18214 0.285 4.19308 0.285 3.58261 0.894999L0.457616 4.01999C-0.152539 4.63015 -0.152539 5.61952 0.457616 6.22983C1.06793 6.83983 2.05699 6.83983 2.66746 6.22983L3.12511 5.77233V50.1856C3.12511 51.0484 3.8248 51.7481 4.68761 51.7481C5.55042 51.7481 6.2501 51.0484 6.2501 50.1856V5.77233L6.70776 6.22999C7.01292 6.53483 7.41276 6.68749 7.8126 6.68749C8.21244 6.68749 8.61229 6.53483 8.91744 6.22983C9.5276 5.61968 9.5276 4.6303 8.91744 4.01999Z" fill="black"/>
<path d="M79.5423 72.7701L76.4174 69.6451C75.807 69.0351 74.818 69.0351 74.2075 69.6451C73.5974 70.2553 73.5974 71.2446 74.2075 71.8549L74.6652 72.3126H69.0577V50.3855C69.0577 49.5226 68.358 48.823 67.4952 48.823C66.6324 48.823 65.9327 49.5226 65.9327 50.3855V72.3125H49.0007V62.3125C49.0007 61.4497 48.301 60.75 47.4382 60.75C46.5754 60.75 45.8757 61.4497 45.8757 62.3125V72.3125H32.8867V47.2383C32.8867 46.3755 32.187 45.6758 31.3242 45.6758C30.4614 45.6758 29.7617 46.3755 29.7617 47.2383V72.3125H17.2164V62.5468C17.2164 61.684 16.5167 60.9843 15.6539 60.9843C14.7911 60.9843 14.0914 61.684 14.0914 62.5468V72.3125H6.24999V63.3195C6.24999 62.4567 5.55031 61.757 4.6875 61.757C3.82469 61.757 3.125 62.4567 3.125 63.3195V73.8749C3.125 74.7378 3.82469 75.4374 4.6875 75.4374H74.665L74.2074 75.8951C73.5972 76.5053 73.5972 77.4946 74.2074 78.1049C74.5125 78.4099 74.9124 78.5626 75.3122 78.5626C75.712 78.5626 76.1119 78.4099 76.417 78.1049L79.542 74.9799C80.1525 74.3696 80.1525 73.3803 79.5423 72.7701Z" fill="black"/>
<path d="M67.495 27.543C64.384 27.543 61.8533 30.0737 61.8533 33.1847C61.8533 34.0769 62.0623 34.9211 62.4326 35.6719L50.1977 47.9068C49.3811 47.4468 48.44 47.1831 47.438 47.1831C46.4583 47.1831 45.5364 47.4345 44.7327 47.8754L36.4574 39.6001C36.7829 38.8878 36.9657 38.0972 36.9657 37.264C36.9657 34.1531 34.4349 31.6222 31.324 31.6222C28.213 31.6222 25.6821 34.1531 25.6821 37.264C25.6821 38.224 25.9237 39.1284 26.3483 39.9204L18.3754 47.8934C17.5677 47.4467 16.6401 47.1915 15.6537 47.1915C12.5427 47.1915 10.012 49.7223 10.012 52.8332C10.012 55.9442 12.5431 58.4749 15.654 58.4749C18.7649 58.4749 21.2958 55.9442 21.2958 52.8332C21.2958 51.8423 21.0382 50.9109 20.5877 50.1007L28.5277 42.1607C29.3527 42.6337 30.3069 42.9057 31.3241 42.9057C32.4655 42.9057 33.5282 42.564 34.4169 41.979L42.5138 50.0759C42.0575 50.8898 41.7963 51.8271 41.7963 52.8248C41.7963 55.9357 44.3271 58.4666 47.438 58.4666C50.5489 58.4666 53.0797 55.9357 53.0797 52.8248C53.0797 51.8496 52.8308 50.9315 52.3934 50.1304L64.5373 37.9865C65.398 38.5186 66.4109 38.8265 67.495 38.8265C70.6059 38.8265 73.1367 36.2956 73.1367 33.1847C73.1367 30.0737 70.6059 27.543 67.495 27.543ZM15.6541 55.3501C14.2665 55.3501 13.1374 54.221 13.1374 52.8334C13.1374 51.4457 14.2662 50.3165 15.654 50.3165C16.3338 50.3165 16.9505 50.5885 17.404 51.0282C17.4116 51.0362 17.4184 51.0449 17.4262 51.0528C17.4354 51.062 17.4455 51.0698 17.4551 51.0788C17.8973 51.5326 18.171 52.1512 18.171 52.8334C18.171 54.2212 17.0418 55.3501 15.6541 55.3501ZM31.3243 39.7806C29.9366 39.7806 28.8074 38.6515 28.8074 37.2639C28.8074 35.8762 29.9365 34.747 31.3243 34.747C32.7121 34.747 33.841 35.8762 33.841 37.2639C33.841 38.6515 32.7119 39.7806 31.3243 39.7806ZM47.4383 55.3415C46.0506 55.3415 44.9216 54.2123 44.9216 52.8246C44.9216 51.437 46.0506 50.3079 47.4383 50.3079C48.826 50.3079 49.955 51.4368 49.955 52.8246C49.955 54.2124 48.826 55.3415 47.4383 55.3415ZM67.4953 35.7014C66.1076 35.7014 64.9786 34.5722 64.9786 33.1845C64.9786 31.7969 66.1075 30.6678 67.4953 30.6678C68.8831 30.6678 70.012 31.7969 70.012 33.1845C70.012 34.5722 68.8829 35.7014 67.4953 35.7014Z" fill="black"/>
<path d="M68.6 42.7703C68.3094 42.4797 67.9063 42.3125 67.4954 42.3125C67.0844 42.3125 66.6813 42.4795 66.3907 42.7703C66.1002 43.0609 65.9329 43.4641 65.9329 43.875C65.9329 44.2859 66.1 44.6891 66.3907 44.9795C66.6813 45.2702 67.0844 45.4375 67.4954 45.4375C67.9063 45.4375 68.3094 45.2703 68.6 44.9795C68.8905 44.6891 69.0578 44.2859 69.0578 43.875C69.0578 43.4641 68.8907 43.0609 68.6 42.7703Z" fill="black"/>
</svg>
