<svg width="79" height="79" viewBox="0 0 79 79" fill="none" xmlns="http://www.w3.org/2000/svg">
<g clip-path="url(#clip0)">
<path d="M77.457 57.707H70.0508C69.1988 57.707 68.5078 58.398 68.5078 59.25C68.5078 60.102 69.1988 60.793 70.0508 60.793H75.9141V70.0508C75.9141 73.2838 73.2838 75.9141 70.0508 75.9141C66.8178 75.9141 64.1875 73.2838 64.1875 70.0508V1.54297C64.1875 0.690941 63.4966 0 62.6445 0H9.56348C8.71145 0 8.02051 0.690941 8.02051 1.54297V8.79492C8.02051 9.64695 8.71145 10.3379 9.56348 10.3379C10.4155 10.3379 11.1064 9.64695 11.1064 8.79492V3.08594H61.1016V70.0508C61.1016 72.2923 61.9318 74.3422 63.2984 75.9141H16.9697C13.7367 75.9141 11.1064 73.2838 11.1064 70.0508V58.3242C11.1064 57.4722 10.4155 56.7812 9.56348 56.7812C8.71145 56.7812 8.02051 57.4722 8.02051 58.3242V70.0508C8.02051 74.9854 12.0352 79 16.9697 79H70.0508C74.9853 79 79 74.9854 79 70.0508V59.25C79 58.398 78.3091 57.707 77.457 57.707Z" fill="#39B54A"/>
<path d="M10.6541 50.1357C10.367 49.8487 9.96903 49.6836 9.56323 49.6836C9.15743 49.6836 8.75935 49.8485 8.47251 50.1357C8.18552 50.4227 8.02026 50.8208 8.02026 51.2266C8.02026 51.6324 8.18536 52.0304 8.47251 52.3173C8.76104 52.6044 9.15759 52.7695 9.56323 52.7695C9.96903 52.7695 10.3671 52.6044 10.6541 52.3173C10.9411 52.0304 11.1062 51.6324 11.1062 51.2266C11.1062 50.8208 10.9413 50.4227 10.6541 50.1357Z" fill="#39B54A"/>
<path d="M46.7118 32.1749C45.6344 30.9856 43.8783 29.1844 41.6307 27.3572C37.6653 24.1334 31.4665 20.2905 24.4559 20.2905C17.4355 20.2905 11.2422 24.1152 7.28297 27.3238C5.01974 29.1581 3.26878 30.9557 2.19858 32.1408C0 34.5755 0 34.9586 0 35.4022C0 35.8657 0 36.2007 2.20027 38.6295C3.27773 39.8188 5.03394 41.6199 7.28142 43.4471C11.2469 46.6708 17.4456 50.5137 24.4562 50.5137C31.4764 50.5137 37.6697 46.689 41.629 43.4804C43.8922 41.6463 45.6432 39.8487 46.7134 38.6636C48.9121 36.2291 48.9121 35.8458 48.9121 35.4022C48.9121 34.9385 48.9121 34.6036 46.7118 32.1749ZM39.2304 41.4466C35.7611 44.1752 30.3815 47.4278 24.4561 47.4278C14.2752 47.4278 5.77765 38.1473 3.47739 35.3801C4.47229 34.1644 6.6468 31.7446 9.68167 29.3578C13.151 26.6292 18.5306 23.3766 24.4561 23.3766C34.6375 23.3766 43.1346 32.657 45.4347 35.4244C44.4398 36.6401 42.2653 39.06 39.2304 41.4466Z" fill="#39B54A"/>
<path d="M31.0344 29.284C30.9633 29.2028 30.8903 29.1229 30.8128 29.0454C30.7355 28.9683 30.6556 28.8953 30.5747 28.8242C28.9688 27.3293 26.8181 26.4124 24.4561 26.4124C19.4992 26.4124 15.4663 30.4452 15.4663 35.4021C15.4663 40.3591 19.4992 44.3918 24.4561 44.3918C29.413 44.3918 33.4459 40.3591 33.4459 35.4021C33.4459 33.0405 32.5291 30.8899 31.0344 29.284ZM26.0827 31.2275C26.4339 30.8763 26.8954 30.7006 27.3567 30.7006C27.7858 30.7006 28.2135 30.8546 28.5541 31.1582C28.6036 31.206 28.6522 31.2546 28.7 31.3042C29.3303 32.0109 29.3086 33.0976 28.6308 33.7754C27.9283 34.4779 26.7852 34.4779 26.0827 33.7754C25.3802 33.0729 25.3802 31.93 26.0827 31.2275ZM24.456 41.306C21.2008 41.3059 18.5522 38.6575 18.5522 35.4021C18.5522 32.4963 20.6632 30.0758 23.4316 29.5892C22.0108 31.5014 22.1668 34.2239 23.9005 35.9576C24.8534 36.9104 26.1049 37.3869 27.3566 37.3869C28.3823 37.3869 29.4076 37.0664 30.2689 36.4265C29.7824 39.1951 27.3618 41.306 24.456 41.306Z" fill="#39B54A"/>
<path d="M24.4546 6.17188C23.6026 6.17188 22.9116 6.86282 22.9116 7.71484V14.7063C22.9116 15.5584 23.6026 16.2493 24.4546 16.2493C25.3066 16.2493 25.9976 15.5584 25.9976 14.7063V7.71484C25.9976 6.86282 25.3066 6.17188 24.4546 6.17188Z" fill="#39B54A"/>
<path d="M18.0558 16.3131L15.2442 13.5039C14.641 12.9015 13.6643 12.9022 13.062 13.5049C12.4598 14.1077 12.4602 15.0847 13.0629 15.6871L15.8746 18.4964C16.176 18.7972 16.5707 18.9477 16.9652 18.9477C17.3604 18.9477 17.7554 18.7968 18.0567 18.4953C18.6589 17.8924 18.6585 16.9154 18.0558 16.3131Z" fill="#39B54A"/>
<path d="M35.8494 13.5065C35.2465 12.9044 34.2695 12.9047 33.6671 13.5074L30.6779 16.4991C30.0757 17.1019 30.0762 18.0788 30.6789 18.6813C30.9801 18.9822 31.3749 19.1328 31.7694 19.1328C32.1646 19.1328 32.5597 18.9819 32.8611 18.6804L35.8503 15.6887C36.4525 15.0859 36.452 14.109 35.8494 13.5065Z" fill="#39B54A"/>
<path d="M53.3855 55.2383H18.823C17.971 55.2383 17.28 55.9292 17.28 56.7812V69.125C17.28 69.977 17.971 70.668 18.823 70.668H53.3855C54.2375 70.668 54.9285 69.977 54.9285 69.125V56.7812C54.9285 55.9292 54.2377 55.2383 53.3855 55.2383ZM51.8425 67.582H20.366V58.3242H51.8425V67.582Z" fill="#39B54A"/>
<path d="M53.3853 47.832H43.8203C42.9683 47.832 42.2773 48.523 42.2773 49.375C42.2773 50.227 42.9683 50.918 43.8203 50.918H53.3853C54.2374 50.918 54.9283 50.227 54.9283 49.375C54.9283 48.523 54.2375 47.832 53.3853 47.832Z" fill="#39B54A"/>
<path d="M53.3854 40.4258H50.3772C49.5252 40.4258 48.8342 41.1167 48.8342 41.9688C48.8342 42.8208 49.5252 43.5117 50.3772 43.5117H53.3854C54.2374 43.5117 54.9283 42.8208 54.9283 41.9688C54.9283 41.1167 54.2375 40.4258 53.3854 40.4258Z" fill="#39B54A"/>
<path d="M53.3853 15.7383H46.8291C45.9771 15.7383 45.2861 16.4292 45.2861 17.2812C45.2861 18.1333 45.9771 18.8242 46.8291 18.8242H53.3853C54.2374 18.8242 54.9283 18.1333 54.9283 17.2812C54.9283 16.4292 54.2374 15.7383 53.3853 15.7383Z" fill="#39B54A"/>
<path d="M53.3853 8.33203H46.8291C45.9771 8.33203 45.2861 9.02297 45.2861 9.875C45.2861 10.727 45.9771 11.418 46.8291 11.418H53.3853C54.2374 11.418 54.9283 10.727 54.9283 9.875C54.9283 9.02297 54.2374 8.33203 53.3853 8.33203Z" fill="#39B54A"/>
<path d="M53.3853 23.1445H46.8291C45.9771 23.1445 45.2861 23.8355 45.2861 24.6875C45.2861 25.5395 45.9771 26.2305 46.8291 26.2305H53.3853C54.2374 26.2305 54.9283 25.5395 54.9283 24.6875C54.9283 23.8355 54.2374 23.1445 53.3853 23.1445Z" fill="#39B54A"/>
</g>
<defs>
<clipPath id="clip0">
<rect width="79" height="79" fill="white"/>
</clipPath>
</defs>
</svg>
