<svg width="23" height="23" viewBox="0 0 23 23" fill="none" xmlns="http://www.w3.org/2000/svg">
<path d="M3.3362 22.7751H19.4389C21.2785 22.7751 22.7751 21.2785 22.7751 19.4389V3.3362C22.7751 1.4966 21.2785 0 19.4389 0H3.3362C1.4966 0 0 1.4966 0 3.3362V19.4389C0 21.2785 1.4966 22.7751 3.3362 22.7751ZM1.33448 3.3362C1.33448 2.23247 2.23247 1.33448 3.3362 1.33448H19.4389C20.5426 1.33448 21.4406 2.23247 21.4406 3.3362V19.4389C21.4406 20.5426 20.5426 21.4406 19.4389 21.4406H3.3362C2.23247 21.4406 1.33448 20.5426 1.33448 19.4389V3.3362Z" fill="white"/>
<path d="M11.3875 17.3926C14.6987 17.3926 17.3927 14.6987 17.3927 11.3875C17.3927 8.07631 14.6987 5.38232 11.3875 5.38232C8.07637 5.38232 5.38239 8.07631 5.38239 11.3875C5.38239 14.6987 8.07637 17.3926 11.3875 17.3926ZM11.3875 6.7168C13.963 6.7168 16.0582 8.81201 16.0582 11.3875C16.0582 13.963 13.963 16.0582 11.3875 16.0582C8.81207 16.0582 6.71686 13.963 6.71686 11.3875C6.71686 8.81201 8.81207 6.7168 11.3875 6.7168Z" fill="white"/>
<path d="M18.0599 6.71682C19.1637 6.71682 20.0617 5.81882 20.0617 4.7151C20.0617 3.61137 19.1637 2.71338 18.0599 2.71338C16.9562 2.71338 16.0582 3.61137 16.0582 4.7151C16.0582 5.81882 16.9562 6.71682 18.0599 6.71682ZM18.0599 4.04786C18.4278 4.04786 18.7272 4.34725 18.7272 4.7151C18.7272 5.08295 18.4278 5.38234 18.0599 5.38234C17.6921 5.38234 17.3927 5.08295 17.3927 4.7151C17.3927 4.34725 17.6921 4.04786 18.0599 4.04786Z" fill="white"/>
</svg>
