<svg width="26" height="14" viewBox="0 0 26 14" fill="none" xmlns="http://www.w3.org/2000/svg">
<path d="M22.6707 9.32451L22.6571 9.31347C22.4418 9.14072 21.7823 8.58285 21.56 8.33904C21.2989 8.03485 21.3591 7.83552 21.5548 7.53685C21.802 7.15942 22.2973 6.58048 22.8216 5.96742C24.5006 4.00451 25.5847 2.64562 25.3615 1.68038L25.2413 1.16482L19.0404 1.16716C19.0187 1.218 18.6951 2.45364 17.3296 4.5577C16.3394 6.08331 15.6899 6.56258 15.4612 6.6472L15.4258 6.63783C15.3514 6.5579 15.2213 6.34218 15.1678 5.78615C15.112 5.20369 15.1615 4.4985 15.2094 3.81655C15.2654 3.01686 15.3137 2.32622 15.198 1.83206L15.0097 1.02703C14.7821 0.995422 13.9489 0.715985 11.6275 0.694747C9.61774 0.676854 9.02733 0.9292 8.73742 1.15161L7.77842 1.88724L8.99059 2.24177C9.45191 2.37672 9.60504 2.53241 9.73066 3.30416C9.81262 3.80718 9.85552 4.65251 9.76702 5.40721C9.63986 6.48934 9.33494 6.69068 9.31917 6.70138C9.26665 6.68583 8.82129 6.51643 8.04813 5.0955C7.51178 4.11003 7.04161 2.94429 6.69802 2.0931C6.3048 1.11833 6.3756 1.32586 6.1761 0.865319L0.177002 0.865152L0.56522 1.73808C2.18369 5.38079 3.66865 8.22549 5.65591 10.2687C7.85152 12.5261 10.5802 13.708 14.2558 13.708H14.9945V13.0659C14.9945 12.4655 15.0516 12.0333 15.1742 11.7055C15.249 11.5058 15.3485 11.3408 15.4529 11.1677C15.608 10.9128 15.7596 10.8036 15.8423 10.7874C15.9173 10.7725 16.0493 10.8204 16.1955 10.9152C16.6153 11.1873 16.9485 11.5448 17.3013 11.9234C17.8103 12.4697 18.3367 13.0344 19.1718 13.4042C19.6281 13.6062 20.4646 13.7082 20.9249 13.7082C21.0467 13.7082 25.3869 13.708 25.3923 13.708L25.3606 13.0395C25.3132 12.0398 24.4081 10.7898 22.6707 9.32451ZM20.9536 12.4237H20.9417C20.6242 12.4282 20.0184 12.3378 19.8422 12.2598C19.287 12.014 18.899 11.5975 18.4494 11.1152C18.0548 10.6916 17.6468 10.2536 17.0787 9.88555C16.6193 9.58772 16.2021 9.5006 15.8708 9.5006C15.7384 9.5006 15.6195 9.51448 15.5176 9.53454C15.133 9.6098 14.583 9.85027 14.1457 10.5692C14.0224 10.7737 13.8826 11.0053 13.7692 11.3083C13.6505 11.6254 13.5767 11.9777 13.5415 12.4063C10.7716 12.2695 8.61026 11.317 6.78421 9.43956C5.08648 7.69387 3.7508 5.25219 2.33625 2.14896C2.43859 2.14896 5.00318 2.14929 5.15458 2.14929C5.20094 2.2625 5.25096 2.38659 5.30406 2.51803C5.67438 3.43627 6.18168 4.69365 6.7794 5.76591C7.63529 7.30139 8.41692 7.98619 9.31359 7.98619C9.76125 7.98619 10.1627 7.8213 10.4746 7.50909C10.9192 7.0641 11.1773 6.32964 11.2639 5.26356C11.3322 4.42291 11.2687 3.5856 11.1937 3.12422C11.1317 2.74462 11.0434 2.34612 10.828 1.98909C11.7462 1.95313 12.9757 2.00999 13.7546 2.10715C13.8254 2.44227 13.7792 3.10098 13.7346 3.73828C13.6267 5.27778 13.5153 6.86643 14.4528 7.60976C14.6176 7.74053 14.7925 7.8106 14.7975 7.81344L15.2746 7.9407C15.4587 7.89137 16.5251 8.36161 18.5442 5.29851C19.1912 4.31706 19.7935 3.1861 20.1179 2.44746C20.8701 2.44612 23.4328 2.44863 23.7338 2.44896C23.3073 3.26486 22.2966 4.4286 21.6359 5.20102C21.06 5.87428 20.5627 6.45572 20.2708 6.90122C19.7287 7.72883 19.8199 8.46646 20.3845 9.11715L20.3934 9.12718C20.7085 9.47585 21.4867 10.1213 21.6481 10.2514C22.8173 11.2383 23.3808 11.9471 23.649 12.4236H20.9536V12.4237Z" fill="white"/>
</svg>
